SplineFontDB: 3.2
FontName: BibleRoman
FullName: Bible Roman
FamilyName: Bible Roman
Weight: Book
Copyright: 2002, Fredrick Nader. All rights reserved. apostrophe@apostrophiclab.com
Version: 1.0; December 2002
ItalicAngle: 0
UnderlinePosition: -150
UnderlineWidth: 40
Ascent: 819
Descent: 205
InvalidEm: 0
sfntRevision: 0x00010000
LayerCount: 2
Layer: 0 1 "Hinten" 1
Layer: 1 1 "Vorne" 0
XUID: [1021 256 -1967491057 14686]
StyleMap: 0x0040
FSType: 0
OS2Version: 2
OS2_WeightWidthSlopeOnly: 0
OS2_UseTypoMetrics: 0
CreationTime: 1039457615
ModificationTime: 1762472002
PfmFamily: 17
TTFWeight: 400
TTFWidth: 5
LineGap: 28
VLineGap: 0
Panose: 2 2 5 0 6 4 11 2 4 3
OS2TypoAscent: 816
OS2TypoAOffset: 0
OS2TypoDescent: -281
OS2TypoDOffset: 0
OS2TypoLinegap: 54
OS2WinAscent: 1026
OS2WinAOffset: 0
OS2WinDescent: 298
OS2WinDOffset: 0
HheadAscent: 1026
HheadAOffset: 0
HheadDescent: -298
HheadDOffset: 0
OS2SubXSize: 717
OS2SubYSize: 666
OS2SubXOff: 0
OS2SubYOff: 143
OS2SupXSize: 717
OS2SupYSize: 666
OS2SupXOff: 0
OS2SupYOff: 488
OS2StrikeYSize: 51
OS2StrikeYPos: 256
OS2FamilyClass: 258
OS2Vendor: 'APOS'
OS2CodePages: 20000111.00000000
OS2UnicodeRanges: 80000027.4000004a.00000000.00000000
Lookup: 1 0 0 "'smcp' Gemeine in Kapit+AOQA-lchen in Lateinisch Nachschlagetabelle 0" { "'smcp' Gemeine in Kapit+AOQA-lchen in Lateinisch Nachschlagetabelle 0 Subtabelle"  } ['smcp' ('latn' <'dflt' > ) ]
Lookup: 1 0 0 "'c2sc' Versalien in Kapit+AOQA-lchen in Lateinisch Nachschlagetabelle 0" { "'c2sc' Versalien in Kapit+AOQA-lchen in Lateinisch Nachschlagetabelle 0 Subtabelle"  } ['c2sc' ('latn' <'dflt' > ) ]
Lookup: 258 0 0 "'kern' Horizontale Unterschneidung in Lateinisch Nachschlagetabelle 0" { "'kern' Horizontale Unterschneidung in Lateinisch Nachschlagetabelle 0 Subtabelle"  } ['kern' ('DFLT' <'dflt' > 'latn' <'dflt' > ) ]
MarkAttachClasses: 1
DEI: 91125
ShortTable: maxp 16
  1
  0
  248
  235
  7
  0
  0
  1
  0
  0
  0
  0
  0
  0
  0
  0
EndShort

StartChar: breve
Encoding: 5 5 4
Width: 480
Flags: W
LayerCount: 2
Fore
SplineSet
246 593.5 m 0,0,1
 260.552302727 593.5 260.552302727 593.5 274.218933168 598.966652177 c 0,2,3
 299.990070687 609.275107184 299.990070687 609.275107184 314.337318463 636.944799324 c 0,4,5
 320.5 648.82997086 320.5 648.82997086 320.5 664 c 2,6,-1
 320.5 671.5 l 1,7,-1
 328 671.5 l 1,8,-1
 370 671.5 l 1,9,-1
 377.5 671.5 l 1,10,-1
 377.5 664 l 2,11,12
 377.5 635.263143349 377.5 635.263143349 365.833552478 611.399955234 c 0,13,14
 354.167104955 587.53676712 354.167104955 587.53676712 335.724275208 569.620875366 c 0,15,16
 317.18756907 551.613789403 317.18756907 551.613789403 292.858328815 541.564755385 c 0,17,18
 268.491026304 531.5 268.491026304 531.5 242 531.5 c 0,19,20
 237.152748769 531.5 237.152748769 531.5 229.754442318 533.557285714 c 0,21,22
 208.323733298 534.853138086 208.323733298 534.853138086 188.124503309 547.078987778 c 0,23,24
 168.045322062 559.232176427 168.045322062 559.232176427 152.236122739 578.203215615 c 0,25,26
 136.533433353 597.046442879 136.533433353 597.046442879 127.053167451 619.167063315 c 0,27,28
 117.57290155 641.287683752 117.57290155 641.287683752 116.508600566 663.638004418 c 2,29,-1
 116.134219824 671.5 l 1,30,-1
 124 671.5 l 1,31,-1
 172 671.5 l 1,32,-1
 178.945553657 671.5 l 1,33,-1
 179.477694184 664.582173149 l 2,34,35
 180.388089856 652.747029419 180.388089856 652.747029419 185.448888217 640.325069805 c 0,36,37
 190.485086184 627.963492978 190.485086184 627.963492978 199.177829321 617.898211451 c 0,38,39
 218.012241182 596.089945085 218.012241182 596.089945085 242.022053328 594.374958503 c 0,40,41
 243.771970335 593.5 243.771970335 593.5 246 593.5 c 0,0,1
EndSplineSet
Validated: 1
EndChar

StartChar: dotaccent
Encoding: 6 6 5
Width: 465
Flags: W
LayerCount: 2
Fore
SplineSet
199.12698193 689.230554092 m 0,0,1
 219.836705578 710.5 219.836705578 710.5 248.387863813 710.5 c 0,2,3
 276.939022049 710.5 276.939022049 710.5 299.719511024 689.386376071 c 0,4,5
 322.5 668.272752143 322.5 668.272752143 322.5 637.556220715 c 0,6,7
 322.5 606.839689287 322.5 606.839689287 300.234206991 585.130541103 c 0,8,9
 278.049036629 563.5 278.049036629 563.5 248 563.5 c 0,10,11
 242.479804802 563.5 242.479804802 563.5 240.20663727 564.769960936 c 0,12,13
 228.422229748 566.371878332 228.422229748 566.371878332 217.137237415 573.895206524 c 0,14,15
 195.140553918 588.559662129 195.140553918 588.559662129 184.073583211 615.120391826 c 0,16,17
 178.5 628.496991532 178.5 628.496991532 178.5 641 c 0,18,19
 178.5 668.046086163 178.5 668.046086163 199.12698193 689.230554092 c 0,0,1
EndSplineSet
Validated: 1
EndChar

StartChar: ring
Encoding: 8 8 6
Width: 474
Flags: W
LayerCount: 2
Fore
SplineSet
296.5 635 m 0,0,1
 296.5 657.713309085 296.5 657.713309085 279.787224932 673.106654542 c 0,2,3
 263.074449863 688.5 263.074449863 688.5 242.622391886 688.5 c 0,4,5
 222.170333909 688.5 222.170333909 688.5 207.881401278 673.778069411 c 0,6,7
 193.5 658.960868094 193.5 658.960868094 193.5 639 c 0,8,9
 193.5 630.477928157 193.5 630.477928157 197.52807186 620.631530278 c 0,10,11
 205.948852272 600.047400382 205.948852272 600.047400382 222.152674288 589.244852371 c 0,12,13
 229.865319107 584.103089159 229.865319107 584.103089159 241.642791296 581.961730579 c 0,14,15
 242.516583679 581.5 242.516583679 581.5 243 581.5 c 0,16,17
 265.895478125 581.5 265.895478125 581.5 281.197739063 596.802260938 c 0,18,19
 296.5 612.104521875 296.5 612.104521875 296.5 635 c 0,0,1
344.5 635 m 0,20,21
 344.5 613.457787369 344.5 613.457787369 336.397106173 594.551035106 c 0,22,23
 328.299175983 575.655864662 328.299175983 575.655864662 313.700519991 561.597899633 c 0,24,25
 299.180432842 547.615593489 299.180432842 547.615593489 279.879608174 539.573583211 c 0,26,27
 260.503008468 531.5 260.503008468 531.5 240 531.5 c 0,28,29
 233.127802561 531.5 233.127802561 531.5 228.769097027 533.64776608 c 0,30,31
 211.786136899 535.158124714 211.786136899 535.158124714 195.815594723 545.272801255 c 0,32,33
 179.845052547 555.387477795 179.845052547 555.387477795 168.109126039 570.857562738 c 0,34,35
 156.373199531 586.32764768 156.373199531 586.32764768 149.436599766 604.469523991 c 0,36,37
 142.5 622.611400301 142.5 622.611400301 142.5 640.569693194 c 0,38,39
 142.5 658.527986087 142.5 658.527986087 150.092182156 676.423844027 c 0,40,41
 157.600864627 694.122881278 157.600864627 694.122881278 170.488477383 708.084461764 c 0,42,43
 183.49086784 722.170384759 183.49086784 722.170384759 200.823364162 730.29499241 c 0,44,45
 218.327380353 738.5 218.327380353 738.5 238 738.5 c 0,46,47
 285.104521875 738.5 285.104521875 738.5 314.802260938 708.802260938 c 0,48,49
 344.5 679.104521875 344.5 679.104521875 344.5 635 c 0,20,21
EndSplineSet
Validated: 1
EndChar

StartChar: hungarumlaut
Encoding: 10 10 7
Width: 532
Flags: W
LayerCount: 2
Fore
SplineSet
176.011067398 515.661270738 m 0,0,1
 162.862836144 506.993553003 162.862836144 506.993553003 149.865530401 515.929200701 c 0,2,3
 143.233333333 520.488836185 143.233333333 520.488836185 143.233333333 527.857328527 c 0,4,5
 143.233333333 535.22582087 143.233333333 535.22582087 147.206795219 542.231984593 c 0,6,7
 159.625584405 574.29916258 159.625584405 574.29916258 210.759101241 678.789562497 c 0,8,9
 222.417203879 702.6126418 222.417203879 702.6126418 229.637507228 714.267853405 c 0,10,11
 239.383436741 730 239.383436741 730 249.03125 730 c 0,12,13
 256.445521433 730 256.445521433 730 264.796784385 723.763877261 c 0,14,15
 270.125637243 719.323166546 270.125637243 719.323166546 272.944768809 717.913600763 c 0,16,17
 278.410941503 715.180514416 278.410941503 715.180514416 287.681744594 707.96988979 c 0,18,19
 296.952547685 700.759265164 296.952547685 700.759265164 299.511273012 699.673136246 c 0,20,21
 311 695 311 695 311.029411765 683.366782007 c 0,22,23
 311.029411765 672.304135675 311.029411765 672.304135675 303.259129393 665.621184358 c 0,24,25
 296.245786625 657.540379941 296.245786625 657.540379941 278.045816321 634.421497056 c 0,26,27
 234.610832608 579.247324528 234.610832608 579.247324528 208.305559117 549.28854083 c 0,28,29
 182.000285626 519.329757132 182.000285626 519.329757132 176.011067398 515.661270738 c 0,0,1
299.017013233 511.369565217 m 0,30,31
 292.633111345 511.369565217 292.633111345 511.369565217 286.233222339 516.062817155 c 0,32,33
 279.833333333 520.756069093 279.833333333 520.756069093 279.833333333 528.033651577 c 0,34,35
 279.833333333 535.31123406 279.833333333 535.31123406 283.122265059 542.013419175 c 0,36,37
 292.612818677 566.586357274 292.612818677 566.586357274 313.944029193 610.95495246 c 0,38,39
 346.208777368 678.065140579 346.208777368 678.065140579 366.506721291 715.761322151 c 0,40,41
 375.405894947 730 375.405894947 730 385.03125 730 c 0,42,43
 392.445521433 730 392.445521433 730 400.796784385 723.763877261 c 0,44,45
 405.953557121 719.466566647 405.953557121 719.466566647 409.418321117 717.981667792 c 0,46,47
 412.883085112 716.496768937 412.883085112 716.496768937 415.761324992 714.194177033 c 0,48,49
 432.105544386 701.118801518 432.105544386 701.118801518 435.511273012 699.673136246 c 0,50,51
 447 695 447 695 447.029411765 683.366782007 c 0,52,53
 447.029411765 672.304135675 447.029411765 672.304135675 439.259129393 665.621184358 c 0,54,55
 432.245786625 657.540379941 432.245786625 657.540379941 414.045816321 634.421497056 c 0,56,57
 370.610832608 579.247324528 370.610832608 579.247324528 344.305694624 549.288695158 c 0,58,59
 318.00055664 519.330065787 318.00055664 519.330065787 311.752100901 515.349817025 c 0,60,61
 305.503645161 511.369568263 305.503645161 511.369568263 299.017013233 511.369565217 c 0,30,31
EndSplineSet
Validated: 1
EndChar

StartChar: ogonek
Encoding: 11 11 8
Width: 484
Flags: W
LayerCount: 2
Fore
SplineSet
333.380281618 32.0690197866 m 0,0,1
 363.808502224 48.8846153846 363.808502224 48.8846153846 403.103425947 48.8846153846 c 0,2,3
 415.395469668 48.8846153846 415.395469668 48.8846153846 427.67120725 47.3501481869 c 1,4,5
 437.666666667 44.0183283813 437.666666667 44.0183283813 437.666666667 31.0694444444 c 0,6,7
 437.666666667 22.8053667532 437.666666667 22.8053667532 432.105466528 -7.2251139935 c 1,8,9
 423.779440587 -6.3 423.779440587 -6.3 419.800546199 -6.3 c 0,10,11
 415.82165181 -6.3 415.82165181 -6.3 406.15531402 -9.52211259666 c 0,12,13
 385.87029313 -16.2837862269 385.87029313 -16.2837862269 372.607021391 -34.8523666612 c 0,14,15
 366.383538923 -43.565242116 366.383538923 -43.565242116 365.669042189 -49.7006356124 c 0,16,17
 364.954545455 -55.8360291088 364.954545455 -55.8360291088 364.954545455 -59.5950413223 c 0,18,19
 364.954545455 -76.3429453363 364.954545455 -76.3429453363 374.720774346 -90.8114325823 c 0,20,21
 386.054029649 -107.60144044 386.054029649 -107.60144044 421.195498628 -108.502503747 c 2,22,-1
 421.330710061 -108.502503747 l 2,23,24
 443.797694344 -109.47932915 443.797694344 -109.47932915 462.207176621 -107.541488911 c 0,25,26
 480.618076803 -105.603499418 480.618076803 -105.603499418 510.684997043 -97.5085593534 c 1,27,-1
 513.763877261 -101.203215615 l 2,28,29
 520.258306043 -108.996530154 520.258306043 -108.996530154 520.857893618 -115.591993473 c 0,30,31
 521.457481192 -122.187456792 521.457481192 -122.187456792 523.177172999 -135.944991249 c 1,32,33
 493.606264725 -147.034081851 493.606264725 -147.034081851 468.54782128 -156.239222697 c 0,34,35
 440.331108701 -166.604543833 440.331108701 -166.604543833 412.727468998 -166.604903495 c 0,36,37
 385.123829295 -166.605263158 385.123829295 -166.605263158 360.173457443 -158.122136728 c 0,38,39
 335.223085592 -149.639010299 335.223085592 -149.639010299 316.506981673 -133.596635511 c 0,40,41
 297.790877754 -117.554260723 297.790877754 -117.554260723 289.270438877 -97.6732366772 c 0,42,43
 280.75 -77.7922126313 280.75 -77.7922126313 280.75 -58.25 c 0,44,45
 280.75 -22.5686739244 280.75 -22.5686739244 298.975757487 1.96599961612 c 0,46,47
 312.951412784 20.7793817466 312.951412784 20.7793817466 333.380281618 32.0690197866 c 0,0,1
EndSplineSet
Validated: 33
EndChar

StartChar: caron
Encoding: 12 12 9
Width: 432
Flags: W
LayerCount: 2
Fore
SplineSet
334 723.5 m 0,0,1
 341.283655684 723.5 341.283655684 723.5 344.391827842 718.967248936 c 0,2,3
 347.5 714.434497873 347.5 714.434497873 347.5 709.413980022 c 0,4,5
 347.5 704.393462172 347.5 704.393462172 340.60332293 689.00856717 c 0,6,7
 333.70664586 673.623672168 333.70664586 673.623672168 322.62874629 653.985577476 c 0,8,9
 311.55084672 634.347482784 311.55084672 634.347482784 299.060898266 611.865624286 c 0,10,11
 277.774228434 573.549618588 277.774228434 573.549618588 252.778014335 535.397502332 c 0,12,13
 242.331178273 519.452331501 242.331178273 519.452331501 235.850682484 515.564034027 c 2,14,-1
 232.143982327 513.340013933 l 1,15,16
 222.708203981 518.582113015 222.708203981 518.582113015 219.603824111 521.232193391 c 0,17,18
 216.404809392 523.963059615 216.404809392 523.963059615 215.250726576 526.659864381 c 2,19,-1
 158.602835422 619.085373027 l 2,20,21
 131.215296309 663.716918249 131.215296309 663.716918249 116.919689859 702.519278611 c 0,22,23
 114.5 709.77834819 114.5 709.77834819 114.5 713 c 0,24,25
 114.5 720.55385431 114.5 720.55385431 118.9107855 724.082482711 c 0,26,27
 123.321571001 727.611111111 123.321571001 727.611111111 129.111111111 727.611111111 c 0,28,29
 130.822670149 727.611111111 130.822670149 727.611111111 133.727362924 727.067219286 c 0,30,31
 140.020482182 725.888858479 140.020482182 725.888858479 153.459028211 709.762603245 c 0,32,33
 166.897574239 693.636348011 166.897574239 693.636348011 181.381327935 674.158196489 c 0,34,35
 214.185254891 630.042570583 214.185254891 630.042570583 231.968041733 616.213121832 c 1,36,37
 240.598108001 623.126313182 240.598108001 623.126313182 252.801793577 638.816766065 c 0,38,39
 265.005479153 654.507218948 265.005479153 654.507218948 278.583389861 673.1139722 c 0,40,41
 292.161300569 691.720725452 292.161300569 691.720725452 306.407182263 707.610362726 c 0,42,43
 320.653063958 723.5 320.653063958 723.5 334 723.5 c 0,0,1
EndSplineSet
Validated: 1
EndChar

StartChar: dotlessi
Encoding: 13 13 10
Width: 320
Flags: W
LayerCount: 2
Fore
SplineSet
211.497363052 134.100421988 m 1,0,-1
 210.9 91.8 l 2,1,2
 210.9 77.8205594131 210.9 77.8205594131 212.453841967 63.8359817125 c 2,3,-1
 212.468945893 63.6864315027 l 2,4,5
 214.113659753 45.5945790421 214.113659753 45.5945790421 222.182432804 41.0339681871 c 0,6,7
 232.57503439 35.1598890297 232.57503439 35.1598890297 246.094056303 32.7457779738 c 0,8,9
 259.613078217 30.3316669178 259.613078217 30.3316669178 271.395875386 27.2578937431 c 0,10,11
 288.5 22.7959481917 288.5 22.7959481917 288.5 5 c 0,12,13
 288.5 -2.3760539064 288.5 -2.3760539064 284.310609333 -7.99364593757 c 0,14,15
 280.121218665 -13.6112379687 280.121218665 -13.6112379687 269.733027493 -14.5556189844 c 0,16,17
 259.344836322 -15.5 259.344836322 -15.5 246.410402657 -15.5 c 0,18,19
 233.475968992 -15.5 233.475968992 -15.5 215.475968992 -13 c 0,20,21
 197.475968992 -10.5 197.475968992 -10.5 175.410402657 -10.5 c 0,22,23
 153.344836322 -10.5 153.344836322 -10.5 125.844836322 -13 c 0,24,25
 98.3448363215 -15.5 98.3448363215 -15.5 72 -15.5 c 2,26,-1
 60 -15.5 l 2,27,28
 50.944261791 -15.5 50.944261791 -15.5 42.9382568723 -13.2125700232 c 0,29,30
 30.5 -9.65878234542 30.5 -9.65878234542 30.5 7 c 0,31,32
 30.5 13.104521875 30.5 13.104521875 34.6977390625 17.3022609375 c 2,33,-1
 38.6977390625 21.3022609375 l 1,34,-1
 39.0302616943 21.6347835693 l 1,35,36
 49.8979651865 30.087441841 49.8979651865 30.087441841 62.8835750807 32.2517101567 c 0,37,38
 75.8691849749 34.4159784724 75.8691849749 34.4159784724 86.1504667194 35.8179714376 c 0,39,40
 96.4317484638 37.2199644027 96.4317484638 37.2199644027 103.337093117 41.4398972461 c 0,41,42
 110.24243777 45.6598300895 110.24243777 45.6598300895 112.371218885 56.7042615448 c 0,43,44
 114.5 67.7486930001 114.5 67.7486930001 114.5 72 c 2,45,-1
 114.5 87 l 1,46,-1
 115.166666667 130.111111111 l 1,47,-1
 114.833333333 171.888888889 l 2,48,49
 114.833333333 213.568635179 114.833333333 213.568635179 117.166714959 250.903960877 c 0,50,51
 119.500096584 288.239286575 119.500096584 288.239286575 119.500048292 305.956990969 c 0,52,53
 119.5 323.674695363 119.5 323.674695363 118.110029046 339.891023161 c 0,54,55
 116.720058092 356.107350959 116.720058092 356.107350959 110.081429167 365.386345169 c 0,56,57
 106.250826411 369.860708543 106.250826411 369.860708543 97.6849105102 373.467411879 c 0,58,59
 89.1189946093 377.074115214 89.1189946093 377.074115214 80.5080953503 380.619766001 c 0,60,61
 71.8971960912 384.165416787 71.8971960912 384.165416787 64.6531846625 387.787422501 c 0,62,63
 53.5 393.364014833 53.5 393.364014833 53.5 402.646447691 c 0,64,65
 53.5 411.928880549 53.5 411.928880549 61.9517374559 417.780083403 c 0,66,67
 78.6776593891 429.359567818 78.6776593891 429.359567818 110.047060284 437.243937712 c 0,68,69
 119.23703026 439.916613631 119.23703026 439.916613631 144.324216648 454.25214871 c 0,70,71
 169.411403035 468.587683788 169.411403035 468.587683788 181.785706071 475.043841894 c 0,72,73
 194.160009107 481.5 194.160009107 481.5 199.54831431 481.5 c 0,74,75
 204.936619512 481.5 204.936619512 481.5 209.218309756 478.645539837 c 0,76,77
 213.5 475.791079675 213.5 475.791079675 213.5 469 c 0,78,79
 213.5 438.811047591 213.5 438.811047591 211.491859849 408.624547262 c 0,80,81
 207.519685642 285.353771032 207.519685642 285.353771032 211.497363052 134.200626029 c 1,82,-1
 211.497363052 134.100421988 l 1,0,-1
EndSplineSet
Validated: 33
EndChar

StartChar: fraction
Encoding: 25 25 11
Width: 271
Flags: W
LayerCount: 2
Fore
SplineSet
369 697.5 m 2,0,1
 382.214198967 697.5 382.214198967 697.5 400.022253235 685.977141356 c 0,2,3
 417.830307503 674.454282712 417.830307503 674.454282712 435.825300317 664.638832086 c 1,4,5
 402.081752215 614.605295246 402.081752215 614.605295246 370.423297189 573.901207777 c 0,6,7
 338.915885 533.39167782 338.915885 533.39167782 305.915481568 492.391176585 c 0,8,9
 209.893897746 369.363522314 209.893897746 369.363522314 114.371290934 249.335106516 c 0,10,11
 19.0020166598 129.499369208 19.0020166598 129.499369208 -74.2994123604 -2.1593139651 c 1,12,-1
 -79.7810668318 0.0333478234738 l 2,13,14
 -85.5921435516 2.35777851139 -85.5921435516 2.35777851139 -99.0210893589 11.8077774128 c 0,15,16
 -112.450035166 21.2577763143 -112.450035166 21.2577763143 -134.461915166 28.9140824011 c 2,17,-1
 -144.139079496 32.2800526029 l 1,18,19
 -13.9437941725 206.57374102 -13.9437941725 206.57374102 113.040916606 366.054587012 c 0,20,21
 240.028188544 525.538649579 240.028188544 525.538649579 365.183490921 697.5 c 1,22,-1
 369 697.5 l 2,0,1
EndSplineSet
Validated: 1
EndChar

StartChar: fi
Encoding: 26 26 12
Width: 624
Flags: W
LayerCount: 2
Fore
SplineSet
515.497363052 134.100421988 m 1,0,-1
 514.9 91.8 l 2,1,2
 514.9 77.8205594131 514.9 77.8205594131 516.453841967 63.8359817125 c 2,3,-1
 516.468945893 63.6864315027 l 2,4,5
 518.105800717 45.6810284359 518.105800717 45.6810284359 526.564281872 41.0993511436 c 0,6,7
 537.528512937 35.16039265 537.528512937 35.16039265 550.582352252 32.7430149989 c 0,8,9
 563.636191568 30.3256373479 563.636191568 30.3256373479 575.395875386 27.2578937431 c 0,10,11
 592.5 22.7959481917 592.5 22.7959481917 592.5 5 c 0,12,13
 592.5 -2.3760539064 592.5 -2.3760539064 588.310609333 -7.99364593757 c 0,14,15
 584.121218665 -13.6112379687 584.121218665 -13.6112379687 573.733027493 -14.5556189844 c 0,16,17
 563.344836322 -15.5 563.344836322 -15.5 550.410402657 -15.5 c 0,18,19
 537.475968992 -15.5 537.475968992 -15.5 519.475968992 -13 c 0,20,21
 501.475968992 -10.5 501.475968992 -10.5 479.410402657 -10.5 c 0,22,23
 457.344836322 -10.5 457.344836322 -10.5 429.844836322 -13 c 0,24,25
 402.344836322 -15.5 402.344836322 -15.5 376 -15.5 c 2,26,-1
 365 -15.5 l 2,27,28
 356.011599004 -15.5 356.011599004 -15.5 347.565138357 -13.247610494 c 0,29,30
 334.5 -9.76357359882 334.5 -9.76357359882 334.5 7 c 0,31,32
 334.5 13.104521875 334.5 13.104521875 338.697739062 17.3022609375 c 2,33,-1
 342.697739062 21.3022609375 l 1,34,-1
 343.030261694 21.6347835693 l 1,35,36
 353.897965186 30.087441841 353.897965186 30.087441841 366.883575081 32.2517101567 c 0,37,38
 379.869184975 34.4159784724 379.869184975 34.4159784724 390.150466719 35.8179714376 c 0,39,40
 400.431748464 37.2199644027 400.431748464 37.2199644027 407.337093117 41.4398972461 c 0,41,42
 414.24243777 45.6598300895 414.24243777 45.6598300895 416.371218885 56.7042615448 c 0,43,44
 418.5 67.7486930001 418.5 67.7486930001 418.5 72 c 2,45,-1
 418.5 87 l 1,46,-1
 419.166666667 130.111111111 l 1,47,-1
 418.833333333 171.888888889 l 2,48,49
 418.833333333 213.568635179 418.833333333 213.568635179 421.166714959 250.903960877 c 0,50,51
 423.500096584 288.239286575 423.500096584 288.239286575 423.500048292 307.834244334 c 0,52,53
 423.499945539 349.52727703 423.499945539 349.52727703 412.337318463 371.055200676 c 0,54,55
 398.470590556 397.798175925 398.470590556 397.798175925 365.805693722 399.5 c 1,56,-1
 259 399.5 l 2,57,58
 234.105988171 399.5 234.105988171 399.5 217.894557688 399.049682487 c 0,59,60
 201.683127206 398.599364973 201.683127206 398.599364973 193.647123226 398.519926019 c 1,61,62
 190.966666667 393.936571637 190.966666667 393.936571637 190.966666667 385.528888889 c 2,63,-1
 191.5 358 l 1,64,-1
 190.5 82 l 2,65,66
 190.5 61.3125153457 190.5 61.3125153457 196.798205265 52.0751476242 c 0,67,68
 203.096410529 42.8377799027 203.096410529 42.8377799027 212.602803762 38.0845832864 c 0,69,70
 222.109196995 33.33138667 222.109196995 33.33138667 237.170747116 31.8738173035 c 0,71,72
 252.232297237 30.4162479369 252.232297237 30.4162479369 271.790112923 25.814408952 c 1,73,-1
 273.302260937 24.3022609375 l 2,74,75
 279.5 18.104521875 279.5 18.104521875 279.5 8.44498109241 c 0,76,77
 279.5 -1.21455969017 279.5 -1.21455969017 273.237208301 -6.01002690728 c 1,78,-1
 272.210787547 -9.0892891702 l 1,79,-1
 269.713022431 -10.5165835223 l 2,80,81
 260.992043595 -15.5 260.992043595 -15.5 244.213424289 -15.5 c 0,82,83
 227.434804984 -15.5 227.434804984 -15.5 207.434804984 -12.5 c 0,84,85
 187.434804984 -9.5 187.434804984 -9.5 163.41005845 -9.5 c 0,86,87
 139.385311915 -9.5 139.385311915 -9.5 109.885311915 -12.5 c 0,88,89
 80.385311915 -15.5 80.385311915 -15.5 62.5121087832 -15.5 c 0,90,91
 44.6389056514 -15.5 44.6389056514 -15.5 33.7814151278 -14.4659532835 c 0,92,93
 16.5 -12.8201042237 16.5 -12.8201042237 16.5 2 c 0,94,95
 16.5 21.6265287106 16.5 21.6265287106 33.8989957041 26.7012357909 c 0,96,97
 46.1194198898 30.2655261784 46.1194198898 30.2655261784 60.8084593322 33.5824060525 c 0,98,99
 75.4974987747 36.8992859266 75.4974987747 36.8992859266 85.4987493873 45.6503802127 c 0,100,101
 95.5 54.4014744988 95.5 54.4014744988 95.5 81 c 2,102,-1
 95.5 375 l 2,103,104
 95.5 384.761858443 95.5 384.761858443 93.6850690472 395.182302395 c 1,105,106
 71.9694775673 397.618633517 71.9694775673 397.618633517 57.5588765591 398.069619909 c 0,107,108
 43.1482755509 398.5206063 43.1482755509 398.5206063 32.5233417793 400.645593044 c 0,109,110
 16.5 403.8502614 16.5 403.8502614 16.5 421 c 0,111,112
 16.5 437.077292439 16.5 437.077292439 20.8202088151 444.277640464 c 0,113,114
 25.1404176303 451.477988489 25.1404176303 451.477988489 36.3544449351 454.429048306 c 0,115,116
 52.8833010992 458.778747297 52.8833010992 458.778747297 71.5873525867 460.40552067 c 0,117,118
 90.2914040742 462.032294043 90.2914040742 462.032294043 94.8721052105 463.322409978 c 1,119,120
 97.5990175675 500.881580325 97.5990175675 500.881580325 99.0657971679 541.460342999 c 0,121,122
 100.532576768 582.039105673 100.532576768 582.039105673 110.711967497 621.778549584 c 0,123,124
 119.930902352 661.6764043 119.930902352 661.6764043 138.920903041 697.603431635 c 0,125,126
 157.910903731 733.53045897 157.910903731 733.53045897 185.747903808 760.851959046 c 0,127,128
 213.738506581 788.324217322 213.738506581 788.324217322 249.509209813 803.942411691 c 0,129,130
 285.279913046 819.560606061 285.279913046 819.560606061 325.932966024 819.560606061 c 0,131,132
 353.092084101 819.560606061 353.092084101 819.560606061 375.694651281 816.406759502 c 0,133,134
 398.297218461 813.252912943 398.297218461 813.252912943 417.05197213 803.607611056 c 0,135,136
 435.806725799 793.96230917 435.806725799 793.96230917 448.493938648 778.517006571 c 0,137,138
 461.181151497 763.071703972 461.181151497 763.071703972 462.456350566 739.072227761 c 0,139,140
 463.399999814 734.952692262 463.399999814 734.952692262 463.4 730.845 c 0,141,142
 463.4 720.44708068 463.4 720.44708068 456.415334837 708.972273627 c 0,143,144
 449.430669674 697.497466573 449.430669674 697.497466573 436.807423819 690.038275841 c 0,145,146
 422.146495473 681.375 422.146495473 681.375 407.30731358 681.375 c 0,147,148
 379.522937837 681.375 379.522937837 681.375 371.323501618 708.315983219 c 0,149,150
 368.339467453 718.120666905 368.339467453 718.120666905 359.569054709 727.329600286 c 0,151,152
 350.612257844 736.734236994 350.612257844 736.734236994 331.490849156 745.129001784 c 0,153,154
 312.423575442 753.5 312.423575442 753.5 274 753.5 c 0,155,156
 254.875939427 753.5 254.875939427 753.5 241.503842926 741.465113149 c 0,157,158
 216.290794551 718.773369611 216.290794551 718.773369611 202.784631462 663.709781632 c 0,159,160
 188.5 605.472437982 188.5 605.472437982 188.5 518 c 2,161,-1
 188.5 504 l 2,162,163
 188.5 468.260466801 188.5 468.260466801 191.249022738 460.5 c 1,164,-1
 422 460.5 l 2,165,166
 444.403558807 460.5 444.403558807 460.5 472.282295718 473.775589005 c 0,167,168
 491.939922443 483.136363636 491.939922443 483.136363636 498.704040341 483.136363636 c 0,169,170
 505.468158239 483.136363636 505.468158239 483.136363636 509.302260938 479.302260938 c 0,171,172
 509.687064204 478.917457671 509.687064204 478.917457671 509.970852109 478.738095425 c 0,173,174
 517.499999682 476.708436459 517.499999682 476.708436459 517.5 469 c 0,175,176
 517.5 438.811047591 517.5 438.811047591 515.491859849 408.624547262 c 0,177,178
 511.519685642 285.353771033 511.519685642 285.353771033 515.497363052 134.200626029 c 1,179,-1
 515.497363052 134.100421988 l 1,0,-1
EndSplineSet
Validated: 33
EndChar

StartChar: fl
Encoding: 27 27 13
Width: 630
Flags: W
LayerCount: 2
Fore
SplineSet
508.5 798 m 1,0,-1
 509.500000001 741.988466783 l 1,1,-1
 508.5 79 l 2,2,3
 508.5 49.753437147 508.5 49.753437147 522.195843784 43.2859553601 c 0,4,5
 539.072423049 35.316459596 539.072423049 35.316459596 567.440017183 32.1645046923 c 1,6,-1
 568.485880141 31.1186417343 l 1,7,8
 570.865451186 31.5 570.865451186 31.5 573 31.5 c 2,9,-1
 573.446442555 31.4869053465 l 2,10,11
 583.285717064 30.908124493 583.285717064 30.908124493 589.302942254 26.3067169947 c 0,12,13
 597.5 20.0383787184 597.5 20.0383787184 597.5 8 c 0,14,15
 597.5 -7.58224697116 597.5 -7.58224697116 583.549280068 -12.720213485 c 0,16,17
 580.725093421 -14.5 580.725093421 -14.5 574 -14.5 c 2,18,-1
 570 -14.5 l 2,19,20
 545.597128837 -14.5 545.597128837 -14.5 522.097128837 -12 c 0,21,22
 498.597128837 -9.5 498.597128837 -9.5 471.997903782 -9.5 c 0,23,24
 445.398678727 -9.5 445.398678727 -9.5 416.898678727 -12.5 c 0,25,26
 388.398678727 -15.5 388.398678727 -15.5 358 -15.5 c 0,27,28
 352.434804984 -15.5 352.434804984 -15.5 341.879993991 -13.916778351 c 0,29,30
 325.5 -11.4597792524 325.5 -11.4597792524 325.5 3 c 0,31,32
 325.5 21.8572618094 325.5 21.8572618094 337.177679343 24.7766816451 c 0,33,34
 342.736211738 26.1663147439 342.736211738 26.1663147439 355.593259669 31.111333179 c 1,35,36
 372.526326691 36.0916470088 372.526326691 36.0916470088 388.181783894 42.4516764978 c 0,37,38
 408.078473115 50.5347064936 408.078473115 50.5347064936 410.524109264 81.1051583594 c 0,39,40
 411.499999998 93.3039540562 411.499999998 93.3039540562 411.499999998 102.014055596 c 2,41,-1
 412.5 646 l 2,42,43
 412.5 682.259000191 412.5 682.259000191 400.817362874 706.091579928 c 0,44,45
 389.134725748 729.924159664 389.134725748 729.924159664 370.277666132 742.802151597 c 0,46,47
 347.060327964 758.657894737 347.060327964 758.657894737 314.177285319 758.657894737 c 0,48,49
 295.559843486 758.657894737 295.559843486 758.657894737 275.770709391 753.710611213 c 0,50,51
 245.783696539 746.44103234 245.783696539 746.44103234 228.882780242 718.742308407 c 0,52,53
 211.981863944 691.043584475 211.981863944 691.043584475 202.709839144 655.419489192 c 0,54,55
 188.5 600.823791428 188.5 600.823791428 188.5 518 c 2,56,-1
 188.5 504 l 2,57,58
 188.5 468.260466801 188.5 468.260466801 191.249022738 460.5 c 1,59,-1
 302 460.5 l 2,60,61
 318.104521875 460.5 318.104521875 460.5 327.302260937 451.302260938 c 2,62,-1
 329.5 449.104521875 l 1,63,-1
 329.5 446 l 1,64,-1
 330.5 428 l 2,65,66
 330.5 414.501544901 330.5 414.501544901 323.003565782 404.506299277 c 2,67,-1
 321.278279264 402.205917253 l 1,68,69
 307.748693 399.5 307.748693 399.5 294 399.5 c 2,70,-1
 210 399.5 l 2,71,72
 202.63869837 399.5 202.63869837 399.5 193.814520192 398.797919541 c 1,73,74
 191 394 191 394 190.966666667 385.528888889 c 2,75,-1
 191.5 358 l 1,76,-1
 190.5 82 l 2,77,78
 190.5 61.3125153457 190.5 61.3125153457 196.798205265 52.0751476242 c 0,79,80
 203.096410529 42.8377799027 203.096410529 42.8377799027 212.602803762 38.0845832864 c 0,81,82
 222.109196995 33.33138667 222.109196995 33.33138667 237.170747116 31.8738173035 c 0,83,84
 252.232297237 30.4162479369 252.232297237 30.4162479369 271.790112923 25.814408952 c 1,85,-1
 273.302260937 24.3022609375 l 2,86,87
 279.5 18.104521875 279.5 18.104521875 279.5 8.44498109241 c 0,88,89
 279.5 -1.21455969017 279.5 -1.21455969017 273.237208301 -6.01002690728 c 1,90,-1
 272.210787547 -9.0892891702 l 1,91,-1
 269.713022431 -10.5165835223 l 2,92,93
 260.992043595 -15.5 260.992043595 -15.5 244.213424289 -15.5 c 0,94,95
 227.434804984 -15.5 227.434804984 -15.5 207.434804984 -12.5 c 0,96,97
 187.434804984 -9.5 187.434804984 -9.5 163.41005845 -9.5 c 0,98,99
 139.385311915 -9.5 139.385311915 -9.5 109.885311915 -12.5 c 0,100,101
 80.385311915 -15.5 80.385311915 -15.5 62.5121087832 -15.5 c 0,102,103
 44.6389056514 -15.5 44.6389056514 -15.5 33.7814151278 -14.4659532835 c 0,104,105
 16.5 -12.8201042237 16.5 -12.8201042237 16.5 2 c 0,106,107
 16.5 21.6265287106 16.5 21.6265287106 33.8989957041 26.7012357909 c 0,108,109
 46.1194198898 30.2655261784 46.1194198898 30.2655261784 60.8084593322 33.5824060525 c 0,110,111
 75.4974987747 36.8992859266 75.4974987747 36.8992859266 85.4987493873 45.6503802127 c 0,112,113
 95.5 54.4014744988 95.5 54.4014744988 95.5 81 c 2,114,-1
 95.5 375 l 2,115,116
 95.5 384.761858443 95.5 384.761858443 93.6850690472 395.182302395 c 1,117,118
 71.9694775673 397.618633517 71.9694775673 397.618633517 57.5588765591 398.069619909 c 0,119,120
 43.1482755509 398.5206063 43.1482755509 398.5206063 32.5233417793 400.645593044 c 0,121,122
 16.5 403.8502614 16.5 403.8502614 16.5 421 c 0,123,124
 16.5 437.077292439 16.5 437.077292439 20.8202088151 444.277640464 c 0,125,126
 25.1404176303 451.477988489 25.1404176303 451.477988489 36.3544449351 454.429048306 c 0,127,128
 52.8833010992 458.778747297 52.8833010992 458.778747297 71.5873525867 460.40552067 c 0,129,130
 90.2914040742 462.032294043 90.2914040742 462.032294043 94.8721052105 463.322409978 c 1,131,132
 97.5990175675 500.881580325 97.5990175675 500.881580325 99.0657971679 541.460342999 c 0,133,134
 100.532576768 582.039105673 100.532576768 582.039105673 110.711967497 621.778549584 c 0,135,136
 119.930902352 661.6764043 119.930902352 661.6764043 138.920903041 697.603431635 c 0,137,138
 157.910903731 733.53045897 157.910903731 733.53045897 185.747903808 760.851959046 c 0,139,140
 213.738506581 788.324217322 213.738506581 788.324217322 249.509209813 803.942411691 c 0,141,142
 285.279913046 819.560606061 285.279913046 819.560606061 325.932966024 819.560606061 c 0,143,144
 358.985901771 819.560606061 358.985901771 819.560606061 385.835430709 812.437261649 c 0,145,146
 412.684959646 805.313917237 412.684959646 805.313917237 430.244027825 786.728828462 c 1,147,148
 450.354710883 793.776188111 450.354710883 793.776188111 467.997221565 800.451732692 c 0,149,150
 485.639732248 807.127277273 485.639732248 807.127277273 496.272245529 810.165138211 c 1,151,-1
 499.152674288 808.244852371 l 1,152,-1
 505.152674288 804.244852371 l 1,153,-1
 508.5 802.013301897 l 1,154,-1
 508.5 798 l 1,0,-1
EndSplineSet
Validated: 33
EndChar

StartChar: Lslash
Encoding: 28 28 14
Width: 642
Flags: W
LayerCount: 2
Fore
SplineSet
33.3571428571 311.897959184 m 0,0,1
 33.3571428571 323.064556596 33.3571428571 323.064556596 57.6531846625 335.212577499 c 0,2,3
 66.7274713289 339.749720832 66.7274713289 339.749720832 76.0959698614 344.187388666 c 0,4,5
 85.4644683939 348.625056499 85.4644683939 348.625056499 90.5850080432 351.697380289 c 0,6,7
 104.585008043 357.697380289 104.585008043 357.697380289 118.452258342 366.017730469 c 0,8,9
 132.319508642 374.338080648 132.319508642 374.338080648 145.5 381.483090987 c 1,10,-1
 145.5 614 l 2,11,12
 145.5 635.608137292 145.5 635.608137292 140.6110496 658.708142658 c 0,13,14
 137.306802226 677.707565061 137.306802226 677.707565061 123.551035106 683.602893827 c 0,15,16
 107.017273298 690.688791745 107.017273298 690.688791745 87.4263825811 693.137653084 c 0,17,18
 67.8354918643 695.586514424 67.8354918643 695.586514424 51.6115312181 698.628507045 c 0,19,20
 29.5 702.774419148 29.5 702.774419148 29.5 723 c 0,21,22
 29.5 743.309273416 29.5 743.309273416 47.208142658 746.3889504 c 0,23,24
 59.346677859 748.5 59.346677859 748.5 83.868329842 748.5 c 0,25,26
 108.389981825 748.5 108.389981825 748.5 142.389981825 745 c 0,27,28
 176.389981825 741.5 176.389981825 741.5 213.08307419 741.5 c 0,29,30
 249.776166555 741.5 249.776166555 741.5 283.776166555 743.5 c 0,31,32
 317.776166555 745.5 317.776166555 745.5 361 745.5 c 2,33,-1
 363.84942907 745.5 l 1,34,-1
 365.979345338 743.606741096 l 2,35,36
 377.093064096 733.727879977 377.093064096 733.727879977 378.5 722.472392745 c 1,37,38
 378.5 704.59278273 378.5 704.59278273 361.370459145 698.882935778 c 0,39,40
 348.550487599 694.60961193 348.550487599 694.60961193 331.196825713 693.032006304 c 2,41,-1
 298.707538559 690.033002907 l 2,42,43
 284.928102891 688.741180813 284.928102891 688.741180813 275.65386575 682.110371784 c 0,44,45
 260.5 668.808134908 260.5 668.808134908 260.5 608 c 0,46,47
 260.5 561.958435817 260.5 561.958435817 260.032188039 519.8549154 c 0,48,49
 259.564376078 477.751394983 259.564376078 477.751394983 259.508294413 437.827417809 c 1,50,51
 283.709924965 449.331902168 283.709924965 449.331902168 309.193145928 462.52866582 c 0,52,53
 343.432487018 480.25988169 343.432487018 480.25988169 349.762665143 482.988048953 c 0,54,55
 356.092843267 485.716216216 356.092843267 485.716216216 358.11614317 485.716216216 c 0,56,57
 363.594566402 485.716216216 363.594566402 485.716216216 367.965407727 480.795241336 c 0,58,59
 372.336249052 475.874266456 372.336249052 475.874266456 378.532442701 463.094617055 c 2,60,-1
 395.117064222 429.370459145 l 2,61,62
 395.7 427.62165181 395.7 427.62165181 395.7 425.78 c 0,63,64
 395.7 419.898525501 395.7 419.898525501 390.631614245 415.463687965 c 0,65,66
 379.252751004 405.507182629 379.252751004 405.507182629 368.24515751 400.370305666 c 0,67,68
 357.237564017 395.233428702 357.237564017 395.233428702 354.295033627 393.761869499 c 0,69,70
 351.352503237 392.290310297 351.352503237 392.290310297 258.5 344.427629148 c 1,71,-1
 258.5 204 l 2,72,73
 258.5 151.37895852 258.5 151.37895852 260.952746291 126.851495614 c 0,74,75
 265.671755989 79.6613986285 265.671755989 79.6613986285 275.929824525 68.68766525 c 0,76,77
 300.162887552 51.1762556147 300.162887552 51.1762556147 331.396983656 47.4468112212 c 0,78,79
 346.716233515 45.6176470588 346.716233515 45.6176470588 362.500507621 45.6176470588 c 0,80,81
 378.284781727 45.6176470588 378.284781727 45.6176470588 401.742877564 48.968803607 c 0,82,83
 425.200973401 52.3199601551 425.200973401 52.3199601551 449.781875897 60.9955728009 c 0,84,85
 474.362778394 69.6711854466 474.362778394 69.6711854466 482.843599464 76.2673796125 c 1,86,87
 498.065476495 84.8296854421 498.065476495 84.8296854421 515.947417685 107.061288003 c 0,88,89
 533.829358875 129.292890564 533.829358875 129.292890564 548.678765343 154.041901343 c 0,90,91
 563.52817181 178.790912123 563.52817181 178.790912123 575.259376985 199.193008079 c 0,92,93
 586.99058216 219.595104035 586.99058216 219.595104035 591.030261694 223.634783569 c 0,94,95
 600.059976053 230.657894737 600.059976053 230.657894737 610.620498615 230.657894737 c 0,96,97
 614.285485481 230.657894737 614.285485481 230.657894737 618.09820764 229.829042093 c 0,98,99
 633.309731864 226.522189001 633.309731864 226.522189001 638.857329239 214.040094908 c 2,100,-1
 640.485427158 210.376874591 l 1,101,102
 612.806201963 166.72886563 612.806201963 166.72886563 598.992882439 126.768905577 c 0,103,104
 585.179562915 86.8089455247 585.179562915 86.8089455247 576.710346275 54.9248358243 c 0,105,106
 568.241129636 23.0407261238 568.241129636 23.0407261238 563.39823774 5.43021013751 c 0,107,108
 558.555345844 -12.1803058488 558.555345844 -12.1803058488 553.524494945 -17.3401529244 c 0,109,110
 548.493644046 -22.5 548.493644046 -22.5 543 -22.5 c 0,111,112
 474.493848019 -22.5 474.493848019 -22.5 402.555570697 -13.440992633 c 0,113,114
 299.917421962 -4.63813771081 299.917421962 -4.63813771081 265.110607261 -4.56906885541 c 0,115,116
 230.303792559 -4.5 230.303792559 -4.5 205.466422286 -6.48698962191 c 0,117,118
 180.629052012 -8.47397924382 180.629052012 -8.47397924382 157.65702498 -10.4715610819 c 0,119,120
 134.628878061 -12.4740086401 134.628878061 -12.4740086401 109.46633531 -14.4870043201 c 0,121,122
 84.3037925595 -16.5 84.3037925595 -16.5 50 -16.5 c 0,123,124
 40.3967629735 -16.5 40.3967629735 -16.5 34.4483814868 -9.06452314154 c 0,125,126
 28.5 -1.62904628309 28.5 -1.62904628309 28.5 7 c 0,127,128
 28.5 26.0790789093 28.5 26.0790789093 43.2189331682 31.9666521765 c 0,129,130
 54.3210847016 36.4075127899 54.3210847016 36.4075127899 70.2703632732 37.4364985042 c 0,131,132
 86.2196418448 38.4654842185 86.2196418448 38.4654842185 102.387850349 40.7752282905 c 0,133,134
 118.556058853 43.0849723625 118.556058853 43.0849723625 130.792357643 54.3974042213 c 0,135,136
 150.099876218 73.9196578304 150.099876218 73.9196578304 150.1 169.5 c 0,137,138
 150.1 198.490475807 150.1 198.490475807 148.487725423 229.532625518 c 0,139,140
 146.875450845 260.57477523 146.875450845 260.57477523 145.906652995 287.06734133 c 1,141,142
 100.069062581 264.148546123 100.069062581 264.148546123 89.6905882902 259.997156407 c 0,143,144
 73.090554416 253.357142857 73.090554416 253.357142857 66.7925224366 253.357142857 c 0,145,146
 60.4944904573 253.357142857 60.4944904573 253.357142857 58.1844791027 258.558548113 c 0,147,148
 54.1136622431 264.016061672 54.1136622431 264.016061672 49.643496508 273.453078467 c 0,149,150
 33.3571428571 307.835381508 33.3571428571 307.835381508 33.3571428571 311.897959184 c 0,0,1
EndSplineSet
Validated: 33
EndChar

StartChar: lslash
Encoding: 29 29 15
Width: 324
Flags: W
LayerCount: 2
Fore
SplineSet
210.5 666 m 1,0,-1
 209.5 527 l 1,1,-1
 209.5 465.192898293 l 1,2,3
 232.711792872 477.05572526 232.711792872 477.05572526 254.596994553 488.840064627 c 0,4,5
 276.47526883 500.620673853 276.47526883 500.620673853 293.850138832 509.819134442 c 0,6,7
 296.092843267 510.716216216 296.092843267 510.716216216 298.110299489 510.716216216 c 0,8,9
 303.655974995 510.716216216 303.655974995 510.716216216 307.917099993 505.725488521 c 0,10,11
 312.17822499 500.734760826 312.17822499 500.734760826 317.945989611 488.045678661 c 0,12,13
 323.713754232 475.356596495 323.713754232 475.356596495 334.903117218 455.012300156 c 0,14,15
 335.7 452.62165181 335.7 452.62165181 335.7 450.76 c 0,16,17
 335.7 441.239980957 335.7 441.239980957 318.422743407 430.607823053 c 0,18,19
 311.45384943 426.319272914 311.45384943 426.319272914 304.328916605 423.265730274 c 0,20,21
 297.20398378 420.212187635 297.20398378 420.212187635 291.437986404 417.332978058 c 2,22,-1
 209.5 373.505683004 l 1,23,-1
 209.5 78 l 2,24,25
 209.5 48.753437147 209.5 48.753437147 223.195843784 42.2859553601 c 0,26,27
 240.072423049 34.316459596 240.072423049 34.316459596 268.440017183 31.1645046923 c 1,28,-1
 269.485880141 30.1186417343 l 1,29,30
 271.865451186 30.5 271.865451186 30.5 274 30.5 c 2,31,-1
 274.446442555 30.4869053465 l 2,32,33
 284.285717064 29.908124493 284.285717064 29.908124493 290.302942254 25.3067169947 c 0,34,35
 298.5 19.0383787184 298.5 19.0383787184 298.5 7 c 0,36,37
 298.5 -8.58224697116 298.5 -8.58224697116 284.549280068 -13.720213485 c 0,38,39
 281.725093421 -15.5 281.725093421 -15.5 275 -15.5 c 2,40,-1
 271 -15.5 l 2,41,42
 246.597128837 -15.5 246.597128837 -15.5 223.097128837 -13 c 0,43,44
 199.597128837 -10.5 199.597128837 -10.5 172.997903782 -10.5 c 0,45,46
 146.398678727 -10.5 146.398678727 -10.5 117.898678727 -13.5 c 0,47,48
 89.3986787267 -16.5 89.3986787267 -16.5 59 -16.5 c 0,49,50
 53.4348049842 -16.5 53.4348049842 -16.5 42.8799939908 -14.916778351 c 0,51,52
 26.5 -12.4597792524 26.5 -12.4597792524 26.5 2 c 0,53,54
 26.5 20.8572618094 26.5 20.8572618094 38.1776793427 23.7766816451 c 0,55,56
 43.7362117379 25.1663147439 43.7362117379 25.1663147439 56.5932596693 30.111333179 c 1,57,58
 73.5263266906 35.0916470088 73.5263266906 35.0916470088 89.1817838942 41.4516764978 c 0,59,60
 109.078473115 49.5347064936 109.078473115 49.5347064936 111.524109264 80.1051583594 c 0,61,62
 112.5 92.3037925595 112.5 92.3037925595 112.5 101 c 2,63,-1
 112.5 323.529493031 l 1,64,-1
 74.4277122007 303.327870933 l 2,65,66
 68.0690625813 300.148546123 68.0690625813 300.148546123 52.6905882902 293.997156407 c 0,67,68
 31.090554416 285.357142857 31.090554416 285.357142857 24.7925224366 285.357142857 c 0,69,70
 18.4944904573 285.357142857 18.4944904573 285.357142857 16.1844791027 290.558548113 c 0,71,72
 12.1136622432 296.016061672 12.1136622432 296.016061672 7.64349650805 305.453078467 c 0,73,74
 -8.64285714286 339.835381508 -8.64285714286 339.835381508 -8.64285714286 345.113539987 c 0,75,76
 -8.64285714286 350.391698467 -8.64285714286 350.391698467 -1.36274541531 355.851782263 c 0,77,78
 11.449366574 365.460866255 11.449366574 365.460866255 27.4569174839 373.042961377 c 0,79,80
 43.4644683939 380.625056499 43.4644683939 380.625056499 48.7335807114 383.78652389 c 1,81,82
 56.8390979896 386.826092869 56.8390979896 386.826092869 68.8434463997 393.548527979 c 0,83,84
 80.7766613956 400.231128377 80.7766613956 400.231128377 113.5 416.633458131 c 1,85,-1
 113.5 472 l 1,86,-1
 114.5 584 l 1,87,-1
 114.5 645 l 2,88,89
 114.5 659.683655298 114.5 659.683655298 113.119471336 676.249999264 c 0,90,91
 111.738942672 692.81634323 111.738942672 692.81634323 102.48927878 703.90190532 c 0,92,93
 99.2989317064 706.964548812 99.2989317064 706.964548812 91.9342707091 710.646879395 c 0,94,95
 73.6917053406 719.768162286 73.6917053406 719.768162286 63.0958526703 726.288687006 c 0,96,97
 52.5 732.809211726 52.5 732.809211726 52.5 742 c 2,98,-1
 52.5 746 l 2,99,100
 52.5 753.635985167 52.5 753.635985167 58.6531846625 756.712577499 c 2,101,-1
 60.2280296652 757.5 l 1,102,-1
 62 757.5 l 2,103,104
 69.9330915638 757.5 69.9330915638 757.5 91.7892207046 763.813992863 c 0,105,106
 141.684260751 778.228115543 141.684260751 778.228115543 175.653184663 795.212577499 c 0,107,108
 183.825271828 799.298621081 183.825271828 799.298621081 188.5 802.940513252 c 1,109,-1
 188.5 815.013301897 l 1,110,-1
 200.152674288 807.244852371 l 1,111,-1
 206.152674288 803.244852371 l 1,112,-1
 209.5 801.013301897 l 1,113,-1
 209.5 797 l 1,114,-1
 210.5 741 l 1,115,-1
 210.5 666 l 1,0,-1
EndSplineSet
Validated: 1
EndChar

StartChar: Zcaron
Encoding: 30 30 16
Width: 775
Flags: W
LayerCount: 2
Fore
SplineSet
557 687.5 m 2,0,-1
 523 686.5 l 1,1,-1
 452 686.5 l 2,2,3
 417.063763407 686.5 417.063763407 686.5 327.668017964 685.001779573 c 0,4,5
 238.272272522 683.503559145 238.272272522 683.503559145 215.395636456 682.509997138 c 0,6,7
 183.308295636 680.559112918 183.308295636 680.559112918 158.214067357 672.983496993 c 0,8,9
 133.119839078 665.407881068 133.119839078 665.407881068 110.409072694 640.804550819 c 0,10,11
 103.040149421 633.435627546 103.040149421 633.435627546 96.3066005384 621.411433113 c 0,12,13
 89.5730516561 609.38723868 89.5730516561 609.38723868 82.908276394 597.08300147 c 0,14,15
 76.2435011318 584.77876426 76.2435011318 584.77876426 67.3773493567 574.13938213 c 0,16,17
 58.5111975816 563.5 58.5111975816 563.5 49 563.5 c 0,18,19
 42.8390595434 563.5 42.8390595434 563.5 32.2418328339 566.846492645 c 0,20,21
 19.78 570.781808277 19.78 570.781808277 19.78 581.448 c 0,22,23
 19.78 584.198847624 19.78 584.198847624 20.780633492 587.091427346 c 0,24,25
 27.0146016772 615.061142461 27.0146016772 615.061142461 34.918199111 640.994763501 c 0,26,27
 50.8247782791 693.188109588 50.8247782791 693.188109588 54.8614949486 704.802198127 c 0,28,29
 58.8982116182 716.416286665 58.8982116182 716.416286665 64.8829357782 734.370459145 c 0,30,31
 72.5927827299 757.5 72.5927827299 757.5 92 757.5 c 0,32,33
 111.771970335 757.5 111.771970335 757.5 121.346815337 752.712577499 c 0,34,35
 131.42244456 747.674762887 131.42244456 747.674762887 146.573918612 746.297356155 c 1,36,37
 161.269952845 736.5 161.269952845 736.5 207 736.5 c 2,38,-1
 226 736.5 l 2,39,40
 271.917011996 736.5 271.917011996 736.5 328.36492002 737.498805446 c 0,41,42
 384.90159831 738.499454619 384.90159831 738.499454619 443.935250574 738.999725727 c 0,43,44
 502.901536832 739.499440018 502.901536832 739.499440018 559.36492002 740.498805446 c 0,45,46
 615.921067131 741.4997992 615.921067131 741.4997992 663 741.5 c 0,47,48
 672.37331414 741.5 672.37331414 741.5 687.229962005 743.976107977 c 0,49,50
 709.57331414 747.7 709.57331414 747.7 721.02 747.7 c 0,51,52
 732.378514596 747.7 732.378514596 747.7 740.686814049 743.790212022 c 0,53,54
 751.282608696 738.803955718 751.282608696 738.803955718 751.282608696 726.716446125 c 0,55,56
 751.282608696 720.456072817 751.282608696 720.456072817 750.204659779 718.465632823 c 0,57,58
 743.838802213 706.711033598 743.838802213 706.711033598 685.175342745 639.098910822 c 0,59,60
 586.108409914 524.506579927 586.108409914 524.506579927 544.401258077 475.313540311 c 0,61,62
 502.694106241 426.120500695 502.694106241 426.120500695 463.165130495 380.587122774 c 0,63,64
 428.791480272 340.992158592 428.791480272 340.992158592 370.868925029 272.704460971 c 0,65,66
 312.946369786 204.41676335 312.946369786 204.41676335 305.9964845 195.49523271 c 0,67,68
 297.853526885 184.311286408 297.853526885 184.311286408 280.77547536 163.717167397 c 0,69,70
 263.792456074 143.237644139 263.792456074 143.237644139 245.895574315 121.363686298 c 0,71,72
 227.998692557 99.489728456 227.998692557 99.489728456 215.254754525 81.0818179665 c 0,73,74
 202.510816494 62.6739074771 202.510816494 62.6739074771 200.509200129 51.4340166179 c 0,75,76
 200.836955075 41.8333333333 200.836955075 41.8333333333 227.666666667 41.8333333333 c 2,77,-1
 253 42.5 l 1,78,-1
 453 43.5 l 2,79,80
 488.862184914 43.5 488.862184914 43.5 529.750205752 44.9778802713 c 0,81,82
 570.638226591 46.4557605425 570.638226591 46.4557605425 605.642977988 56.1309968827 c 0,83,84
 629.451033165 65.3657884753 629.451033165 65.3657884753 642.596226918 82.2667518306 c 0,85,86
 655.741420671 99.167715186 655.741420671 99.167715186 669.461721279 122.676445557 c 0,87,88
 675.031558599 132.91619797 675.031558599 132.91619797 679.024820537 146.89261242 c 0,89,90
 683.018082475 160.86902687 683.018082475 160.86902687 689.450664442 172.564630446 c 0,91,92
 695.883246409 184.260234023 695.883246409 184.260234023 706.763077655 187.660181287 c 0,93,94
 709.450497536 188.5 709.450497536 188.5 712.36 188.5 c 0,95,96
 722.113437098 188.5 722.113437098 188.5 735.910657434 177.002316387 c 1,97,98
 739.5 156.662708512 739.5 156.662708512 739.5 139.366830637 c 0,99,100
 739.5 122.070952762 739.5 122.070952762 734.91951383 103.749008083 c 0,101,102
 727.089375272 72.4284538502 727.089375272 72.4284538502 724.7302716 50.4101529119 c 0,103,104
 722.371167928 28.3918519736 722.371167928 28.3918519736 717.903480948 14.9887910348 c 0,105,106
 713.435793969 1.58573009607 713.435793969 1.58573009607 703.062314982 -6.95713495197 c 0,107,108
 692.688835995 -15.5 692.688835995 -15.5 674 -15.5 c 0,109,110
 634.803902292 -15.5 634.803902292 -15.5 595.803821381 -13.4999746772 c 0,111,112
 556.803740469 -11.4999493544 556.803740469 -11.4999493544 518 -11.5 c 2,113,-1
 429 -11.5 l 2,114,115
 336.143892886 -11.5 336.143892886 -11.5 235.143421905 -14.9998127941 c 0,116,117
 134.142950925 -18.4996255883 134.142950925 -18.4996255883 41 -18.5 c 0,118,119
 31.3904337902 -18.5 31.3904337902 -18.5 24.4452168951 -13.2910873287 c 0,120,121
 17.5 -8.08217465737 17.5 -8.08217465737 17.5 4 c 0,122,123
 17.5 7.25774581676 17.5 7.25774581676 21.9037900478 13.5298104304 c 0,124,125
 26.3075800957 19.801875044 26.3075800957 19.801875044 39.2167890497 36.2317773491 c 0,126,127
 93.9267529082 105.862640442 93.9267529082 105.862640442 136.688678471 157.933220047 c 0,128,129
 219.26207364 258.481651619 219.26207364 258.481651619 305.23343139 362.620312372 c 0,130,131
 391.20478914 466.758973125 391.20478914 466.758973125 413.183192445 493.732551119 c 0,132,133
 446.152639093 534.195053823 446.152639093 534.195053823 469.893257965 560.979344278 c 0,134,135
 531.079728479 629.814107821 531.079728479 629.814107821 547.22452464 649.282832603 c 0,136,137
 563.529797447 668.945073342 563.529797447 668.945073342 566.671731933 676.276253808 c 0,138,139
 570.027487254 679.632009129 570.027487254 679.632009129 573.833657688 686.268891393 c 1,140,141
 566.742559452 687.5 566.742559452 687.5 557 687.5 c 2,0,-1
515 971.5 m 0,142,143
 522.579708796 971.5 522.579708796 971.5 526.250780788 965.381546681 c 0,144,145
 528.5 961.632847994 528.5 961.632847994 528.5 956.487285441 c 0,146,147
 528.5 946.075527234 528.5 946.075527234 503.537082641 901.823082824 c 0,148,149
 492.55084672 882.347482784 492.55084672 882.347482784 480.060898266 859.865624286 c 0,150,151
 458.774228434 821.549618588 458.774228434 821.549618588 433.778014335 783.397502332 c 0,152,153
 423.553009237 767.790915604 423.553009237 767.790915604 418.493700723 763.996434218 c 2,154,-1
 414.608051826 761.082197545 l 1,155,156
 399.57638891 769.433121387 399.57638891 769.433121387 396.59886771 774.09184627 c 0,157,158
 366.609557541 823.074386213 366.609557541 823.074386213 339.415763816 866.886594956 c 0,159,160
 312.221970091 910.698803698 312.221970091 910.698803698 297.919689859 949.519278611 c 0,161,162
 295.5 956.77834819 295.5 956.77834819 295.5 962.66610125 c 0,163,164
 295.5 968.55385431 295.5 968.55385431 299.9107855 972.082482711 c 0,165,166
 304.321571001 975.611111111 304.321571001 975.611111111 310.111111111 975.611111111 c 0,167,168
 311.822670149 975.611111111 311.822670149 975.611111111 314.727362924 975.067219286 c 0,169,170
 321.020482182 973.888858479 321.020482182 973.888858479 334.439332563 957.786238023 c 0,171,172
 347.858182943 941.683617566 347.858182943 941.683617566 362.860353254 922.180796162 c 0,173,174
 377.862523564 902.677974758 377.862523564 902.677974758 391.069847808 886.829402697 c 0,175,176
 404.277172051 870.980830637 404.277172051 870.980830637 413.806831481 864.084452033 c 1,177,178
 427.848707427 875.250968171 427.848707427 875.250968171 459.859414356 920.804991554 c 0,179,180
 473.116211998 939.670434353 473.116211998 939.670434353 487.384637978 955.585217176 c 0,181,182
 501.653063958 971.5 501.653063958 971.5 515 971.5 c 0,142,143
EndSplineSet
Validated: 1
EndChar

StartChar: zcaron
Encoding: 31 31 17
Width: 476
Flags: W
LayerCount: 2
Fore
SplineSet
342 713.5 m 0,0,1
 349.579708796 713.5 349.579708796 713.5 353.250780788 707.381546681 c 0,2,3
 355.5 703.632847994 355.5 703.632847994 355.5 698.487285441 c 0,4,5
 355.5 688.075527234 355.5 688.075527234 330.537082641 643.823082824 c 0,6,7
 319.55084672 624.347482784 319.55084672 624.347482784 307.060898266 601.865624286 c 0,8,9
 285.774228434 563.549618588 285.774228434 563.549618588 260.778014335 525.397502332 c 0,10,11
 250.553009237 509.790915604 250.553009237 509.790915604 245.493700723 505.996434218 c 2,12,-1
 241.608051826 503.082197545 l 1,13,14
 226.57638891 511.433121387 226.57638891 511.433121387 223.59886771 516.09184627 c 0,15,16
 193.609557541 565.074386213 193.609557541 565.074386213 166.415763816 608.886594956 c 128,-1,17
 139.221970091 652.698803698 139.221970091 652.698803698 124.919689859 691.519278611 c 0,18,19
 122.426893955 697.052440184 122.426893955 697.052440184 122.426893955 699.233795913 c 128,-1,20
 122.426893955 701.415151642 122.426893955 701.415151642 122.5 702 c 0,21,22
 122.5 710.313169269 122.5 710.313169269 127.553240358 713.906584635 c 128,-1,23
 132.606480715 717.5 132.606480715 717.5 139 717.5 c 2,24,-1
 139.748693 717.5 l 2,25,26
 144.632055698 716.52332746 144.632055698 716.52332746 149.834033865 712.014946382 c 0,27,28
 159.526491524 703.614816411 159.526491524 703.614816411 182.194507544 674.146395585 c 128,-1,29
 204.862523564 644.677974758 204.862523564 644.677974758 218.069847808 628.829402697 c 128,-1,30
 231.277172051 612.980830637 231.277172051 612.980830637 240.806831481 606.084452033 c 1,31,32
 254.848707427 617.250968171 254.848707427 617.250968171 286.859414356 662.804991554 c 0,33,34
 300.116211998 681.670434353 300.116211998 681.670434353 314.384637978 697.585217176 c 128,-1,35
 328.653063958 713.5 328.653063958 713.5 342 713.5 c 0,0,1
418.138888889 137.666666667 m 0,36,37
 438.5 137.666666667 438.5 137.666666667 438.5 112 c 2,38,-1
 438.5 88 l 2,39,40
 438.5 41.2513069999 438.5 41.2513069999 432.354406956 10.5233417793 c 0,41,42
 430.697597263 2.23929331729 430.697597263 2.23929331729 425.848798632 -4.88035334136 c 128,-1,43
 421 -12 421 -12 413.333333333 -12.1666666667 c 0,44,45
 409.561362999 -12.1666666667 409.561362999 -12.1666666667 404.894696332 -9.83333333333 c 128,-1,46
 400.228029665 -7.5 400.228029665 -7.5 394.999995453 -7.5 c 0,47,48
 318.050153922 -7.5 318.050153922 -7.5 246.606789578 -8.49925363617 c 128,-1,49
 175.049388398 -9.5000564436 175.049388398 -9.5000564436 98 -9.5 c 2,50,-1
 84 -9.5 l 2,51,52
 22.4770699388 -9.5 22.4770699388 -9.5 22.4770699388 8.27395318881 c 0,53,54
 22.4770699388 8.63311902108 22.4770699388 8.63311902108 22.5 9 c 0,55,56
 22.5 16.2699528451 22.5 16.2699528451 24.911127786 19.8866445242 c 2,57,-1
 29.7551476286 29.1526742881 l 1,58,59
 38.1200345629 41.7000046895 38.1200345629 41.7000046895 48.6926657 52.7760944522 c 128,-1,60
 59.2652968371 63.8521842148 59.2652968371 63.8521842148 68.057546566 75.5751838534 c 0,61,62
 114.012834269 133.518807479 114.012834269 133.518807479 156.422800417 192.393819308 c 2,63,-1
 241.837664689 310.276325415 l 2,64,65
 247.994472859 319.493561541 247.994472859 319.493561541 260.484309613 335.480555043 c 0,66,67
 272.65003385 351.052684458 272.65003385 351.052684458 293.913748952 381.084807086 c 128,-1,68
 315.177464055 411.116929715 315.177464055 411.116929715 318.898209668 418.165231411 c 1,69,70
 306.85606302 420.250095018 306.85606302 420.250095018 289 420.25 c 2,71,-1
 260 419.5 l 1,72,-1
 228 419.5 l 2,73,74
 201.070807409 419.5 201.070807409 419.5 172.531897884 419.00799264 c 0,75,76
 147.62322935 418.578570197 147.62322935 418.578570197 124.310101656 413.614245849 c 0,77,78
 109.523957278 411.004926253 109.523957278 411.004926253 100.573659427 402.502143295 c 128,-1,79
 91.6233615763 393.999360336 91.6233615763 393.999360336 84.1525806237 384.038319066 c 128,-1,80
 76.6817996711 374.077277796 76.6817996711 374.077277796 67.8931607731 365.288638898 c 128,-1,81
 59.104521875 356.5 59.104521875 356.5 44 356.5 c 0,82,83
 22.9285714286 356.5 22.9285714286 356.5 22.9285714286 370.448979592 c 0,84,85
 22.9285714286 375.840006805 22.9285714286 375.840006805 26.520401219 385.418219579 c 128,-1,86
 30.1122310093 394.996432353 30.1122310093 394.996432353 31.5812747668 397.934519868 c 0,87,88
 33.7441280099 402.260226355 33.7441280099 402.260226355 38.7654560417 418.990767722 c 0,89,90
 43.8196233083 439.181276975 43.8196233083 439.181276975 47.5686615205 450.428013992 c 128,-1,91
 51.3176997328 461.674751009 51.3176997328 461.674751009 57.3825743201 469.087375504 c 128,-1,92
 63.4474489074 476.5 63.4474489074 476.5 76.9626885324 476.5 c 128,-1,93
 90.4779281573 476.5 90.4779281573 476.5 101.477928157 472 c 128,-1,94
 112.477928157 467.5 112.477928157 467.5 133 467.5 c 2,95,-1
 293 467.5 l 2,96,97
 310.79961387 467.5 310.79961387 467.5 329.799090392 468.499972448 c 128,-1,98
 348.798566913 469.499944897 348.798566913 469.499944897 368 469.5 c 2,99,-1
 383 469.5 l 2,100,101
 397.432423749 469.5 397.432423749 469.5 416.44086624 467.327606573 c 128,-1,102
 435.44930873 465.155213145 435.44930873 465.155213145 442.744186834 457.860335041 c 1,103,104
 447.277777778 451.51330772 447.277777778 451.51330772 447.277777778 445.459611012 c 0,105,106
 447.277777778 437.047755194 447.277777778 437.047755194 444.088756542 432.622174704 c 0,107,108
 395.066977379 364.591950559 395.066977379 364.591950559 347.542844038 300.059149788 c 128,-1,109
 300.050963994 235.570175834 300.050963994 235.570175834 251.051826373 167.571372606 c 0,110,111
 228.966253306 137.454682059 228.966253306 137.454682059 203.353440061 105.201509825 c 128,-1,112
 177.740626817 72.9483375914 177.740626817 72.9483375914 164.296549184 43.5 c 1,113,-1
 220 43.5 l 2,114,115
 281.388474308 43.5 281.388474308 43.5 308.619195828 46.4598610347 c 128,-1,116
 335.849917347 49.4197220694 335.849917347 49.4197220694 352.230786028 52.6958958056 c 128,-1,117
 368.611654709 55.9720695418 368.611654709 55.9720695418 374.123144595 60.6962037299 c 0,118,119
 382.736311054 68.0789178379 382.736311054 68.0789178379 389.203495293 95.241091643 c 2,120,-1
 394.203495293 116.241091643 l 2,121,122
 397.279639457 129.160897129 397.279639457 129.160897129 405.203215615 135.763877261 c 2,123,-1
 407.286562902 137.5 l 1,124,-1
 410 137.5 l 1,125,-1
 414.638080226 137.5 l 2,126,127
 416.46442089 137.666666667 416.46442089 137.666666667 418.138888889 137.666666667 c 0,36,37
EndSplineSet
Validated: 1
EndChar

StartChar: exclam
Encoding: 33 33 18
Width: 247
Flags: W
LayerCount: 2
Fore
SplineSet
190.5 46 m 0,0,1
 190.5 13.3967629735 190.5 13.3967629735 168.064523142 -4.55161851323 c 128,-1,2
 145.629046283 -22.5 145.629046283 -22.5 117 -22.5 c 128,-1,3
 88.5231795525 -22.5 88.5231795525 -22.5 70.0115897763 -0.622666628055 c 128,-1,4
 51.5 21.2546667439 51.5 21.2546667439 51.5 49.1205512023 c 128,-1,5
 51.5 76.9864356607 51.5 76.9864356607 71.5553436252 98.1559650429 c 128,-1,6
 91.7760083214 119.5 91.7760083214 119.5 121.084838964 119.5 c 128,-1,7
 150.393669607 119.5 150.393669607 119.5 170.446834804 96.6616729709 c 128,-1,8
 190.5 73.8233459418 190.5 73.8233459418 190.5 46 c 0,0,1
104.832098049 216.002085139 m 1,9,10
 99.5398601048 274.216702525 99.5398601048 274.216702525 93.2950021487 327.839509183 c 0,11,12
 70.6946029717 521.902663857 70.6946029717 521.902663857 66.7070101804 564.436685408 c 128,-1,13
 62.7194173892 606.970706959 62.7194173892 606.970706959 58.9495806462 662.886752078 c 128,-1,14
 55.1797439032 718.802797196 55.1797439032 718.802797196 55.1797439032 720.427936 c 128,-1,15
 55.1797439032 722.053074805 55.1797439032 722.053074805 55.2777777778 723.172839506 c 0,16,17
 55.2777777778 735.474103696 55.2777777778 735.474103696 60.0974910274 742.359408338 c 0,18,19
 65.5159051905 750.1 65.5159051905 750.1 79.7 750.1 c 0,20,21
 87.1021270489 750.1 87.1021270489 750.1 98.3521270489 748.3 c 128,-1,22
 109.602127049 746.5 109.602127049 746.5 125.574186156 746.5 c 128,-1,23
 141.546245264 746.5 141.546245264 746.5 154.046245264 748 c 128,-1,24
 166.546245264 749.5 166.546245264 749.5 178.110792744 749.5 c 128,-1,25
 189.675340224 749.5 189.675340224 749.5 196.854336779 743.626275546 c 128,-1,26
 204.033333333 737.752551093 204.033333333 737.752551093 204.033333333 724.715555556 c 0,27,28
 204.033333333 714.220224719 204.033333333 714.220224719 193.738316908 633.146967109 c 128,-1,29
 183.443300482 552.073709498 183.443300482 552.073709498 174.945785618 481.594468592 c 0,30,31
 156.07349925 325.065505189 156.07349925 325.065505189 139.409176142 218.830445371 c 0,32,33
 137.537109863 208.333333333 137.537109863 208.333333333 125.819444444 208.333333333 c 0,34,35
 115.057100457 208.333333333 115.057100457 208.333333333 107.506299277 213.996434218 c 2,36,-1
 104.832098049 216.002085139 l 1,9,10
EndSplineSet
Validated: 1
EndChar

StartChar: quotedbl
Encoding: 34 34 19
Width: 304
Flags: W
LayerCount: 2
Fore
SplineSet
221 752.5 m 1,0,-1
 252.764444448 751.501393394 l 2,1,2
 255.552383299 752.357142806 255.552383299 752.357142806 258.204081633 752.357142857 c 0,3,4
 267.777434506 752.357142857 267.777434506 752.357142857 272.300399389 742.665075251 c 0,5,6
 275.227272727 736.393203811 275.227272727 736.393203811 275.227272727 732.116891862 c 0,7,8
 275.227272727 727.840579914 275.227272727 727.840579914 274.267687525 725.031564087 c 0,9,10
 270.914219534 706.086753546 270.914219534 706.086753546 264.676962412 649.060710312 c 0,11,12
 258.439705289 592.034667078 258.439705289 592.034667078 254.365966181 564.536928098 c 0,13,14
 250.292227072 537.039189117 250.292227072 537.039189117 246.931064884 529.13060775 c 0,15,16
 243.662498882 521.07714982 243.662498882 521.07714982 235.060311973 517.949083315 c 0,17,18
 229.425332857 515.9 229.425332857 515.9 225.840248268 515.9 c 0,19,20
 214.494150272 515.9 214.494150272 515.9 206.706172534 521.351584417 c 0,21,22
 199.034510776 526.721747647 199.034510776 526.721747647 197.585293698 536.866267197 c 0,23,24
 180.995447481 646.082814822 180.995447481 646.082814822 177.765304129 679.676305682 c 0,25,26
 174.214288262 716.606870697 174.214288262 716.606870697 174.214286988 728.450147963 c 0,27,28
 174.214285714 740.293425228 174.214285714 740.293425228 177.135303535 744.967053741 c 0,29,30
 181.843394947 752.5 181.843394947 752.5 198 752.5 c 2,31,-1
 221 752.5 l 1,0,-1
77 752.5 m 1,32,-1
 108.763830533 751.501206068 l 2,33,34
 112.931341589 752.358258098 112.931341589 752.358258098 114.204081633 752.357142857 c 0,35,36
 123.777434506 752.357142857 123.777434506 752.357142857 128.300399389 742.665075251 c 0,37,38
 131.227272727 736.393203811 131.227272727 736.393203811 131.227272727 732.116891862 c 0,39,40
 131.227272727 727.840579914 131.227272727 727.840579914 130.267687525 725.031564087 c 0,41,42
 128.317944622 714.016844399 128.317944622 714.016844399 124.881207634 685.050057611 c 0,43,44
 108.106290549 543.661453138 108.106290549 543.661453138 101.931335799 529.131241826 c 0,45,46
 98.7188613507 521.20846573 98.7188613507 521.20846573 90.7810668318 518.033347823 c 0,47,48
 85.4476972731 515.9 85.4476972731 515.9 81.8514304758 515.9 c 0,49,50
 70.7593895039 515.9 70.7593895039 515.9 62.4812967291 521.16787722 c 0,51,52
 54.062583248 526.525240345 54.062583248 526.525240345 52.5852936976 536.866267197 c 0,53,54
 30.2142933911 684.142100166 30.2142933911 684.142100166 30.2142857143 732.734693878 c 0,55,56
 30.2142857143 740.293425228 30.2142857143 740.293425228 33.1353035347 744.967053741 c 0,57,58
 37.8433949465 752.5 37.8433949465 752.5 53 752.5 c 2,59,-1
 77 752.5 l 1,32,-1
EndSplineSet
Validated: 1
EndChar

StartChar: numbersign
Encoding: 35 35 20
Width: 524
Flags: W
LayerCount: 2
Fore
SplineSet
296.861902439 245.5 m 1,0,1
 301.333462697 267.432386818 301.333462697 267.432386818 306.021459699 287.463231656 c 0,2,3
 310.7094567 307.494076494 310.7094567 307.494076494 314.885395306 328.47895419 c 1,4,5
 297.064961723 328.39760304 297.064961723 328.39760304 276.398612108 327.975886691 c 0,6,7
 255.732262493 327.554170341 255.732262493 327.554170341 231.043946748 327.505888609 c 1,8,9
 224.925149241 299.329018082 224.925149241 299.329018082 221.162153271 280.095927568 c 0,10,11
 217.399157301 260.862837054 217.399157301 260.862837054 213.641163812 245.5 c 1,12,-1
 296.861902439 245.5 l 1,0,1
248.304483357 406.484808657 m 1,13,-1
 329.674651754 405.508760244 l 1,14,15
 335.179035461 437.745464356 335.179035461 437.745464356 341.392674735 475.505222994 c 0,16,17
 347.604739283 513.255412154 347.604739283 513.255412154 357.400276242 569.851847913 c 1,18,19
 372.894116533 574.5 372.894116533 574.5 386.566555518 574.5 c 0,20,21
 411.748693 574.5 411.748693 574.5 422.476658221 572.354406956 c 2,22,-1
 429.248818982 570.999974804 l 1,23,24
 423.416800753 520.844618038 423.416800753 520.844618038 415.804903039 482.306627776 c 0,25,26
 408.193005325 443.768637513 408.193005325 443.768637513 400.228248398 405.5 c 1,27,-1
 495.1497386 405.5 l 1,28,-1
 496.354406956 399.476658221 l 1,29,-1
 499.354406956 384.476658221 l 1,30,-1
 499.5 383.748693 l 1,31,-1
 499.5 383 l 1,32,-1
 499.5 369 l 2,33,34
 499.5 360.62104148 499.5 360.62104148 498.367359172 349.294633197 c 0,35,36
 497.234718343 337.968224914 497.234718343 337.968224914 490.763877261 330.203215615 c 2,37,-1
 488.211954805 327.140908668 l 1,38,39
 474.62104148 328.5 474.62104148 328.5 464 328.5 c 2,40,-1
 384.064402293 328.5 l 1,41,42
 369.878576381 262.299664019 369.878576381 262.299664019 365.66967177 245.5 c 1,43,-1
 448.833857954 245.5 l 1,44,-1
 451.084021317 242.38438919 l 2,45,46
 463.766666667 224.823803321 463.766666667 224.823803321 463.766666667 208.677777778 c 0,47,48
 463.766666667 191.417699701 463.766666667 191.417699701 449.618617226 164.693606313 c 1,49,50
 401.706311184 162.610462572 401.706311184 162.610462572 349.164797398 162.506104198 c 1,51,52
 343.785616124 134.984535146 343.785616124 134.984535146 338.08958323 99.8589989676 c 0,53,54
 332.39744388 64.7574729744 332.39744388 64.7574729744 320.321940712 -5.5 c 1,55,-1
 314 -5.5 l 1,56,-1
 286.666666667 -6.83333333333 l 2,57,58
 275.041135791 -6.83333333333 275.041135791 -6.83333333333 249.202614242 -4.84575475265 c 1,59,60
 259.951831424 57.2608334128 259.951831424 57.2608334128 266.096201806 88.1813852294 c 0,61,62
 272.240572188 119.101937046 272.240572188 119.101937046 275.91392094 137.592530601 c 0,63,64
 279.587269691 156.083124155 279.587269691 156.083124155 280.862145349 162.5 c 1,65,-1
 196.163577912 162.5 l 1,66,67
 190.785898352 134.986586948 190.785898352 134.986586948 180.096655408 68.4928738104 c 0,68,69
 169.407412464 1.99916067302 169.407412464 1.99916067302 169.407412464 0.819257307724 c 2,70,-1
 168.406342 -5.5 l 1,71,-1
 162 -5.5 l 1,72,-1
 133.888888889 -6.83333333333 l 2,73,74
 122.041135791 -6.83333333333 122.041135791 -6.83333333333 96.2026142419 -4.84575475265 c 1,75,76
 106.181547936 52.810306593 106.181547936 52.810306593 127.888069121 163.513557986 c 1,77,78
 76.7690801058 163.667747653 76.7690801058 163.667747653 36.5 165.90491877 c 1,79,-1
 36.5 173 l 2,80,81
 36.5 180.77834819 36.5 180.77834819 34 188.27834819 c 0,82,83
 31.5 195.77834819 31.5 195.77834819 31.5 204.403047296 c 0,84,85
 31.5 213.027746403 31.5 213.027746403 34.0719115762 222.286628077 c 0,86,87
 36.6438231525 231.545509752 36.6438231525 231.545509752 38.4944646165 244.5 c 1,88,-1
 45 244.5 l 2,89,90
 62.9305717176 244.5 62.9305717176 244.5 89.1455927004 244.976636745 c 0,91,92
 115.360613683 245.45327349 115.360613683 245.45327349 144.855221969 245.495606165 c 1,93,94
 149.261949478 267.316515485 149.261949478 267.316515485 153.523725739 286.920812976 c 0,95,96
 157.785501999 306.525110467 157.785501999 306.525110467 161.901717586 327.5 c 1,97,-1
 85.920224198 327.5 l 1,98,99
 70.4285714286 351.441645189 70.4285714286 351.441645189 70.4285714286 366.531707694 c 0,100,101
 70.4285714286 381.621770198 70.4285714286 381.621770198 85.720252675 407.5 c 1,102,-1
 90 407.5 l 1,103,-1
 176.695993812 406.509424525 l 1,104,105
 194.861823309 510.613522733 194.861823309 510.613522733 204.336913948 569.832839225 c 1,106,-1
 208.844347197 571.185069199 l 2,107,108
 219.894116533 574.5 219.894116533 574.5 234.073803484 574.5 c 0,109,110
 258.748693 574.5 258.748693 574.5 269.476658221 572.354406956 c 2,111,-1
 276.248818982 570.999974804 l 1,112,113
 267.4527434 495.353724801 267.4527434 495.353724801 248.304483357 406.484808657 c 1,13,-1
EndSplineSet
Validated: 37
EndChar

StartChar: dollar
Encoding: 36 36 21
Width: 563
Flags: W
LayerCount: 2
Fore
SplineSet
248.779789347 600.743164062 m 128,-1,1
 249.271677553 659.938476562 249.271677553 659.938476562 249.310400668 711.252929688 c 1,2,3
 207.363848908 704.119140625 207.363848908 704.119140625 175.82648886 676.919921875 c 0,4,5
 146 649.720703125 146 649.720703125 146 602.879882812 c 128,-1,6
 146 556.0390625 146 556.0390625 177.383785991 524.221679688 c 0,7,8
 207.576302751 495.1953125 207.576302751 495.1953125 248.246038314 472.091796875 c 1,9,0
 248.28790114 541.546875 248.28790114 541.546875 248.779789347 600.743164062 c 128,-1,1
413.030273438 153.35546875 m 128,-1,11
 413.030273438 206.946289062 413.030273438 206.946289062 380.066844872 241.396484375 c 0,12,13
 349.653501705 271.924804688 349.653501705 271.924804688 306.113022842 296.845703125 c 1,14,-1
 306.113022842 25.9755859375 l 1,15,16
 352.616343223 35.0322265625 352.616343223 35.0322265625 383.500643184 67.3974609375 c 0,17,10
 413.030273438 99.763671875 413.030273438 99.763671875 413.030273438 153.35546875 c 128,-1,11
265.924709779 819 m 2,18,-1
 275.569904914 819 l 2,19,20
 281.241271281 819 281.241271281 819 289.839895763 818.3828125 c 128,-1,21
 298.438520246 817.765625 298.438520246 817.765625 304.829927222 811.802734375 c 2,22,23
 306.293032994 803.104492188 306.293032994 803.104492188 307.756138767 809.116210938 c 1,24,25
 306.113022842 800.069335938 306.113022842 800.069335938 306.113022842 793.799804688 c 2,26,27
 306.113022842 779.946289062 306.113022842 779.946289062 306.113022842 780.029296875 c 1,28,29
 306.113022842 765.91796875 306.113022842 765.91796875 306.113022842 765.275390625 c 2,30,31
 306.113022842 761.223632812 306.113022842 761.223632812 305.769747668 756.884765625 c 1,32,33
 325.1114199 753.927734375 325.1114199 753.927734375 349.2756897 744.224609375 c 128,-1,34
 373.438912929 734.522460938 373.438912929 734.522460938 385.404355201 728.44140625 c 0,35,36
 397.15234375 722.360351562 397.15234375 722.360351562 398.708984375 722.360351562 c 128,-1,37
 400.264648438 722.360351562 400.264648438 722.360351562 400.697265625 722.786132812 c 0,38,39
 405.280273438 727.29296875 405.280273438 727.29296875 410.231445312 737.520507812 c 128,-1,40
 415.182617188 747.748046875 415.182617188 747.748046875 424.658203125 758.233398438 c 128,-1,41
 434.133789062 768.717773438 434.133789062 768.717773438 452.5 768.717773438 c 0,42,43
 465.649414062 768.717773438 465.649414062 768.717773438 468.854492188 752.958007812 c 0,44,45
 471 742.405273438 471 742.405273438 471 727.594726562 c 128,-1,46
 471 712.784179688 471 712.784179688 469.502929688 697.563476562 c 128,-1,47
 468.004882812 682.342773438 468.004882812 682.342773438 468.102539062 671.891601562 c 128,-1,48
 468.200195312 661.44140625 468.200195312 661.44140625 468.200195312 635.119140625 c 128,-1,49
 468.200195312 608.796875 468.200195312 608.796875 464.979492188 566.036132812 c 0,50,51
 463.328125 555.004882812 463.328125 555.004882812 457.966796875 549.73046875 c 128,-1,52
 452.604492188 544.45703125 452.604492188 544.45703125 446.587890625 544.45703125 c 128,-1,53
 440.571289062 544.45703125 440.571289062 544.45703125 436.571289062 545.440429688 c 128,-1,54
 432.571289062 546.423828125 432.571289062 546.423828125 430.5 546.423828125 c 0,55,56
 419.864257812 546.423828125 419.864257812 546.423828125 413.287109375 559.361328125 c 0,57,58
 408.390625 568.994140625 408.390625 568.994140625 405.284179688 582.235351562 c 128,-1,59
 402.177734375 595.4765625 402.177734375 595.4765625 399.301757812 608.677734375 c 128,-1,60
 396.42578125 621.879882812 396.42578125 621.879882812 390.535691111 631.142578125 c 1,61,62
 376.105574952 663.306640625 376.105574952 663.306640625 349.904678662 682.266601562 c 0,63,64
 328.054376575 698.079101562 328.054376575 698.079101562 305.041334494 703.912109375 c 1,65,66
 305.041334494 569.157226562 305.041334494 569.157226562 305.041334494 441.3125 c 1,67,68
 334.966975736 426.502929688 334.966975736 426.502929688 364.891570409 413.846679688 c 2,69,70
 401.138671875 396.981445312 401.138671875 396.981445312 421.686523438 383.856445312 c 0,71,72
 466.271484375 354.280273438 466.271484375 354.280273438 491.154296875 307.37109375 c 128,-1,73
 515.96484375 260.596679688 515.96484375 260.596679688 516.999023438 207.716796875 c 1,74,75
 516.999023438 210.173828125 516.999023438 210.173828125 516.999023438 207.572265625 c 2,76,77
 516.999023438 104.2109375 516.999023438 104.2109375 459.435546875 47.08984375 c 128,-1,78
 401.873046875 -10.0302734375 401.873046875 -10.0302734375 305.521710423 -22.2646484375 c 1,79,80
 305.045520776 -30.7578125 305.045520776 -30.7578125 305.041334494 -33.41015625 c 2,81,82
 305.041334494 -35.1513671875 305.041334494 -35.1513671875 305.041334494 -50.130859375 c 1,83,84
 305.041334494 -51.115234375 305.041334494 -51.115234375 305.041334494 -65.869140625 c 2,85,86
 305.041334494 -74.267578125 305.041334494 -74.267578125 302.904237221 -88 c 1,87,-1
 295.931983533 -88 l 1,88,-1
 273.426528217 -88 l 2,89,90
 259.257008151 -88 259.257008151 -88 254.811176018 -86.6171875 c 2,91,92
 252.513953435 -78.40234375 252.513953435 -78.40234375 250.217777423 -85.1884765625 c 1,93,94
 248.241852031 -74.3076171875 248.241852031 -74.3076171875 248.241852031 -66.806640625 c 2,95,96
 248.241852031 -51.990234375 248.241852031 -51.990234375 248.241852031 -51.068359375 c 1,97,98
 248.241852031 -31.8154296875 248.241852031 -31.8154296875 248.241852031 -25.7841796875 c 1,99,100
 230.935759718 -24.9072265625 230.935759718 -24.9072265625 213.334534482 -19.830078125 c 128,-1,101
 195.733309245 -14.7529296875 195.733309245 -14.7529296875 180.612456455 -9.30078125 c 0,102,103
 165.784179688 -3.8486328125 165.784179688 -3.8486328125 152.811523438 1.0595703125 c 0,104,105
 137.7109375 5.291015625 137.7109375 5.291015625 130.74609375 5.3896484375 c 128,-1,106
 123.782226562 5.4892578125 123.782226562 5.4892578125 119.203125 0.609375 c 128,-1,107
 114.624023438 -4.26953125 114.624023438 -4.26953125 109.551757812 -13.2490234375 c 128,-1,108
 104.48046875 -22.2294921875 104.48046875 -22.2294921875 95.9619140625 -30.009765625 c 128,-1,109
 87.443359375 -37.7900390625 87.443359375 -37.7900390625 68.5 -37.7900390625 c 0,110,111
 55.064453125 -37.7900390625 55.064453125 -37.7900390625 52.087890625 -18.7548828125 c 0,112,113
 50 -5.4091796875 50 -5.4091796875 50 11.7490234375 c 128,-1,114
 50 28.90625 50 28.90625 51.5 47.103515625 c 128,-1,115
 53 65.2998046875 53 65.2998046875 53 84.3740234375 c 0,116,117
 53 139.673828125 53 139.673828125 56.0458984375 172.048828125 c 0,118,119
 57.4033203125 184.064453125 57.4033203125 184.064453125 63.7021484375 188.7109375 c 128,-1,120
 70.001953125 193.358398438 70.001953125 193.358398438 75.7783203125 193.358398438 c 128,-1,121
 81.5556640625 193.358398438 81.5556640625 193.358398438 85.0556640625 192.374023438 c 128,-1,122
 88.5556640625 191.390625 88.5556640625 191.390625 90.5 191.390625 c 0,123,124
 102.260742188 191.390625 102.260742188 191.390625 108.290039062 178.788085938 c 0,125,126
 112.62890625 169.717773438 112.62890625 169.717773438 115.697265625 156.641601562 c 0,127,128
 123.192382812 124.694335938 123.192382812 124.694335938 131.416015625 106.215820312 c 0,129,130
 146.469726562 71.048828125 146.469726562 71.048828125 178.924337992 52.076171875 c 0,131,132
 213.058239829 33.1025390625 213.058239829 33.1025390625 248.241852031 28.91015625 c 1,133,134
 248.241852031 181.557617188 248.241852031 181.557617188 248.241852031 328.094726562 c 1,135,136
 211.747933372 345.8515625 211.747933372 345.8515625 174.840619305 365.208007812 c 0,137,138
 140.0703125 384.564453125 140.0703125 384.564453125 111.77734375 409.864257812 c 128,-1,139
 83.484375 435.163085938 83.484375 435.163085938 65.2421875 468.999023438 c 128,-1,140
 47 502.833984375 47 502.833984375 47 548.744140625 c 128,-1,141
 47 594.654296875 47 594.654296875 62.5595703125 631.895507812 c 128,-1,142
 78.14453125 669.198242188 78.14453125 669.198242188 105.749023438 695.836914062 c 128,-1,143
 133.252929688 722.379882812 133.252929688 722.379882812 168.967773438 737.504882812 c 0,144,145
 207.176512761 752.629882812 207.176512761 752.629882812 249.313540379 757.204101562 c 1,146,147
 249.313540379 779.151367188 249.313540379 779.151367188 249.313540379 814.907226562 c 1,148,149
 262.488818326 819.004882812 262.488818326 819.004882812 265.924709779 819 c 2,18,-1
EndSplineSet
Validated: 5
EndChar

StartChar: percent
Encoding: 37 37 22
Width: 828
Flags: W
LayerCount: 2
Fore
SplineSet
667.0703125 223.904296875 m 0,0,1
 641.749647871 250.5 641.749647871 250.5 604.952380952 250.5 c 0,2,3
 575.219729795 250.5 575.219729795 250.5 549.644631716 225.799804688 c 128,-1,4
 523.886141815 200.922851562 523.886141815 200.922851562 522.91980798 159.532226562 c 2,5,6
 522.91980798 163.02734375 522.91980798 163.02734375 522.91980798 159.41015625 c 2,7,8
 522.780752642 156.0390625 522.780752642 156.0390625 522.776722052 152.798828125 c 0,9,10
 522.776722052 110.918945312 522.776722052 110.918945312 546.893754377 88.458984375 c 128,-1,11
 571.009779054 66 571.009779054 66 605.101512764 66 c 128,-1,12
 639.192238827 66 639.192238827 66 665.366210938 87.59375 c 0,13,14
 691.047851562 109.188476562 691.047851562 109.188476562 692 152.081054688 c 0,15,16
 691.979492188 197.309570312 691.979492188 197.309570312 667.0703125 223.904296875 c 0,0,1
279.482278139 631.404296875 m 128,-1,18
 253.781224137 658 253.781224137 658 216.983957219 658 c 0,19,20
 187.291611957 658 187.291611957 658 161.830078125 632.749023438 c 0,21,22
 136.935546875 607.498046875 136.935546875 607.498046875 135.998046875 566.071289062 c 2,23,24
 135.998046875 562.396484375 135.998046875 562.396484375 135.998046875 565.94921875 c 2,25,26
 135.86328125 562.577148438 135.86328125 562.577148438 135.859375 559.340820312 c 0,27,28
 135.859375 517.532226562 135.859375 517.532226562 159.2109375 495.515625 c 0,29,30
 182.998026483 473.5 182.998026483 473.5 217.110920789 473.5 c 128,-1,31
 251.223815094 473.5 251.223815094 473.5 277.723933465 495.09375 c 128,-1,32
 304.223044189 516.688476562 304.223044189 516.688476562 305.205500382 559.581054688 c 0,33,17
 305.184339787 604.809570312 305.184339787 604.809570312 279.482278139 631.404296875 c 128,-1,18
631.950277128 697.5 m 1,34,-1
 635.907308378 697.5 l 2,35,36
 649.48737208 697.5 649.48737208 697.5 667.973632812 685.989257812 c 128,-1,37
 686.287109375 674.477539062 686.287109375 674.477539062 704.325195312 664.638671875 c 1,38,39
 670.58203125 614.60546875 670.58203125 614.60546875 638.407281521 573.901367188 c 0,40,41
 605.897554192 533.391601562 605.897554192 533.391601562 571.846126377 492.391601562 c 0,42,43
 472.768190373 369.36328125 472.768190373 369.36328125 374.205162179 249.334960938 c 128,-1,44
 275.800334622 129.499023438 275.800334622 129.499023438 179.528696564 -2.1591796875 c 1,45,-1
 173.872771836 0.033203125 l 2,46,47
 167.908203125 2.357421875 167.908203125 2.357421875 154.478515625 11.8076171875 c 128,-1,48
 141.049804688 21.2578125 141.049804688 21.2578125 119.038085938 28.9140625 c 2,49,-1
 109.361328125 32.2802734375 l 1,50,51
 241.806342708 206.57421875 241.806342708 206.57421875 372.827708214 366.048828125 c 128,-1,52
 503.85310431 525.52734375 503.85310431 525.52734375 631.950277128 697.5 c 1,34,-1
726.1796875 279.95703125 m 128,-1,54
 749.724609375 257.947265625 749.724609375 257.947265625 763.823242188 227.807617188 c 128,-1,55
 778 197.502929688 778 197.502929688 778 162.265625 c 128,-1,56
 778 127.028320312 778 127.028320312 765.497070312 95.431640625 c 128,-1,57
 752.973632812 63.783203125 752.973632812 63.783203125 730.479492188 40.2421875 c 128,-1,58
 707.962890625 16.677734375 707.962890625 16.677734375 677.114257812 2.8681640625 c 0,59,60
 645.850772695 -11 645.850772695 -11 606.666389141 -11 c 128,-1,61
 567.480997939 -11 567.480997939 -11 534.566196365 0.2548828125 c 128,-1,62
 501.651394791 11.5087890625 501.651394791 11.5087890625 478.240723278 33.7041015625 c 128,-1,63
 454.887487666 55.845703125 454.887487666 55.845703125 442.432966084 86.6494140625 c 128,-1,64
 430.057040998 117.2578125 430.057040998 117.2578125 430.057040998 153.826171875 c 128,-1,65
 430.057040998 190.395507812 430.057040998 190.395507812 442.417851374 221.4765625 c 128,-1,66
 454.824005881 252.670898438 454.824005881 252.670898438 478.058339103 276.236328125 c 128,-1,67
 501.34809293 299.856445312 501.34809293 299.856445312 533.780231411 313.181640625 c 128,-1,68
 566.199270475 326.5 566.199270475 326.5 603.359290449 326.5 c 128,-1,69
 640.52031807 326.5 640.52031807 326.5 671.821289062 314.223632812 c 0,70,53
 702.642578125 301.958007812 702.642578125 301.958007812 726.1796875 279.95703125 c 128,-1,54
340.473158582 687.453125 m 128,-1,72
 364.785674497 665.42578125 364.785674497 665.42578125 379.335094975 634.770507812 c 128,-1,73
 393.942959002 603.9921875 393.942959002 603.9921875 393.942959002 568.754882812 c 128,-1,74
 393.942959002 533.516601562 393.942959002 533.516601562 381.026934922 502.389648438 c 128,-1,75
 368.104864957 471.250976562 368.104864957 471.250976562 344.909829983 447.723632812 c 128,-1,76
 321.714795009 424.197265625 321.714795009 424.197265625 289.826786112 409.848632812 c 128,-1,77
 257.938777215 395.5 257.938777215 395.5 218.685873639 395.5 c 128,-1,78
 179.43397771 395.5 179.43397771 395.5 147.819335938 407.234375 c 128,-1,79
 116.331054688 419.04296875 116.331054688 419.04296875 93.697265625 441.185546875 c 128,-1,80
 71.12109375 463.2734375 71.12109375 463.2734375 58.5498046875 493.506835938 c 128,-1,81
 46 523.689453125 46 523.689453125 46 560.315429688 c 128,-1,82
 46 596.94140625 46 596.94140625 58.5029296875 628.540039062 c 128,-1,83
 71.0263671875 660.190429688 71.0263671875 660.190429688 93.5205078125 683.733398438 c 128,-1,84
 116.075195312 707.337890625 116.075195312 707.337890625 146.981445312 720.662109375 c 0,85,86
 178.205655558 734 178.205655558 734 215.378774947 734 c 128,-1,87
 252.551894337 734 252.551894337 734 284.384482628 721.72265625 c 128,-1,71
 316.186841498 709.45703125 316.186841498 709.45703125 340.473158582 687.453125 c 128,-1,72
EndSplineSet
Validated: 1
EndChar

StartChar: ampersand
Encoding: 38 38 23
Width: 811
Flags: W
LayerCount: 2
Fore
SplineSet
341.218202407 444.493104572 m 0,0,1
 366.206785963 461.287716834 366.206785963 461.287716834 379.353392981 488.989499381 c 0,2,3
 392.5 516.691281928 392.5 516.691281928 392.5 550.521286287 c 0,4,5
 392.5 584.351290646 392.5 584.351290646 373.459175069 607.925645323 c 0,6,7
 354.418350137 631.5 354.418350137 631.5 317 631.5 c 0,8,9
 284.25042292 631.5 284.25042292 631.5 264.37521146 610.269660486 c 0,10,11
 244.5 589.039320972 244.5 589.039320972 244.5 556 c 0,12,13
 244.5 512.914611972 244.5 512.914611972 286.69213431 472.410163035 c 0,14,15
 314.385552316 445.824481749 314.385552316 445.824481749 329.305649431 437.340425421 c 0,16,17
 331.496653192 438.427749831 331.496653192 438.427749831 334.215876928 440.370052513 c 0,18,19
 336.935100664 442.312355194 336.935100664 442.312355194 341.218202407 444.493104572 c 0,0,1
157.5 198 m 0,20,21
 157.5 166.567734914 157.5 166.567734914 168.877675946 140.493894204 c 0,22,23
 180.272984618 114.379645164 180.272984618 114.379645164 200.673574212 94.9279202028 c 0,24,25
 221.190976901 75.3648153129 221.190976901 75.3648153129 247.948964894 63.8971061733 c 0,26,27
 274.542212631 52.5 274.542212631 52.5 306 52.5 c 0,28,29
 352.965131747 52.5 352.965131747 52.5 386.649450997 72.2293869889 c 0,30,31
 420.333770246 91.9587739779 420.333770246 91.9587739779 452.618598722 125.221930589 c 0,32,33
 459.130076985 131.733408852 459.130076985 131.733408852 463.911255757 139.122503319 c 0,34,35
 468.692434529 146.511597785 468.692434529 146.511597785 473.514304915 153.782594965 c 1,36,37
 468.197491061 165.515703208 468.197491061 165.515703208 458.264907286 176.802730225 c 0,38,39
 441.676223132 195.653507673 441.676223132 195.653507673 436.153174971 202.304527263 c 0,40,41
 365.271160332 290.428113031 365.271160332 290.428113031 268.077290587 356.568332855 c 1,42,43
 220.536328 337.228903541 220.536328 337.228903541 189.018164 295.36149165 c 0,44,45
 157.5 253.49407976 157.5 253.49407976 157.5 198 c 0,20,21
249.412385072 661.836010287 m 0,46,47
 277.378695688 674.5 277.378695688 674.5 310.114526005 674.5 c 0,48,49
 380.455304813 674.5 380.455304813 674.5 424.480340203 646.856373127 c 0,50,51
 447.563921365 632.362031467 447.563921365 632.362031467 461.498757253 608.244046277 c 0,52,53
 475.5 584.011126138 475.5 584.011126138 475.5 549 c 0,54,55
 475.5 501.182607267 475.5 501.182607267 434.221930589 461.118598722 c 0,56,57
 405.375632638 433.120721298 405.375632638 433.120721298 363.759613073 412.24400375 c 1,58,59
 368.400408778 408.573899936 368.400408778 408.573899936 375.94491035 403.2927032 c 0,60,61
 383.489411923 398.011506464 383.489411923 398.011506464 398.239280076 386.313440055 c 0,62,63
 412.989148229 374.615373646 412.989148229 374.615373646 432.802260938 354.802260938 c 0,64,65
 460.870929485 326.73359239 460.870929485 326.73359239 492.879294627 290.399787825 c 0,66,67
 524.887659769 254.065983261 524.887659769 254.065983261 539.553273405 237.634417002 c 1,68,69
 546.781269381 249.150770612 546.781269381 249.150770612 562.907433206 267.857120649 c 0,70,71
 579.033597031 286.563470686 579.033597031 286.563470686 588.201271335 300.073727555 c 0,72,73
 609.5 331.461327693 609.5 331.461327693 609.5 357 c 0,74,75
 609.5 373.597803392 609.5 373.597803392 605.892978609 378.647633339 c 0,76,77
 602.252383223 383.74446688 602.252383223 383.74446688 597.644689808 385.419991758 c 0,78,79
 593.036996392 387.095516636 593.036996392 387.095516636 587.653184663 389.787422501 c 0,80,81
 578.5 394.364014833 578.5 394.364014833 578.5 412 c 0,82,83
 578.5 421.857261809 578.5 421.857261809 592.177679343 425.276681645 c 0,84,85
 601.070952762 427.5 601.070952762 427.5 609 427.5 c 2,86,-1
 676 427.5 l 2,87,88
 698.655163678 427.5 698.655163678 427.5 720.655163678 429.5 c 0,89,90
 742.655163678 431.5 742.655163678 431.5 767 431.5 c 0,91,92
 775.362992585 431.5 775.362992585 431.5 782.931496292 426.202047405 c 0,93,94
 790.5 420.904094809 790.5 420.904094809 790.5 410.150428892 c 0,95,96
 790.5 399.396762974 790.5 399.396762974 783.532114237 393.822454363 c 0,97,98
 771.454856826 384.160648434 771.454856826 384.160648434 751.946442555 383.013094654 c 0,99,100
 743.223833445 382.5 743.223833445 382.5 737 382.5 c 0,101,102
 725.597831484 382.5 725.597831484 382.5 710.382472262 370.512141219 c 0,103,104
 695.16711304 358.524282438 695.16711304 358.524282438 680.115644315 341.530688716 c 0,105,106
 664.941514008 324.398606111 664.941514008 324.398606111 653.528676609 307.527455173 c 0,107,108
 624.393486718 264.458044031 624.393486718 264.458044031 567.340013106 193.630374268 c 1,109,110
 607.938916134 134.794958922 607.938916134 134.794958922 647.986948408 99.099973634 c 0,111,112
 670.325598739 79.1894374693 670.325598739 79.1894374693 695.275694638 65.7547704466 c 0,113,114
 720.225790538 52.3201034239 720.225790538 52.3201034239 750.885024034 49.3530808276 c 1,115,116
 758.54176777 46.0716192263 758.54176777 46.0716192263 767.448713766 43.4519292276 c 0,117,118
 776.355659761 40.8322392289 776.355659761 40.8322392289 783.794221273 35.4223763114 c 0,119,120
 792.033333333 29.4302948128 792.033333333 29.4302948128 792.033333333 19.2567469202 c 0,121,122
 792.033333333 9.08319902772 792.033333333 9.08319902772 782.896202221 -5.27514986315 c 1,123,124
 765.966210023 -10.918480596 765.966210023 -10.918480596 742.361995582 -11.9913994342 c 0,125,126
 710.680705424 -13.5 710.680705424 -13.5 703 -13.5 c 0,127,128
 652.303558807 -13.5 652.303558807 -13.5 619.501095382 2.12022067837 c 0,129,130
 586.698631958 17.7404413567 586.698631958 17.7404413567 564.515318662 38.8919726386 c 0,131,132
 542.332005366 60.0435039205 542.332005366 60.0435039205 527.925588501 79.8523271104 c 0,133,134
 513.519171636 99.6611503003 513.519171636 99.6611503003 501.170595047 111.704897977 c 1,135,136
 490.346501024 95.616259354 490.346501024 95.616259354 473.296905466 76.6181385898 c 0,137,138
 440.648661462 40.2386666992 440.648661462 40.2386666992 392.784187721 6.84484781002 c 0,139,140
 370.546073167 -8.67011583241 370.546073167 -8.67011583241 350.686475108 -16.0044631902 c 0,141,142
 309.460971034 -32.4723077485 309.460971034 -32.4723077485 258.076359983 -33.5 c 0,143,144
 224.050209908 -33.5 224.050209908 -33.5 196.104314609 -25.2619620621 c 0,145,146
 163.951386612 -17.9600867665 163.951386612 -17.9600867665 137.433390981 -0.801381730942 c 0,147,148
 110.826823412 16.4146325787 110.826823412 16.4146325787 92.5278741115 40.4646802302 c 0,149,150
 74.3109537389 64.4069184342 74.3109537389 64.4069184342 63.9207554068 94.0189836807 c 0,151,152
 53.5 123.71813659 53.5 123.71813659 53.5 157 c 2,153,-1
 53.5 176 l 2,154,155
 53.5 231.490433219 53.5 231.490433219 85.6455597356 274.524005123 c 0,156,157
 117.791119471 317.557577027 117.791119471 317.557577027 161.933390981 346.301381731 c 0,158,159
 179.337549483 357.562896056 179.337549483 357.562896056 199.768165501 367.334060238 c 0,160,161
 220.198781519 377.105224421 220.198781519 377.105224421 232.7297761 387.162628942 c 1,162,163
 230.385530974 388.976033509 230.385530974 388.976033509 227.363359408 391.091553605 c 0,164,165
 201.211729707 414.104987742 201.211729707 414.104987742 179.855864854 448.482721408 c 0,166,167
 158.5 482.860455075 158.5 482.860455075 158.5 517.179133308 c 0,168,169
 158.5 551.497811541 158.5 551.497811541 170.069746851 579.3703835 c 0,170,171
 181.601871899 607.152321116 181.601871899 607.152321116 201.562545729 628.163556726 c 0,172,173
 221.576840423 649.231235352 221.576840423 649.231235352 249.412385072 661.836010287 c 0,46,47
EndSplineSet
Validated: 1
EndChar

StartChar: quotesingle
Encoding: 39 39 24
Width: 159
Flags: W
LayerCount: 2
Fore
SplineSet
77 752.5 m 1,0,-1
 108.763830533 751.501206068 l 2,1,2
 112.931341589 752.358258098 112.931341589 752.358258098 114.204081633 752.357142857 c 0,3,4
 123.777434506 752.357142857 123.777434506 752.357142857 128.300399389 742.665075251 c 0,5,6
 131.227272727 736.393203811 131.227272727 736.393203811 131.227272727 732.116891862 c 0,7,8
 131.227272727 727.840579914 131.227272727 727.840579914 130.267687525 725.031564087 c 0,9,10
 128.317944622 714.016844399 128.317944622 714.016844399 124.881207634 685.050057611 c 0,11,12
 108.106290549 543.661453138 108.106290549 543.661453138 101.931335799 529.131241826 c 0,13,14
 98.7188613507 521.20846573 98.7188613507 521.20846573 90.7810668318 518.033347823 c 0,15,16
 85.4476972731 515.9 85.4476972731 515.9 81.8514304758 515.9 c 0,17,18
 70.7593895039 515.9 70.7593895039 515.9 62.4812967291 521.16787722 c 0,19,20
 54.062583248 526.525240345 54.062583248 526.525240345 52.5852936976 536.866267197 c 0,21,22
 30.2142933911 684.142100166 30.2142933911 684.142100166 30.2142857143 732.734693878 c 0,23,24
 30.2142857143 740.293425228 30.2142857143 740.293425228 33.1353035347 744.967053741 c 0,25,26
 37.8433949465 752.5 37.8433949465 752.5 53 752.5 c 2,27,-1
 77 752.5 l 1,0,-1
EndSplineSet
Validated: 1
EndChar

StartChar: parenleft
Encoding: 40 40 25
Width: 361
Flags: W
LayerCount: 2
Fore
SplineSet
144.5 269 m 0,0,1
 144.5 148.251820849 144.5 148.251820849 183.098321899 35.4259568373 c 0,2,3
 195.848630037 -1.84417464277 195.848630037 -1.84417464277 214.501806277 -33.260050416 c 2,4,-1
 261.049854818 -116.345816762 l 2,5,6
 283.900472261 -157.18521815 283.900472261 -157.18521815 319.460901147 -187.806698579 c 1,7,8
 326.4 -196.728397105 326.4 -196.728397105 326.4 -206.335 c 0,9,10
 326.4 -210.405738209 326.4 -210.405738209 325.212570023 -214.561743128 c 0,11,12
 320.658782345 -230.5 320.658782345 -230.5 304 -230.5 c 0,13,14
 292.300962114 -230.5 292.300962114 -230.5 276.626811944 -217.528289515 c 0,15,16
 260.952661775 -204.55657903 260.952661775 -204.55657903 254.641205336 -198.245122591 c 0,17,18
 160.784885467 -102.370387241 160.784885467 -102.370387241 106.142442733 9.95018948904 c 0,19,20
 51.5 122.270766219 51.5 122.270766219 51.5 259 c 0,21,22
 51.5 375.502860908 51.5 375.502860908 100.041738301 495.80195148 c 0,23,24
 147.174648892 612.609599468 147.174648892 612.609599468 231.378438309 698.975788397 c 0,25,26
 245.902140562 716.972484279 245.902140562 716.972484279 261.140531978 729.440259075 c 0,27,28
 276.378923394 741.90803387 276.378923394 741.90803387 287.172838542 750.003470231 c 0,29,30
 297.96675369 758.098906592 297.96675369 758.098906592 305.759979535 759.397777566 c 2,31,-1
 308.437882044 759.844094651 l 1,32,33
 324.584239972 750.425385859 324.584239972 750.425385859 331.588895771 737.583516894 c 2,34,-1
 332.824235532 735.318727333 l 1,35,-1
 332.397777566 732.759979535 l 2,36,37
 330.969198139 724.188502974 330.969198139 724.188502974 322.1057538 716.501152497 c 0,38,39
 285.731756384 680.097992851 285.731756384 680.097992851 262.175997851 645.745846253 c 0,40,41
 204.818491847 562.676354799 204.818491847 562.676354799 174.656265692 466.750586373 c 0,42,43
 144.5 370.843774171 144.5 370.843774171 144.5 269 c 0,0,1
EndSplineSet
Validated: 1
EndChar

StartChar: parenright
Encoding: 41 41 26
Width: 361
Flags: W
LayerCount: 2
Fore
SplineSet
304.5 269 m 0,0,1
 304.5 178.851754771 304.5 178.851754771 277.193466417 91.3697119974 c 0,2,3
 242.002580225 -21.3714604334 242.002580225 -21.3714604334 175.069386003 -113.404582947 c 0,4,5
 140.180675332 -161.37656012 140.180675332 -161.37656012 99.5216468602 -198.068854106 c 0,6,7
 78.4176054296 -217.113964666 78.4176054296 -217.113964666 54.0042618197 -231.064446729 c 1,8,-1
 50.9908952632 -230.227400463 l 2,9,10
 28.7823265931 -224.05835361 28.7823265931 -224.05835361 23.7233183549 -203.822320657 c 2,11,-1
 22.7883396427 -200.082405808 l 1,12,13
 59.1522599305 -157.301323117 59.1522599305 -157.301323117 90.8871904248 -115.649275871 c 0,14,15
 122.622120919 -73.9972286245 122.622120919 -73.9972286245 146.326986839 -27.5751995316 c 0,16,17
 211.5 99.0466546099 211.5 99.0466546099 211.5 262 c 0,18,19
 211.5 423.735859301 211.5 423.735859301 149.675812545 558.886408621 c 0,20,21
 128.485579648 605.209243327 128.485579648 605.209243327 99.9240282973 644.604486569 c 0,22,23
 71.2747615243 684.120716601 71.2747615243 684.120716601 55.2767583276 700.118719797 c 0,24,25
 35.7874905804 719.607987545 35.7874905804 719.607987545 30.2874225014 728.653184663 c 0,26,27
 29.0294117647 731.169206136 29.0294117647 731.169206136 29.0294117647 735.855328258 c 0,28,29
 29.0294117647 740.54145038 29.0294117647 740.54145038 35.4159786827 749.38438919 c 0,30,31
 44.1661420457 761.5 44.1661420457 761.5 53 761.5 c 0,32,33
 62.1134370979 761.5 62.1134370979 761.5 79.796784385 746.763877261 c 0,34,35
 85.7730163449 741.783683961 85.7730163449 741.783683961 91.404427824 737.176183266 c 0,36,37
 97.0358393032 732.568682572 97.0358393032 732.568682572 100.302260937 729.302260938 c 0,38,39
 194.215742756 635.388779119 194.215742756 635.388779119 249.357871378 520.045610992 c 0,40,41
 304.5 404.702442866 304.5 404.702442866 304.5 269 c 0,0,1
EndSplineSet
Validated: 1
EndChar

StartChar: asterisk
Encoding: 42 42 27
Width: 532
Flags: W
LayerCount: 2
Fore
SplineSet
283.561650259 510.649200516 m 0,0,1
 281.710526316 515.144787236 281.710526316 515.144787236 281.710526316 521.217282665 c 128,-1,2
 281.710526316 527.289778094 281.710526316 527.289778094 286.925507366 533.568959902 c 128,-1,3
 292.140488415 539.848141709 292.140488415 539.848141709 316.716186035 554.183966509 c 0,4,5
 363.750050453 581.620389693 363.750050453 581.620389693 407.343409895 605.473404009 c 128,-1,6
 450.936769336 629.326418326 450.936769336 629.326418326 459.300678815 635.599350435 c 1,7,8
 465.552302727 638.1 465.552302727 638.1 469.71188755 638.1 c 128,-1,9
 473.871472374 638.1 473.871472374 638.1 475.541062411 637.980743569 c 0,10,11
 487.813096031 637.104169739 487.813096031 637.104169739 490.247424894 623.27569037 c 0,12,13
 494.908221667 613.928771296 494.908221667 613.928771296 497.331624639 608.597281599 c 128,-1,14
 499.77442735 603.223115635 499.77442735 603.223115635 502.782831892 597.206306551 c 0,15,16
 511.837346136 579.097278064 511.837346136 579.097278064 512.441176471 571.311418685 c 0,17,18
 512.441176471 559.654290814 512.441176471 559.654290814 494.688626195 552.997084461 c 0,19,20
 481.326529483 547.857816495 481.326529483 547.857816495 455.169009128 540.815407169 c 128,-1,21
 429.011488773 533.772997842 429.011488773 533.772997842 401.061743128 525.787429977 c 0,22,23
 355.08304958 512.650660392 355.08304958 512.650660392 308.020307834 501.767823553 c 0,24,25
 303.244780087 500.220000337 303.244780087 500.220000337 299.1904 500.22 c 0,26,27
 287.856026942 500.22 287.856026942 500.22 283.561650259 510.649200516 c 0,0,1
261 755.5 m 2,28,29
 264.748693 755.5 264.748693 755.5 269.655110518 754.518716496 c 128,-1,30
 274.561528036 753.537432993 274.561528036 753.537432993 285.236859831 753.501285865 c 0,31,32
 287.55734067 753.944443399 287.55734067 753.944443399 289.703703704 753.944444444 c 0,33,34
 300.613329223 753.944444444 300.613329223 753.944444444 304.897106173 743.948964894 c 0,35,36
 307.3 738.342212631 307.3 738.342212631 307.3 734.179938148 c 128,-1,37
 307.3 730.017663666 307.3 730.017663666 306.268095808 727.028601823 c 0,38,39
 304.366932173 716.108140355 304.366932173 716.108140355 301.918184732 687.21291994 c 0,40,41
 295.367980328 609.920506334 295.367980328 609.920506334 290.842492394 575.009599408 c 128,-1,42
 286.317004459 540.098692483 286.317004459 540.098692483 281.682782937 532.532749249 c 0,43,44
 275.894999465 518.997160006 275.894999465 518.997160006 262.420559413 517.5 c 1,45,46
 247.575246368 517.5 247.575246368 517.5 244.615036424 538.642767249 c 0,47,48
 241.636185939 551.654443458 241.636185939 551.654443458 233.100726602 606.824760257 c 0,49,50
 220.427941211 688.737350668 220.427941211 688.737350668 217.466187949 730.201896338 c 1,51,52
 218.716596265 740.205162865 218.716596265 740.205162865 221.787422501 746.346815337 c 0,53,54
 226.364014833 755.5 226.364014833 755.5 243 755.5 c 2,55,-1
 261 755.5 l 2,28,29
87.5555663759 360.159745811 m 0,56,57
 108.076957807 382.912353533 108.076957807 382.912353533 157.537013306 426.621239788 c 0,58,59
 235.067680382 495.136713018 235.067680382 495.136713018 247.817195747 495.136713018 c 0,60,61
 248.070523968 495.136713018 248.070523968 495.136713018 248.258026159 495.086206897 c 0,62,63
 253.937055236 495.086206897 253.937055236 495.086206897 258.628059372 491.400417932 c 0,64,65
 265.954545455 485.643893153 265.954545455 485.643893153 265.954545455 476.272727273 c 0,66,67
 265.954545455 471.71250598 265.954545455 471.71250598 263.842651597 465.644342909 c 128,-1,68
 261.730757739 459.576179838 261.730757739 459.576179838 246.465423341 436.678180203 c 128,-1,69
 231.200088943 413.780180569 231.200088943 413.780180569 212.653881193 387.213991089 c 128,-1,70
 194.186884537 360.76126615 194.186884537 360.76126615 177.943524444 336.6422564 c 128,-1,71
 161.70016435 312.52324665 161.70016435 312.52324665 154.494135271 303.139938933 c 0,72,73
 151.100465311 296.02496384 151.100465311 296.02496384 141.948964894 292.102893827 c 0,74,75
 138.633121722 290.681818182 138.633121722 290.681818182 135.330578512 290.681818182 c 0,76,77
 127.152109326 290.681818182 127.152109326 290.681818182 121.430656096 298.832357184 c 0,78,79
 113.077574378 305.342860614 113.077574378 305.342860614 109.623144595 308.30379627 c 128,-1,80
 106.162947186 311.269679764 106.162947186 311.269679764 103.051500713 313.862551825 c 128,-1,81
 99.9400542396 316.455423885 99.9400542396 316.455423885 97.4400542396 318.955423885 c 2,82,-1
 88.6977390625 326.697739062 l 2,83,84
 78.5 336.895478125 78.5 336.895478125 78.5 343.977917374 c 128,-1,85
 78.5 351.060356624 78.5 351.060356624 87.5555663759 360.159745811 c 0,56,57
389.340277778 288.333333333 m 0,86,87
 378.552205923 288.333333333 378.552205923 288.333333333 368.955074644 299.529986492 c 1,88,89
 361.798326574 310.776304887 361.798326574 310.776304887 333.132308556 359.545613482 c 0,90,91
 291.101655732 431.052087689 291.101655732 431.052087689 273.344674321 466.538720895 c 0,92,93
 264.770013005 482.37453488 264.770013005 482.37453488 275.197739062 492.802260938 c 0,94,95
 280.525107755 498.12962963 280.525107755 498.12962963 286.990512275 498.12962963 c 128,-1,96
 293.455916796 498.12962963 293.455916796 498.12962963 299.641253278 493.643082066 c 0,97,98
 315.134774016 487.264005859 315.134774016 487.264005859 412.491754613 382.605794563 c 0,99,100
 432.057379193 361.57274814 432.057379193 361.57274814 438.925157555 355.836473571 c 128,-1,101
 445.792935917 350.100199002 445.792935917 350.100199002 447.833705261 340.576602696 c 0,102,103
 448.236842105 338.695297423 448.236842105 338.695297423 448.236842105 336.889196676 c 0,104,105
 448.236842105 327.227369281 448.236842105 327.227369281 438.051565762 322.565731989 c 0,106,107
 430.090950176 315.440390253 430.090950176 315.440390253 426.13577054 310.990812975 c 0,108,109
 420.506095825 304.657428653 420.506095825 304.657428653 413.152674288 299.755147629 c 2,110,-1
 404.352205386 293.88816836 l 2,111,112
 397.016975182 288.333333333 397.016975182 288.333333333 389.340277778 288.333333333 c 0,86,87
34.9993739406 551.115312032 m 0,113,114
 19.1666666667 557.182419186 19.1666666667 557.182419186 19.1666666667 570.052727101 c 0,115,116
 19.1666666667 576.105307933 19.1666666667 576.105307933 27.7874225014 593.346815337 c 0,117,118
 29.0503185243 595.872607383 29.0503185243 595.872607383 30.0234485194 598.791997369 c 128,-1,119
 30.9965785144 601.711387354 30.9965785144 601.711387354 35.2648852032 611.315077403 c 128,-1,120
 39.533191892 620.918767453 39.533191892 620.918767453 39.6854959686 621.948676649 c 0,121,122
 41.9300809977 637.515104532 41.9300809977 637.515104532 54.2243157657 637.515104532 c 0,123,124
 54.6072821573 637.515104532 54.6072821573 637.515104532 55 637.5 c 0,125,126
 65.4717459248 637.5 65.4717459248 637.5 73.4564173502 631.043290891 c 0,127,128
 82.3480237979 625.16919966 82.3480237979 625.16919966 107.505804335 611.357084345 c 0,129,130
 161.860007503 581.515559935 161.860007503 581.515559935 199.248451149 559.241593508 c 0,131,132
 237.461663081 536.476275761 237.461663081 536.476275761 242.645765171 530.935096375 c 0,133,134
 248.954545455 523.725061765 248.954545455 523.725061765 248.954545455 517.31872813 c 128,-1,135
 248.954545455 510.912394495 248.954545455 510.912394495 246.790212022 506.313185951 c 0,136,137
 241.803955718 495.717391304 241.803955718 495.717391304 228.623818526 495.717391304 c 0,138,139
 224.483376188 495.717391304 224.483376188 495.717391304 220.155059935 496.729010891 c 0,140,141
 157.89488669 512.501601942 157.89488669 512.501601942 128.889961352 521.15219371 c 128,-1,142
 99.8850360136 529.802785477 99.8850360136 529.802785477 73.745654278 537.342977616 c 128,-1,143
 47.6062725424 544.883169755 47.6062725424 544.883169755 34.9993739406 551.115312032 c 0,113,114
EndSplineSet
Validated: 1
EndChar

StartChar: plus
Encoding: 43 43 28
Width: 491
Flags: W
LayerCount: 2
Fore
SplineSet
393.12 216.1 m 2,0,-1
 281.5 215.501701691 l 1,1,-1
 281.5 43.8502614 l 1,2,3
 264.748693 40.5 264.748693 40.5 259 40.5 c 2,4,-1
 245 40.5 l 2,5,6
 236.809587806 40.5 236.809587806 40.5 225.467553283 41.0671017262 c 0,7,8
 214.125518759 41.6342034524 214.125518759 41.6342034524 206.203215615 48.2361227393 c 2,9,-1
 203.23539638 50.7093054347 l 1,10,11
 205.1 75.8814542981 205.1 75.8814542981 205.1 104.88 c 2,12,-1
 204.501810792 214.5 l 1,13,-1
 44.920224198 214.5 l 1,14,15
 29.4285714286 238.441645189 29.4285714286 238.441645189 29.4285714286 253.528900964 c 0,16,17
 29.4285714286 268.616156739 29.4285714286 268.616156739 44.7377409556 295.701610518 c 1,18,19
 71.1731723458 294.5 71.1731723458 294.5 91 294.5 c 2,20,-1
 203.5 294.5 l 1,21,-1
 203.5 454.079775802 l 1,22,23
 227.441645189 469.571428571 227.441645189 469.571428571 242.531707694 469.571428571 c 0,24,25
 257.621770198 469.571428571 257.621770198 469.571428571 283.697111132 454.163272565 c 1,26,27
 282.499610952 427.818268591 282.499610952 427.818268591 282.5 407 c 2,28,-1
 282.5 293.5 l 1,29,-1
 455.1497386 293.5 l 1,30,31
 458.5 276.748693 458.5 276.748693 458.5 270 c 2,32,-1
 458.5 256 l 2,33,34
 458.5 247.809587806 458.5 247.809587806 457.923312903 236.275845869 c 0,35,36
 457.346625806 224.742103931 457.346625806 224.742103931 449.302260937 216.697739062 c 2,37,-1
 446.871006277 214.266484402 l 1,38,39
 422.118545702 216.1 422.118545702 216.1 393.12 216.1 c 2,0,-1
EndSplineSet
Validated: 37
EndChar

StartChar: comma
Encoding: 44 44 29
Width: 264
Flags: W
LayerCount: 2
Fore
SplineSet
224.5 -9 m 0,0,1
 224.5 -46.7719703348 224.5 -46.7719703348 207.824979198 -80.122011938 c 0,2,3
 179.912119049 -135.947732236 179.912119049 -135.947732236 118.541837389 -175.317341614 c 0,4,5
 90.7923416982 -193.118904888 90.7923416982 -193.118904888 69.2727934193 -196.393693644 c 0,6,7
 68.4718142607 -196.775247121 68.4718142607 -196.775247121 67.7831906172 -196.775247121 c 128,-1,8
 67.0945669737 -196.775247121 67.0945669737 -196.775247121 66.5612244898 -196.642857143 c 0,9,10
 58.9169447044 -196.642857143 58.9169447044 -196.642857143 52.1315492753 -189.240607584 c 128,-1,11
 45.3461538462 -181.838358025 45.3461538462 -181.838358025 45.3461538462 -174.562130178 c 0,12,13
 45.3461538462 -163.189548793 45.3461538462 -163.189548793 67.0329462589 -149.635303535 c 0,14,15
 108.664446995 -123.615615575 108.664446995 -123.615615575 131.996434218 -92.5062992772 c 0,16,17
 145.5 -74.5015449013 145.5 -74.5015449013 145.5 -50 c 128,-1,18
 145.5 -25.6463754631 145.5 -25.6463754631 132.649317516 -17.9359659729 c 0,19,20
 125.95129859 -13.9171546171 125.95129859 -13.9171546171 116.262882268 -11.0106297206 c 0,21,22
 102.151250799 -6.77714027969 102.151250799 -6.77714027969 92.8131859512 -2.79021202221 c 0,23,24
 74.9179301095 5.63108484445 74.9179301095 5.63108484445 60.2089650548 18.0771321985 c 128,-1,25
 45.5 30.5231795525 45.5 30.5231795525 45.5 54 c 0,26,27
 45.5 71.1834676389 45.5 71.1834676389 53.5469803009 83.8287223976 c 128,-1,28
 61.5939606019 96.4739771562 61.5939606019 96.4739771562 73.293313243 103.716433553 c 0,29,30
 97.1744590419 118.5 97.1744590419 118.5 124.305973871 118.5 c 128,-1,31
 151.437488701 118.5 151.437488701 118.5 169.497660192 105.365329825 c 128,-1,32
 187.557831683 92.2306596493 187.557831683 92.2306596493 199.735599732 73.1698053113 c 128,-1,33
 211.913367782 54.1089509733 211.913367782 54.1089509733 218.212570023 32.0617431277 c 128,-1,34
 224.5 10.055738209 224.5 10.055738209 224.5 -9 c 0,0,1
EndSplineSet
Validated: 1
EndChar

StartChar: hyphen
Encoding: 45 45 30
Width: 386
Flags: W
LayerCount: 2
Fore
SplineSet
39.8333333333 233.888888889 m 2,0,-1
 40.5 278 l 2,1,2
 40.5 290.031958938 40.5 290.031958938 63.0107741035 291.484266945 c 0,3,4
 78.7546364581 292.5 78.7546364581 292.5 93 292.5 c 2,5,-1
 111 292.5 l 1,6,-1
 256.71875 291.25 l 2,7,8
 300.303483074 291.25 300.303483074 291.25 343.607028969 293.489860848 c 2,9,-1
 343.80305257 293.5 l 2,10,11
 357.5 293.5 357.5 293.5 357.5 267 c 2,12,-1
 357.5 226 l 2,13,14
 357.5 214.494464616 357.5 214.494464616 340.568245421 212.075642534 c 0,15,16
 329.538747685 210.5 329.538747685 210.5 316 210.5 c 2,17,-1
 85 210.5 l 2,18,19
 53.185360723 210.5 53.185360723 210.5 45.7323352886 214.673694243 c 0,20,21
 40.9152571127 217.371258022 40.9152571127 217.371258022 40.52861072 222.267829283 c 0,22,23
 40 227 40 227 39.8333333333 233.888888889 c 2,0,-1
EndSplineSet
Validated: 33
EndChar

StartChar: period
Encoding: 46 46 31
Width: 257
Flags: W
LayerCount: 2
Fore
SplineSet
70.8440349571 97.4446563748 m 0,0,1
 92.0135643393 117.5 92.0135643393 117.5 123.352649628 117.5 c 0,2,3
 154.691734917 117.5 154.691734917 117.5 171.595867459 95.5246276961 c 0,4,5
 188.5 73.5492553922 188.5 73.5492553922 188.5 43.6230542752 c 0,6,7
 188.5 13.6968531582 188.5 13.6968531582 168.704845929 -4.40157342092 c 0,8,9
 148.909691858 -22.5 148.909691858 -22.5 119.497205378 -22.5 c 0,10,11
 90.0847188983 -22.5 90.0847188983 -22.5 69.7923594492 -3.89867050493 c 0,12,13
 49.5 14.7026589901 49.5 14.7026589901 49.5 46 c 0,14,15
 49.5 77.2239916786 49.5 77.2239916786 70.8440349571 97.4446563748 c 0,0,1
EndSplineSet
Validated: 1
EndChar

StartChar: slash
Encoding: 47 47 32
Width: 387
Flags: W
LayerCount: 2
Fore
SplineSet
77 -38.5 m 1,0,-1
 48.8888888889 -39.8333333333 l 2,1,2
 37.0411357908 -39.8333333333 37.0411357908 -39.8333333333 9.58680223902 -37.7214615217 c 1,3,4
 83.9687830069 167.614710739 83.9687830069 167.614710739 156.949303906 358.06391633 c 0,5,6
 229.930875705 548.515864338 229.930875705 548.515864338 296.100935547 749.062045704 c 1,7,8
 310.894116533 753.5 310.894116533 753.5 325.073803484 753.5 c 0,9,10
 349.748693 753.5 349.748693 753.5 360.476658221 751.354406956 c 2,11,-1
 368.405201719 749.768698256 l 1,12,13
 352.124531861 691.623448763 352.124531861 691.623448763 333.567536193 643.977108536 c 0,14,15
 315.010540526 596.330768309 315.010540526 596.330768309 297.016179296 547.346118294 c 0,16,17
 259.38985919 448.04078551 259.38985919 448.04078551 196.231966539 281.769385581 c 0,18,19
 133.072515976 115.493884243 133.072515976 115.493884243 82.4302318962 -38.5 c 1,20,-1
 77 -38.5 l 1,0,-1
EndSplineSet
Validated: 33
EndChar

StartChar: zero
Encoding: 48 48 33
Width: 621
Flags: W
LayerCount: 2
Fore
SplineSet
157.8828125 330.815429688 m 132,-1,1
 157.8828125 282.447265625 157.8828125 282.447265625 165.874023438 237.841796875 c 132,-1,2
 173.865234375 193.235351562 173.865234375 193.235351562 193.422851562 156.491210938 c 132,-1,3
 213.0703125 119.745117188 213.0703125 119.745117188 243.365234375 97.404296875 c 4,4,5
 275.595703125 73.6337890625 275.595703125 73.6337890625 321.703125 73.6337890625 c 4,6,7
 359.344726562 73.6337890625 359.344726562 73.6337890625 387.618164062 94.55078125 c 132,-1,8
 415.892578125 115.467773438 415.892578125 115.467773438 435.561523438 151.560546875 c 132,-1,9
 455.231445312 187.653320312 455.231445312 187.653320312 465.182617188 233.36328125 c 132,-1,10
 475.11328125 279.073242188 475.11328125 279.073242188 476.115234375 327.006835938 c 4,11,12
 476.108398438 376.427734375 476.108398438 376.427734375 467.155273438 426.448242188 c 4,13,14
 447.57421875 533.44140625 447.57421875 533.44140625 387.19921875 580.447265625 c 4,15,16
 356.346679688 604.46875 356.346679688 604.46875 312.337890625 604.46875 c 6,17,18
 312.185546875 597.159179688 312.185546875 597.159179688 312.032226562 604.474609375 c 6,19,20
 309.932617188 604.548828125 309.932617188 604.548828125 307.872070312 604.547851562 c 4,21,22
 272.142578125 604.547851562 272.142578125 604.547851562 244.29296875 581.618164062 c 132,-1,23
 216.443359375 558.6875 216.443359375 558.6875 197.240234375 520.41015625 c 132,-1,24
 178.036132812 482.133789062 178.036132812 482.133789062 168.44140625 433.4921875 c 4,25,0
 157.8828125 379.182617188 157.8828125 379.182617188 157.8828125 330.815429688 c 132,-1,1
501.693359375 602.012695312 m 132,-1,27
 536.831054688 554.825195312 536.831054688 554.825195312 557.383789062 488.841796875 c 132,-1,28
 577.89453125 422.994140625 577.89453125 422.994140625 577.89453125 347.791992188 c 132,-1,29
 577.89453125 272.58984375 577.89453125 272.58984375 559.474609375 204.696289062 c 132,-1,30
 541.016601562 136.658203125 541.016601562 136.658203125 507.984375 85.107421875 c 132,-1,31
 474.952148438 33.5556640625 474.952148438 33.5556640625 426.331054688 2.966796875 c 4,32,33
 376.624023438 -27.623046875 376.624023438 -27.623046875 317.298828125 -27.623046875 c 132,-1,34
 257.973632812 -27.623046875 257.973632812 -27.623046875 207.741210938 -1.525390625 c 4,35,36
 158.46484375 24.5732421875 158.46484375 24.5732421875 124.296875 72.5888671875 c 132,-1,37
 90.126953125 120.604492188 90.126953125 120.604492188 71.6533203125 185.76953125 c 132,-1,38
 53.181640625 250.935546875 53.181640625 250.935546875 53.181640625 328.973632812 c 132,-1,39
 53.181640625 407.012695312 53.181640625 407.012695312 71.62890625 475.013671875 c 132,-1,40
 90.0771484375 543.015625 90.0771484375 543.015625 123.631835938 593.103515625 c 132,-1,41
 157.186523438 643.190429688 157.186523438 643.190429688 205.293945312 673.767578125 c 4,42,43
 254.428710938 704.34375 254.428710938 704.34375 311.703125 704.34375 c 132,-1,44
 368.978515625 704.34375 368.978515625 704.34375 418.07421875 676.772460938 c 4,45,26
 466.5546875 649.201171875 466.5546875 649.201171875 501.693359375 602.012695312 c 132,-1,27
EndSplineSet
Validated: 1
EndChar

StartChar: one
Encoding: 49 49 34
Width: 387
Flags: W
LayerCount: 2
Fore
SplineSet
146.03515625 691.334960938 m 0,0,1
 167.883789062 702.217773438 167.883789062 702.217773438 208.733398438 702.217773438 c 2,2,3
 222.616210938 694.458984375 222.616210938 694.458984375 236.5 701.700195312 c 1,4,-1
 237.693359375 701.700195312 l 1,5,6
 238.254882812 694.017578125 238.254882812 694.017578125 238.817382812 701.334960938 c 1,7,8
 244.817382812 691.884765625 244.817382812 691.884765625 250.817382812 697.434570312 c 1,9,10
 252.743164062 689.30859375 252.743164062 689.30859375 254.66796875 696.182617188 c 1,11,12
 258 684.255859375 258 684.255859375 258 670.6796875 c 128,-1,13
 258 657.103515625 258 657.103515625 255.958984375 638.10546875 c 2,14,15
 255.948242188 631.903320312 255.948242188 631.903320312 255.938476562 637.939453125 c 2,16,17
 253.720703125 621 253.720703125 621 250.446289062 615.405273438 c 0,18,19
 242.904296875 603.026367188 242.904296875 603.026367188 242.904296875 587.59375 c 0,20,21
 242.904296875 585.946289062 242.904296875 585.946289062 242.990234375 584.251953125 c 2,22,23
 242.997070312 579.13671875 242.997070312 579.13671875 243.00390625 583.994140625 c 1,24,25
 242.501953125 554.596679688 242.501953125 554.596679688 242 534.119140625 c 2,26,27
 242 446.961914062 242 446.961914062 240.499023438 360.155273438 c 128,-1,28
 239 273.2421875 239 273.2421875 239 186.370117188 c 2,29,30
 239 178.774414062 239 178.774414062 239 163.95703125 c 2,31,32
 239.990234375 143.084960938 239.990234375 143.084960938 242.833984375 120.919921875 c 128,-1,33
 245.678710938 98.755859375 245.678710938 98.755859375 255.487304688 86.90234375 c 0,34,35
 262.88671875 76.642578125 262.88671875 76.642578125 277.697265625 72.5625 c 128,-1,36
 292.5078125 68.4833984375 292.5078125 68.4833984375 307.28515625 64.5908203125 c 128,-1,37
 322.0625 60.6982421875 322.0625 60.6982421875 334.200195312 55.2373046875 c 0,38,39
 350 47.9208984375 350 47.9208984375 350 29.7744140625 c 0,40,41
 350 0.75 350 0.75 328.719726562 -2.3173828125 c 0,42,43
 308.322265625 -4.787109375 308.322265625 -4.787109375 305.09375 -4.787109375 c 0,44,45
 299.629882812 -4.787109375 299.629882812 -4.787109375 297.4453125 -4.7236328125 c 128,-1,46
 295.092773438 -4.7587890625 295.092773438 -4.7587890625 292.743164062 -4.7587890625 c 0,47,48
 265.497070312 -4.7587890625 265.497070312 -4.7587890625 238.39453125 -0.1259765625 c 128,-1,49
 211.291992188 4.5078125 211.291992188 4.5078125 183.333984375 4.5078125 c 0,50,51
 182.848632812 4.5078125 182.848632812 4.5078125 182.359375 4.5087890625 c 0,52,53
 157.12109375 4.5556640625 157.12109375 4.5556640625 136.803710938 -0.6572265625 c 0,54,55
 123.954101562 -3.833984375 123.954101562 -3.833984375 113.0625 -4.6025390625 c 128,-1,56
 102.169921875 -5.3701171875 102.169921875 -5.3701171875 95 -5.78515625 c 1,57,58
 95 1.4775390625 95 1.4775390625 95 -6.259765625 c 1,59,-1
 87.5 -6.259765625 l 1,60,-1
 73.416015625 -6.259765625 l 2,61,62
 61.60546875 -6.130859375 61.60546875 -6.130859375 49.91796875 0.0341796875 c 0,63,64
 36 7.462890625 36 7.462890625 36 29.8271484375 c 0,65,66
 36 47.3642578125 36 47.3642578125 49.4912109375 55.609375 c 0,67,68
 60.4443359375 62.5302734375 60.4443359375 62.5302734375 75.4833984375 66.267578125 c 0,69,70
 89.2763671875 70.3876953125 89.2763671875 70.3876953125 104.544921875 75.1689453125 c 0,71,72
 117.06640625 79.7734375 117.06640625 79.7734375 126.7578125 91.7724609375 c 0,73,74
 135.205078125 101.606445312 135.205078125 101.606445312 137.602539062 132.271484375 c 128,-1,75
 140 162.936523438 140 162.936523438 140 192.463867188 c 2,76,77
 140 211.295898438 140 211.295898438 140 224.153320312 c 2,78,79
 141 333.858398438 141 333.858398438 141 334.016601562 c 2,80,81
 141.5 410.306640625 141.5 410.306640625 142 489.124023438 c 1,82,83
 142 500.982421875 142 500.982421875 142 519.243164062 c 2,84,85
 142 562.880859375 142 562.880859375 140.069335938 571.930664062 c 0,86,87
 135.118164062 579.455078125 135.118164062 579.455078125 125.990234375 580.125 c 0,88,89
 125.934570312 580.12890625 125.934570312 580.12890625 97.244140625 582.017578125 c 2,90,-1
 79.5 582.017578125 l 2,91,92
 65.80859375 582.017578125 65.80859375 582.017578125 50.314453125 589.393554688 c 0,93,94
 31.908203125 597.62890625 31.908203125 597.62890625 37.587890625 636.686523438 c 0,95,96
 40.044921875 652.264648438 40.044921875 652.264648438 42.662109375 655.228515625 c 128,-1,97
 45.2802734375 658.192382812 45.2802734375 658.192382812 48.15625 658.649414062 c 0,98,99
 67.701171875 663.311523438 67.701171875 663.311523438 71.7314453125 663.8828125 c 0,100,101
 107.0546875 670.869140625 107.0546875 670.869140625 146.03515625 691.334960938 c 0,0,1
EndSplineSet
Validated: 37
EndChar

StartChar: two
Encoding: 50 50 35
Width: 496
Flags: W
LayerCount: 2
Fore
SplineSet
207.28791318 158.073242188 m 0,0,1
 170.548100567 104.630859375 170.548100567 104.630859375 153.475585938 83.3134765625 c 1,2,3
 175.778490977 75.0107421875 175.778490977 75.0107421875 227.461822334 75.0107421875 c 0,4,5
 283.874638115 75.0107421875 283.874638115 75.0107421875 325.382059074 86.6513671875 c 0,6,7
 353.57575899 94.5576171875 353.57575899 94.5576171875 360.705991554 106.551757812 c 0,8,9
 384.54296875 151.826171875 384.54296875 151.826171875 400.115234375 185.616210938 c 128,-1,10
 415.686523438 219.405273438 415.686523438 219.405273438 424.213867188 237.099609375 c 0,11,12
 427.258789062 243.418945312 427.258789062 243.418945312 434.747070312 259.215820312 c 0,13,14
 442.477539062 274.840820312 442.477539062 274.840820312 454.869140625 274.840820312 c 0,15,16
 459.981445312 274.840820312 459.981445312 274.840820312 465.168945312 271.98046875 c 0,17,18
 479.829101562 263.900390625 479.829101562 263.900390625 484.692382812 247.815429688 c 2,19,20
 485.07421875 248.719726562 485.07421875 248.719726562 485.456054688 245.291015625 c 1,21,22
 458.712890625 183.3046875 458.712890625 183.3046875 449.317382812 136.057617188 c 0,23,24
 435.469726562 66.4248046875 435.469726562 66.4248046875 431.986328125 10.0947265625 c 0,25,26
 430.642578125 -11.625 430.642578125 -11.625 416.78515625 -11.625 c 0,27,28
 415.634765625 -11.625 415.634765625 -11.625 414.461914062 -11.4326171875 c 0,29,30
 385.077148438 -8.3701171875 385.077148438 -8.3701171875 341.135711178 1.328125 c 0,31,32
 295.293811994 11.0263671875 295.293811994 11.0263671875 225.666820968 14 c 0,33,34
 196.671459675 14 196.671459675 14 162.06640625 13.2607421875 c 0,35,36
 129.546875 12.521484375 129.546875 12.521484375 103.077148438 12.5009765625 c 0,37,38
 100.67578125 9.7158203125 100.67578125 9.7158203125 97.47265625 3.431640625 c 0,39,40
 90.333984375 -10.5712890625 90.333984375 -10.5712890625 82.1142578125 -10.5712890625 c 0,41,42
 80.3955078125 -10.5712890625 80.3955078125 -10.5712890625 78.705078125 -9.95703125 c 0,43,44
 66.630859375 -9.390625 66.630859375 -9.390625 59.3154296875 -1.595703125 c 128,-1,45
 52 6.19921875 52 6.19921875 52 28.091796875 c 0,46,47
 52 37.5576171875 52 37.5576171875 58.158203125 46.6552734375 c 0,48,49
 111.952148438 133.638671875 111.952148438 133.638671875 169.180664062 255.293945312 c 0,50,51
 221.889375616 358.732421875 221.889375616 358.732421875 250.5437396 449.02734375 c 0,52,53
 273.643659829 528.528320312 273.643659829 528.528320312 251.444946775 573.513671875 c 128,-1,54
 229.246233721 618.5 229.246233721 618.5 178.143233189 618.5 c 0,55,56
 147.998046875 618.5 147.998046875 618.5 131.611328125 606.208984375 c 128,-1,57
 115.223632812 593.918945312 115.223632812 593.918945312 105.786132812 577.639648438 c 128,-1,58
 96.349609375 561.361328125 96.349609375 561.361328125 90.58984375 544.8671875 c 0,59,60
 81.58203125 519.071289062 81.58203125 519.071289062 67.357421875 519.071289062 c 0,61,62
 60.82421875 519.071289062 60.82421875 519.071289062 55.197265625 524.697265625 c 0,63,64
 47 532.895507812 47 532.895507812 47 546.5 c 0,65,66
 47 553.577148438 47 553.577148438 50.7568359375 566.458984375 c 128,-1,67
 54.5146484375 579.340820312 54.5146484375 579.340820312 60.6328125 590.8125 c 128,-1,68
 66.751953125 602.28515625 66.751953125 602.28515625 71.78125 613.6015625 c 128,-1,69
 76.8115234375 624.918945312 76.8115234375 624.918945312 80.119140625 629.947265625 c 0,70,71
 100.5625 665.176757812 100.5625 665.176757812 118.860351562 683.212890625 c 0,72,73
 151.4453125 715.33203125 151.4453125 715.33203125 189.254238693 718.962890625 c 0,74,75
 205.927100935 720.5 205.927100935 720.5 222.604199169 720.5 c 0,76,77
 307.967898333 720.5 307.967898333 720.5 346.514361288 647.975585938 c 0,78,79
 369.091796875 604.462890625 369.091796875 604.462890625 369.091796875 543.8359375 c 0,80,81
 369.091796875 506.235351562 369.091796875 506.235351562 360.746233472 462.001953125 c 0,82,83
 350.536435144 406.727539062 350.536435144 406.727539062 300.438423578 311.659179688 c 0,84,85
 259.619351224 234.197265625 259.619351224 234.197265625 207.28791318 158.073242188 c 0,0,1
EndSplineSet
Validated: 33
EndChar

StartChar: three
Encoding: 51 51 36
Width: 446
Flags: W
LayerCount: 2
Fore
SplineSet
41.7236328125 585.400390625 m 4,0,1
 34.2509765625 592.125976562 34.2509765625 592.125976562 34.2509765625 602.375 c 4,2,3
 34.2509765625 617.276367188 34.2509765625 617.276367188 47.927734375 634.635742188 c 132,-1,4
 61.60546875 651.99609375 61.60546875 651.99609375 82.998046875 667.126953125 c 132,-1,5
 104.221679688 682.138671875 104.221679688 682.138671875 130.297851562 692.569335938 c 132,-1,6
 156.375 703 156.375 703 185 703 c 132,-1,7
 213.731445312 703 213.731445312 703 241.29296875 696.69140625 c 132,-1,8
 268.85546875 690.506835938 268.85546875 690.506835938 289.841796875 675.8984375 c 4,9,10
 333.322265625 643.637695312 333.322265625 643.637695312 333.322265625 582.770507812 c 4,11,12
 333.322265625 559.375976562 333.322265625 559.375976562 318.733398438 532.299804688 c 4,13,14
 290.884765625 480.618164062 290.884765625 480.618164062 236.266601562 433.3828125 c 4,15,16
 224.908203125 423.838867188 224.908203125 423.838867188 215.177734375 416.61328125 c 5,17,18
 252.321289062 416.537109375 252.321289062 416.537109375 283.576171875 407.91015625 c 4,19,20
 321.744140625 396.119140625 321.744140625 396.119140625 348.014648438 371.392578125 c 132,-1,21
 374.1953125 346.750976562 374.1953125 346.750976562 388.295898438 311.931640625 c 132,-1,22
 402.322265625 277.295898438 402.322265625 277.295898438 402.322265625 237.6484375 c 4,23,24
 402.322265625 178.7890625 402.322265625 178.7890625 370.48828125 125.426757812 c 132,-1,25
 338.655273438 72.0654296875 338.655273438 72.0654296875 290.678710938 32.0322265625 c 4,26,27
 237.657226562 -7.935546875 237.657226562 -7.935546875 171.895507812 -31.4638671875 c 4,28,29
 112.389648438 -54.9921875 112.389648438 -54.9921875 56.9638671875 -55.9990234375 c 5,30,-1
 56.822265625 -55.9990234375 l 6,31,32
 46.9638671875 -55.9990234375 46.9638671875 -55.9990234375 42.8515625 -50.2421875 c 132,-1,33
 38.7392578125 -44.5986328125 38.7392578125 -44.5986328125 38.7392578125 -38.3642578125 c 4,34,35
 38.7392578125 -30.3154296875 38.7392578125 -30.3154296875 43.125 -24.2958984375 c 132,-1,36
 47.5107421875 -18.2763671875 47.5107421875 -18.2763671875 54.6171875 -17.7041015625 c 4,37,38
 100.521484375 -5.1826171875 100.521484375 -5.1826171875 142.538085938 14.9326171875 c 4,39,40
 240.09375 56.7646484375 240.09375 56.7646484375 281.127929688 126.819335938 c 4,41,42
 299.322265625 162.021484375 299.322265625 162.021484375 299.322265625 206.336914062 c 4,43,44
 299.322265625 255.37109375 299.322265625 255.37109375 272.109375 295.495117188 c 4,45,46
 257.59765625 314.979492188 257.59765625 314.979492188 236.11328125 328.423828125 c 4,47,48
 214.852539062 341.948242188 214.852539062 341.948242188 189.760742188 346.256835938 c 4,49,50
 152.291015625 352.807617188 152.291015625 352.807617188 135.25 352.807617188 c 4,51,52
 119.5390625 352.807617188 119.5390625 352.807617188 100.771484375 344.102539062 c 4,53,54
 94.52734375 341.426757812 94.52734375 341.426757812 81.3837890625 331.963867188 c 132,-1,55
 68.240234375 322.5 68.240234375 322.5 59.822265625 322.5 c 4,56,57
 47.4755859375 322.5 47.4755859375 322.5 41.5400390625 331.198242188 c 4,58,59
 37.322265625 337.379882812 37.322265625 337.379882812 37.322265625 347.413085938 c 4,60,61
 37.322265625 360.883789062 37.322265625 360.883789062 55.6708984375 369.20703125 c 4,62,63
 69.501953125 375.48046875 69.501953125 375.48046875 75.41796875 378.368164062 c 4,64,65
 97.8330078125 389.801757812 97.8330078125 389.801757812 124.29296875 409.4296875 c 132,-1,66
 150.822265625 429.108398438 150.822265625 429.108398438 176.693359375 452.997070312 c 4,67,68
 203.447265625 476.884765625 203.447265625 476.884765625 220.860351562 503.005859375 c 132,-1,69
 238.2734375 529.125976562 238.2734375 529.125976562 238.2734375 554.536132812 c 4,70,71
 238.2734375 599.2421875 238.2734375 599.2421875 212.361328125 620.12109375 c 132,-1,72
 186.448242188 641 186.448242188 641 153.18359375 641 c 4,73,74
 123.514648438 641 123.514648438 641 104.75 625.51953125 c 132,-1,75
 85.986328125 610.0390625 85.986328125 610.0390625 62.2314453125 584.3046875 c 4,76,77
 58.044921875 580.1171875 58.044921875 580.1171875 52.8359375 580.1171875 c 132,-1,78
 47.59375 580.1171875 47.59375 580.1171875 41.7236328125 585.400390625 c 4,0,1
EndSplineSet
Validated: 1
EndChar

StartChar: four
Encoding: 52 52 37
Width: 621
Flags: W
LayerCount: 2
Fore
SplineSet
342.379882812 325 m 6,0,-1
 342.379882812 383 l 5,1,-1
 341.3359375 539 l 5,2,-1
 341.3359375 593.62890625 l 5,3,4
 305.41015625 548.376953125 305.41015625 548.376953125 255.263671875 488.453125 c 132,-1,5
 205.118164062 428.529296875 205.118164062 428.529296875 147.866210938 350.764648438 c 4,6,7
 141.359375 341.431640625 141.359375 341.431640625 131.086914062 329.342773438 c 132,-1,8
 120.858398438 317.254882812 120.858398438 317.254882812 120.858398438 309 c 4,9,10
 120.858398438 306.079101562 120.858398438 306.079101562 123.639648438 304.966796875 c 4,11,12
 129.805664062 302.5 129.805664062 302.5 137.010742188 302.5 c 132,-1,13
 144.38671875 302.5 144.38671875 302.5 172.024414062 303.499023438 c 132,-1,14
 199.6640625 304.498046875 199.6640625 304.498046875 231.05859375 304.999023438 c 132,-1,15
 262.283203125 305.497070312 262.283203125 305.497070312 287.89453125 306.499023438 c 132,-1,16
 313.506835938 307.5 313.506835938 307.5 324.552734375 307.5 c 132,-1,17
 335.599609375 307.5 335.599609375 307.5 339.176757812 310.436523438 c 4,18,19
 342.379882812 314.498046875 342.379882812 314.498046875 342.379882812 325 c 6,0,-1
455.841796875 304.5 m 6,20,-1
 506.358398438 304.5 l 5,21,-1
 576.358398438 305.5 l 6,22,23
 593.356445312 305.5 593.356445312 305.5 606.028320312 293.430664062 c 132,-1,24
 618.858398438 281.211914062 618.858398438 281.211914062 618.858398438 264 c 4,25,26
 618.858398438 251.592773438 618.858398438 251.592773438 612.872070312 244.110351562 c 4,27,28
 605.18359375 234.5 605.18359375 234.5 591.119140625 234.5 c 132,-1,29
 577.0546875 234.5 577.0546875 234.5 564.5546875 235.5 c 132,-1,30
 552.0546875 236.5 552.0546875 236.5 539.358398438 236.5 c 6,31,-1
 519.358398438 236.5 l 5,32,-1
 477.647460938 237.125 l 6,33,34
 453.426757812 237.125 453.426757812 237.125 446.048828125 231.388671875 c 4,35,36
 442.607421875 228.712890625 442.607421875 228.712890625 442.607421875 221.41796875 c 6,37,38
 442.607421875 125.0390625 442.607421875 125.0390625 442.607421875 22.7001953125 c 6,39,40
 442.607421875 14.447265625 442.607421875 14.447265625 441.981445312 9.771484375 c 132,-1,41
 441.354492188 5.095703125 441.354492188 5.095703125 441.354492188 2.29296875 c 132,-1,42
 441.354492188 -0.5107421875 441.354492188 -0.5107421875 444.9296875 -7.1826171875 c 5,43,44
 444.782226562 -1.9287109375 444.782226562 -1.9287109375 444.633789062 -9.384765625 c 6,45,46
 442.002929688 -29.029296875 442.002929688 -29.029296875 421.811523438 -37.537109375 c 4,47,48
 404.100585938 -45 404.100585938 -45 385.780273438 -45 c 132,-1,49
 367.459960938 -45 367.459960938 -45 354.55859375 -39.9453125 c 4,50,51
 338.204101562 -33.705078125 338.204101562 -33.705078125 338.204101562 -22.958984375 c 6,52,53
 338.23046875 -15.68359375 338.23046875 -15.68359375 338.2578125 -22.09765625 c 6,54,55
 341.3359375 2.302734375 341.3359375 2.302734375 341.3359375 75.384765625 c 6,56,57
 341.3359375 123.741210938 341.3359375 123.741210938 341.3359375 165.939453125 c 5,58,59
 341.858398438 184.419921875 341.858398438 184.419921875 342.379882812 200.018554688 c 6,60,61
 342.379882812 218.907226562 342.379882812 218.907226562 336.231445312 226.170898438 c 132,-1,62
 329.973632812 233.563476562 329.973632812 233.563476562 322.118164062 235.657226562 c 132,-1,63
 314.263671875 237.75 314.263671875 237.75 305.67578125 237.75 c 6,64,-1
 273.99609375 236.5 l 6,65,66
 213.717773438 236.5 213.717773438 236.5 154.729492188 232.5 c 4,67,68
 97.6220703125 228.5 97.6220703125 228.5 39.3583984375 228.5 c 4,69,70
 26.841796875 228.5 26.841796875 228.5 20.2255859375 240.806640625 c 4,71,72
 17.4296875 246.005859375 17.4296875 246.005859375 17.4296875 252.331054688 c 132,-1,73
 17.4296875 258.657226562 17.4296875 258.657226562 22.11328125 265.57421875 c 4,74,75
 47.9052734375 303.66796875 47.9052734375 303.66796875 96.810546875 369.240234375 c 6,76,77
 121.057617188 399.069335938 121.057617188 399.069335938 145.524414062 434.21875 c 6,78,79
 222.701171875 533.54296875 222.701171875 533.54296875 242.112304688 557.798828125 c 132,-1,80
 261.522460938 582.055664062 261.522460938 582.055664062 275.171875 597.90234375 c 4,81,82
 296.576171875 623.862304688 296.576171875 623.862304688 307.182617188 643.870117188 c 4,83,84
 321.03515625 669.99609375 321.03515625 669.99609375 337.52734375 693.049804688 c 4,85,86
 346.434570312 705.051757812 346.434570312 705.051757812 362.91015625 709.491210938 c 132,-1,87
 379.384765625 714 379.384765625 714 396 714 c 132,-1,88
 412.61328125 714 412.61328125 714 425.5703125 707.794921875 c 132,-1,89
 438.526367188 701.704101562 438.526367188 701.704101562 438.526367188 690.255859375 c 4,90,91
 438.526367188 685.32421875 438.526367188 685.32421875 439.5234375 675.484375 c 132,-1,92
 440.51953125 665.64453125 440.51953125 665.64453125 440.51953125 629.947265625 c 6,93,94
 440.51953125 467.8671875 440.51953125 467.8671875 440.51953125 311.86328125 c 6,95,96
 440.51953125 305.184570312 440.51953125 305.184570312 455.841796875 304.5 c 6,20,-1
EndSplineSet
Validated: 5
EndChar

StartChar: five
Encoding: 53 53 38
Width: 528
Flags: W
LayerCount: 2
Fore
SplineSet
147.182617188 709.359375 m 4,0,1
 154.094726562 709.853515625 154.094726562 709.853515625 165.817382812 710.016601562 c 6,2,3
 216.455078125 703.91796875 216.455078125 703.91796875 267.181640625 708.627929688 c 6,4,5
 328.733398438 708.627929688 328.733398438 708.627929688 381 712 c 5,6,7
 406.013671875 750.013671875 406.013671875 750.013671875 431.02734375 800.668945312 c 6,8,9
 436.564453125 809.275390625 436.564453125 809.275390625 446.064453125 809.275390625 c 4,10,11
 450.291992188 809.275390625 450.291992188 809.275390625 467.803710938 802.270507812 c 5,12,13
 473.344726562 796.838867188 473.344726562 796.838867188 473.344726562 788.004882812 c 4,14,15
 473.344726562 778.217773438 473.344726562 778.217773438 469.091796875 762.13671875 c 132,-1,16
 464.838867188 746.056640625 464.838867188 746.056640625 459.872070312 728.526367188 c 132,-1,17
 454.904296875 710.99609375 454.904296875 710.99609375 450.890625 690.3359375 c 5,18,19
 447.71875 679.971679688 447.71875 679.971679688 443.536132812 668.696289062 c 132,-1,20
 439.354492188 657.421875 439.354492188 657.421875 432.1015625 646.484375 c 132,-1,21
 424.848632812 635.545898438 424.848632812 635.545898438 412.178710938 628.770507812 c 132,-1,22
 399.5078125 621.995117188 399.5078125 621.995117188 381.594726562 621.995117188 c 6,23,-1
 270.948242188 621.995117188 l 6,24,25
 236.752929688 621.995117188 236.752929688 621.995117188 210.41796875 620.583984375 c 132,-1,26
 184.083007812 619.172851562 184.083007812 619.172851562 180.39453125 617.15625 c 6,27,28
 179.440429688 612.9375 179.440429688 612.9375 178.486328125 616.11328125 c 5,29,30
 177.4140625 612.399414062 177.4140625 612.399414062 176.341796875 616.05859375 c 5,31,32
 171.997070312 613.8359375 171.997070312 613.8359375 164.6640625 597.337890625 c 4,33,34
 155.557617188 575.80859375 155.557617188 575.80859375 135.828125 505.350585938 c 4,35,36
 133.107421875 495.634765625 133.107421875 495.634765625 130.653320312 488.438476562 c 5,37,38
 137.603515625 492.288085938 137.603515625 492.288085938 145.143554688 496.8828125 c 4,39,40
 187.860351562 522.013671875 187.860351562 522.013671875 250.501953125 533.620117188 c 4,41,42
 267.169921875 536.708007812 267.169921875 536.708007812 285.87890625 536.708007812 c 132,-1,43
 304.424804688 536.708007812 304.424804688 536.708007812 324.92578125 533.6796875 c 4,44,45
 375.0078125 526.583007812 375.0078125 526.583007812 409.61328125 505.173828125 c 4,46,47
 478.723632812 462.060546875 478.723632812 462.060546875 496.426757812 381.41015625 c 4,48,49
 501.946289062 356.265625 501.946289062 356.265625 501.946289062 334.911132812 c 132,-1,50
 501.946289062 313.556640625 501.946289062 313.556640625 500.044921875 297.147460938 c 4,51,52
 491.83203125 227.7109375 491.83203125 227.7109375 451.946289062 170.564453125 c 132,-1,53
 412.061523438 113.41796875 412.061523438 113.41796875 353.263671875 72.52734375 c 4,54,55
 329.028320312 55.96875 329.028320312 55.96875 317.220703125 55.375 c 4,56,57
 303.596679688 55.375 303.596679688 55.375 287.30078125 74.734375 c 4,58,59
 281.661132812 80.84375 281.661132812 80.84375 288.65625 89.6015625 c 4,60,61
 291.93359375 93.703125 291.93359375 93.703125 302.173828125 102.31640625 c 132,-1,62
 312.415039062 110.928710938 312.415039062 110.928710938 331.877929688 132.497070312 c 132,-1,63
 351.340820312 154.065429688 351.340820312 154.065429688 370.205078125 187.009765625 c 4,64,65
 388.36328125 219.954101562 388.36328125 219.954101562 396.171875 266.758789062 c 4,66,67
 399.881835938 306.776367188 399.881835938 306.776367188 399.911132812 316.763671875 c 132,-1,68
 399.940429688 326.75 399.940429688 326.75 399.603515625 333.467773438 c 4,69,70
 398.181640625 361.833007812 398.181640625 361.833007812 387.381835938 383.009765625 c 132,-1,71
 376.440429688 404.102539062 376.440429688 404.102539062 353.92578125 420.419921875 c 132,-1,72
 331.412109375 436.73828125 331.412109375 436.73828125 293.783203125 451.03515625 c 4,73,74
 281.451171875 455.318359375 281.451171875 455.318359375 258.489257812 453.922851562 c 132,-1,75
 235.52734375 452.528320312 235.52734375 452.528320312 209.768554688 447.259765625 c 132,-1,76
 184.029296875 441.995117188 184.029296875 441.995117188 160.875976562 433.387695312 c 4,77,78
 138.970703125 424.795898438 138.970703125 424.795898438 125.900390625 416.91015625 c 5,79,80
 119.556640625 414.577148438 119.556640625 414.577148438 115.598632812 408.541015625 c 132,-1,81
 111.641601562 402.504882812 111.641601562 402.504882812 105.21484375 395.05859375 c 132,-1,82
 98.7880859375 387.611328125 98.7880859375 387.611328125 87.005859375 384.571289062 c 4,83,84
 83.2763671875 383.609375 83.2763671875 383.609375 76.505859375 383.609375 c 132,-1,85
 69.7353515625 383.609375 69.7353515625 383.609375 56.8330078125 388.668945312 c 5,86,87
 44.0947265625 398.383789062 44.0947265625 398.383789062 44.0947265625 412.764648438 c 4,88,89
 44.0947265625 431.506835938 44.0947265625 431.506835938 53.9580078125 447.28515625 c 132,-1,90
 63.8212890625 463.063476562 63.8212890625 463.063476562 66.5546875 470.2109375 c 4,91,92
 88.7314453125 529.23046875 88.7314453125 529.23046875 100.036132812 568.026367188 c 4,93,94
 124.922851562 653.4296875 124.922851562 653.4296875 128.125976562 687.974609375 c 4,95,96
 128.884765625 693.109375 128.884765625 693.109375 131.627929688 699.833984375 c 4,97,98
 135.423828125 709.13671875 135.423828125 709.13671875 147.182617188 709.359375 c 4,0,1
EndSplineSet
Validated: 33
EndChar

StartChar: six
Encoding: 54 54 39
Width: 615
Flags: W
LayerCount: 2
Fore
SplineSet
440.459960938 432.649414062 m 0,0,1
 477.985351562 416.751953125 477.985351562 416.751953125 504.095703125 387.975585938 c 128,-1,2
 530.108398438 359.307617188 530.108398438 359.307617188 543.5546875 320.633789062 c 128,-1,3
 557 281.959960938 557 281.959960938 557 235.434570312 c 128,-1,4
 557 188.909179688 557 188.909179688 540.560546875 143.91796875 c 128,-1,5
 524.096679688 98.861328125 524.096679688 98.861328125 493.702148438 63.8837890625 c 128,-1,6
 463.208984375 28.79296875 463.208984375 28.79296875 420.026226215 8.14453125 c 0,7,8
 375.027222777 -12.50390625 375.027222777 -12.50390625 320.591823216 -12.75 c 128,-1,9
 266.156423654 -12.9951171875 266.156423654 -12.9951171875 212.550015902 7.2119140625 c 0,10,11
 169.264648438 24.4375 169.264648438 24.4375 140.24609375 52.4013671875 c 128,-1,12
 111.412109375 80.1884765625 111.412109375 80.1884765625 92.8671875 114.559570312 c 0,13,14
 56 182.887695312 56 182.887695312 56 266.377929688 c 128,-1,15
 56 349.8671875 56 349.8671875 82.9052734375 423.087890625 c 128,-1,16
 109.810546875 496.30859375 109.810546875 496.30859375 156.456054688 558.495117188 c 0,17,18
 204.546457937 620.595703125 204.546457937 620.595703125 270.698759249 669.76953125 c 0,19,20
 351.665009307 729.954101562 351.665009307 729.954101562 439.71875 762.612304688 c 0,21,22
 455.727539062 768.895507812 455.727539062 768.895507812 470.258789062 770.19140625 c 1,23,24
 477.849609375 765.740234375 477.849609375 765.740234375 485.424804688 759.571289062 c 128,-1,25
 493 753.40234375 493 753.40234375 493 744.080078125 c 128,-1,26
 493 734.7578125 493 734.7578125 483.322265625 727.07421875 c 0,27,28
 465.508789062 712.9296875 465.508789062 712.9296875 428.484225247 698.421875 c 1,29,30
 397.065539441 681.358398438 397.065539441 681.358398438 362.132716892 653.51171875 c 0,31,32
 290.957700503 597.673828125 290.957700503 597.673828125 245.435778577 524.040039062 c 0,33,34
 205.89940577 459.426757812 205.89940577 459.426757812 186.460118495 387.131835938 c 1,35,36
 267.699240701 448.5 267.699240701 448.5 352.716033966 448.5 c 0,37,38
 401.108819891 448.5 401.108819891 448.5 440.459960938 432.649414062 c 0,0,1
231.04721987 361.114257812 m 128,-1,40
 190.970290452 334.729492188 190.970290452 334.729492188 172.739257812 312.705078125 c 1,41,42
 170.87890625 295.329101562 170.87890625 295.329101562 169.439453125 280.764648438 c 128,-1,43
 168 266.19921875 168 266.19921875 168 239.751953125 c 128,-1,44
 168 213.3046875 168 213.3046875 174.362304688 175.442382812 c 128,-1,45
 180.839782288 137.581054688 180.839782288 137.581054688 197.709091202 105.540039062 c 128,-1,46
 214.578400116 73.5 214.578400116 73.5 243.039068841 53.25 c 128,-1,47
 271.499737567 33 271.499737567 33 315.530719281 33 c 0,48,49
 353.359306709 33 353.359306709 33 379.22613373 49.96484375 c 128,-1,50
 405.093998287 66.9306640625 405.093998287 66.9306640625 421.876154119 94.1171875 c 0,51,52
 438.391601562 121.3046875 438.391601562 121.3046875 445.196289062 153.668945312 c 128,-1,53
 452 186.032226562 452 186.032226562 452 217.5234375 c 128,-1,54
 452 249.014648438 452 249.014648438 444.259765625 279.805664062 c 128,-1,55
 436.520507812 310.59765625 436.520507812 310.59765625 419.505382801 334.794921875 c 128,-1,56
 402.340375933 358.993164062 402.340375933 358.993164062 375.318770585 373.291015625 c 128,-1,57
 348.466283716 387.5 348.466283716 387.5 309.795216502 387.5 c 128,-1,39
 271.123111752 387.5 271.123111752 387.5 231.04721987 361.114257812 c 128,-1,40
EndSplineSet
Validated: 33
EndChar

StartChar: seven
Encoding: 55 55 40
Width: 524
Flags: W
LayerCount: 2
Fore
SplineSet
111.720703125 762.568359375 m 6,0,1
 111.064453125 750.325195312 111.064453125 750.325195312 111.064453125 739.391601562 c 6,2,3
 111.231445312 722.259765625 111.231445312 722.259765625 111.3984375 718.004882812 c 6,4,5
 111.3984375 710.771484375 111.3984375 710.771484375 111.099609375 703.356445312 c 5,6,7
 127.212890625 696.984375 127.212890625 696.984375 143.327148438 702.565429688 c 5,8,-1
 274.249023438 702.565429688 l 6,9,10
 297.487304688 702.565429688 297.487304688 702.565429688 318.594726562 703.538085938 c 6,11,12
 318.673828125 697.553710938 318.673828125 697.553710938 318.75390625 703.543945312 c 6,13,14
 353.853515625 704.524414062 353.853515625 704.524414062 389 706 c 4,15,16
 422.057617188 707.475585938 422.057617188 707.475585938 455.231445312 707.475585938 c 6,17,-1
 468.231445312 707.475585938 l 6,18,19
 480.453125 707.475585938 480.453125 707.475585938 493.6015625 703.170898438 c 4,20,21
 510.731445312 697.563476562 510.731445312 697.563476562 510.731445312 681.451171875 c 4,22,23
 510.731445312 672.462890625 510.731445312 672.462890625 489.478515625 629.620117188 c 4,24,25
 480.048828125 610.61328125 480.048828125 610.61328125 470.041015625 588.0078125 c 132,-1,26
 460.033203125 565.403320312 460.033203125 565.403320312 449.51953125 544.75390625 c 132,-1,27
 439.005859375 524.103515625 439.005859375 524.103515625 431.563476562 508.0234375 c 132,-1,28
 424.083007812 491.86328125 424.083007812 491.86328125 421.010742188 485.8125 c 4,29,30
 358.208007812 353.279296875 358.208007812 353.279296875 293.6796875 224.006835938 c 132,-1,31
 229.151367188 94.7333984375 229.151367188 94.7333984375 150.091796875 -32.2919921875 c 4,32,33
 144.813476562 -40.40234375 144.813476562 -40.40234375 133.64453125 -40.40234375 c 4,34,35
 123.711914062 -40.40234375 123.711914062 -40.40234375 113.0546875 -35.38671875 c 132,-1,36
 102.397460938 -30.4619140625 102.397460938 -30.4619140625 96.7783203125 -23.2890625 c 132,-1,37
 91.16015625 -16.1162109375 91.16015625 -16.1162109375 91.16015625 -11.48828125 c 4,38,39
 91.16015625 -6.59375 91.16015625 -6.59375 92.48828125 -3.65234375 c 6,40,41
 140.995117188 98.865234375 140.995117188 98.865234375 192.495117188 191.302734375 c 5,42,43
 244.682617188 290.2578125 244.682617188 290.2578125 296.869140625 386.149414062 c 5,44,45
 322.15625 435.315429688 322.15625 435.315429688 347.444335938 486.733398438 c 6,46,47
 372.241210938 535.84375 372.241210938 535.84375 394.013671875 586.408203125 c 5,48,49
 396.731445312 599.752929688 396.731445312 599.752929688 396.731445312 603.73046875 c 132,-1,50
 396.731445312 607.708984375 396.731445312 607.708984375 392.754882812 608.490234375 c 4,51,52
 383.196289062 610.310546875 383.196289062 610.310546875 376.536132812 610.310546875 c 6,53,-1
 51.2314453125 610.310546875 l 6,54,55
 41.08203125 610.310546875 41.08203125 610.310546875 31.994140625 613.099609375 c 4,56,57
 20.9130859375 616.5 20.9130859375 616.5 20.9130859375 626.55859375 c 4,58,59
 20.9130859375 629.63671875 20.9130859375 629.63671875 26.0009765625 643.447265625 c 4,60,61
 33.216796875 663.032226562 33.216796875 663.032226562 45.6630859375 706.828125 c 132,-1,62
 58.1083984375 750.624023438 58.1083984375 750.624023438 63.748046875 764.719726562 c 4,63,64
 71.1181640625 783.143554688 71.1181640625 783.143554688 82.2314453125 783.143554688 c 4,65,66
 88.31640625 783.143554688 88.31640625 783.143554688 97.8486328125 780.33984375 c 4,67,68
 111.731445312 776.330078125 111.731445312 776.330078125 111.731445312 762.9609375 c 6,69,70
 111.7265625 755.71484375 111.7265625 755.71484375 111.720703125 762.568359375 c 6,0,1
EndSplineSet
EndChar

StartChar: eight
Encoding: 56 56 41
Width: 537
Flags: W
LayerCount: 2
Fore
SplineSet
434.850585938 45.5595703125 m 128,-1,1
 406.754882812 17.5126953125 406.754882812 17.5126953125 368.080239148 2.2373046875 c 0,2,3
 326.612984413 -13 326.612984413 -13 281.580652466 -13 c 128,-1,4
 236.547264512 -13 236.547264512 -13 193.770561986 -4.439453125 c 0,5,6
 152.557617188 4.1201171875 152.557617188 4.1201171875 121.240234375 24.0732421875 c 128,-1,7
 89.921875 44.025390625 89.921875 44.025390625 70.0205078125 77.390625 c 0,8,9
 48.9140625 112.776367188 48.9140625 112.776367188 48.9130859375 164.426757812 c 0,10,11
 48.9130859375 220.291015625 48.9130859375 220.291015625 88.640625 268.96484375 c 0,12,13
 122.044921875 309.890625 122.044921875 309.890625 186.523190863 343.765625 c 0,14,15
 190.336429552 345.650390625 190.336429552 345.650390625 196.091663797 348.49609375 c 1,16,17
 195.401035687 348.921875 195.401035687 348.921875 191.888758789 350.947265625 c 128,-1,18
 188.377537897 352.97265625 188.377537897 352.97265625 182.638143747 358.05859375 c 0,19,20
 125.026367188 392.967773438 125.026367188 392.967773438 93.8037109375 428.669921875 c 0,21,22
 75.1806640625 449.965820312 75.1806640625 449.965820312 62.6181640625 475.104492188 c 0,23,24
 48.9443359375 502.465820312 48.9443359375 502.465820312 48.9443359375 540.817382812 c 128,-1,25
 48.9443359375 579.16796875 48.9443359375 579.16796875 66.1787109375 613.944335938 c 128,-1,26
 83.412109375 648.721679688 83.412109375 648.721679688 113.057617188 674.209960938 c 128,-1,27
 142.640625 699.64453125 142.640625 699.64453125 182.820832834 713.346679688 c 0,28,29
 225.222653129 727 225.222653129 727 268.678367696 727 c 128,-1,30
 312.135138268 727 312.135138268 727 352.298225243 716.381835938 c 0,31,32
 431.59375 694.120117188 431.59375 694.120117188 468.016601562 631.645507812 c 0,33,34
 488.073242188 597.244140625 488.073242188 597.244140625 488.07421875 552.608398438 c 0,35,36
 488.07421875 488.05859375 488.07421875 488.05859375 440.669921875 443.809570312 c 0,37,38
 419.028320312 423.607421875 419.028320312 423.607421875 393.755859375 409.1953125 c 0,39,40
 368.263984241 394.783203125 368.263984241 394.783203125 343.121530641 383.356445312 c 1,41,42
 344.33488186 382.723632812 344.33488186 382.723632812 349.067902022 380.435546875 c 0,43,44
 382.068359375 364.0546875 382.068359375 364.0546875 408.020507812 342.48828125 c 0,45,46
 458.477539062 300.55859375 458.477539062 300.55859375 481.883789062 247.6953125 c 0,47,48
 494.060546875 220.194335938 494.060546875 220.194335938 494.060546875 182.384765625 c 128,-1,49
 494.060546875 144.575195312 494.060546875 144.575195312 478.44921875 109.037109375 c 128,-1,0
 462.837890625 73.4990234375 462.837890625 73.4990234375 434.850585938 45.5595703125 c 128,-1,1
165.833984375 271.791992188 m 0,50,51
 140.864257812 231.38671875 140.864257812 231.38671875 140.864257812 184.647460938 c 0,52,53
 140.864257812 153.11328125 140.864257812 153.11328125 147.672851562 124.830078125 c 0,54,55
 161.194335938 68.6650390625 161.194335938 68.6650390625 203.708637119 44.9619140625 c 0,56,57
 225.598591366 33 225.598591366 33 257.984192064 33 c 0,58,59
 279.028285279 33 279.028285279 33 297.062760586 35.3828125 c 128,-1,60
 315.096179887 37.7646484375 315.096179887 37.7646484375 334.539367576 46.2822265625 c 0,61,62
 370.799455327 62.1162109375 370.799455327 62.1162109375 384.18359375 91.1298828125 c 0,63,64
 396.2421875 117.327148438 396.2421875 117.327148438 396.2421875 149.155273438 c 0,65,66
 396.2421875 153.572265625 396.2421875 153.572265625 396.009765625 158.110351562 c 2,67,68
 396.006835938 165.69921875 396.006835938 165.69921875 396.002929688 158.288085938 c 2,69,70
 394.232421875 222.036132812 394.232421875 222.036132812 348.895772998 267.826171875 c 0,71,72
 311.505758523 304.08984375 311.505758523 304.08984375 241.709023225 330.4296875 c 1,73,74
 192.350233535 312.197265625 192.350233535 312.197265625 165.833984375 271.791992188 c 0,50,51
317.928388739 672.654296875 m 128,-1,76
 293.010864477 683 293.010864477 683 261.228243367 683 c 0,77,78
 206.364492921 683 206.364492921 683 172.4455711 649.291992188 c 0,79,80
 141.029296875 615.583984375 141.029296875 615.583984375 141 563.598632812 c 0,81,82
 141.969726562 526.944335938 141.969726562 526.944335938 165.607421875 493.852539062 c 0,83,84
 173.335784397 483.384765625 173.335784397 483.384765625 189.105126226 468.802734375 c 0,85,86
 225.339869827 435.29296875 225.339869827 435.29296875 262.061432324 415.483398438 c 0,87,88
 279.201470309 406.237304688 279.201470309 406.237304688 292.629646208 402.321289062 c 1,89,90
 316.603100853 408.9609375 316.603100853 408.9609375 336.114928951 424.229492188 c 128,-1,91
 355.626757048 439.497070312 355.626757048 439.497070312 369.564983982 459.547851562 c 0,92,93
 382.58984375 479.619140625 382.58984375 479.619140625 389.287109375 503.061523438 c 128,-1,94
 395.98046875 526.48828125 395.98046875 526.48828125 396 549.368164062 c 0,95,96
 395.025390625 577.038085938 395.025390625 577.038085938 385.497070312 601.811523438 c 128,-1,97
 375.96875 626.583984375 375.96875 626.583984375 359.574108535 644.458007812 c 0,98,75
 342.788888661 662.33203125 342.788888661 662.33203125 317.928388739 672.654296875 c 128,-1,76
EndSplineSet
Validated: 1
EndChar

StartChar: nine
Encoding: 57 57 42
Width: 615
Flags: W
LayerCount: 2
Fore
SplineSet
305.434079104 318.5 m 128,-1,1
 343.211827235 318.5 343.211827235 318.5 386.301763178 346.081054688 c 0,2,3
 404.951485038 358.018554688 404.951485038 358.018554688 419.85466194 370.83984375 c 128,-1,4
 434.757838841 383.66015625 434.757838841 383.66015625 443.27734375 393.456054688 c 1,5,6
 445.127929688 410.737304688 445.127929688 410.737304688 446.564453125 425.268554688 c 128,-1,7
 448 439.80078125 448 439.80078125 448 466.248046875 c 128,-1,8
 448 492.6953125 448 492.6953125 441.637695312 530.557617188 c 128,-1,9
 435.222655274 568.418945312 435.222655274 568.418945312 418.353346361 600.459960938 c 128,-1,10
 401.484037447 632.5 401.484037447 632.5 373.023368721 652.75 c 128,-1,11
 344.562699995 673 344.562699995 673 300.531718282 673 c 0,12,13
 262.703130854 673 262.703130854 673 236.822815856 656.026367188 c 128,-1,14
 210.942500859 639.052734375 210.942500859 639.052734375 194.159307489 612.33203125 c 0,15,16
 177.581054688 585.611328125 177.581054688 585.611328125 170.291015625 552.768554688 c 128,-1,17
 163 519.926757812 163 519.926757812 163 488.483398438 c 128,-1,18
 163 457.0390625 163 457.0390625 171.220703125 426.259765625 c 0,19,20
 189.003787716 361.459960938 189.003787716 361.459960938 240.839120352 333.147460938 c 0,21,0
 267.655293437 318.5 267.655293437 318.5 305.434079104 318.5 c 128,-1,1
382.531354876 192.388671875 m 0,22,23
 410.622660543 249.172851562 410.622660543 249.172851562 429.367835778 319.494140625 c 1,24,25
 349.079097172 257.5 349.079097172 257.5 263.346403596 257.5 c 0,26,27
 213.821665151 257.5 213.821665151 257.5 174.924804688 273.892578125 c 0,28,29
 100.234375 307.018554688 100.234375 307.018554688 71.9306640625 385.416992188 c 0,30,31
 58 424.002929688 58 424.002929688 58 470.571289062 c 128,-1,32
 58 517.139648438 58 517.139648438 74.96484375 562.1640625 c 128,-1,33
 91.9072265625 607.126953125 91.9072265625 607.126953125 121.822265625 642.654296875 c 128,-1,34
 151.736328125 678.182617188 151.736328125 678.182617188 194.982074078 699.052734375 c 0,35,36
 240.215560806 720 240.215560806 720 295.097101141 720 c 128,-1,37
 349.979679012 720 349.979679012 720 403.51242166 698.834960938 c 0,38,39
 446.735351562 681.62890625 446.735351562 681.62890625 475.75390625 653.6953125 c 0,40,41
 532.454101562 599.115234375 532.454101562 599.115234375 550.33203125 517.688476562 c 0,42,43
 559 478.209960938 559 478.209960938 559 437.23828125 c 0,44,45
 559 356.66796875 559 356.66796875 535.626953125 286.947265625 c 128,-1,46
 512.297851562 217.358398438 512.297851562 217.358398438 473.202148438 161.125 c 128,-1,47
 433.955822986 104.857421875 433.955822986 104.857421875 378.863662704 63.501953125 c 128,-1,48
 323.814041427 22.177734375 323.814041427 22.177734375 264.346588958 0.2041015625 c 0,49,50
 252.648362868 -4.69921875 252.648362868 -4.69921875 236.153604696 -11.29296875 c 128,-1,51
 219.658846525 -17.88671875 219.658846525 -17.88671875 204.10617166 -19.19140625 c 1,52,53
 195.878505772 -14.6669921875 195.878505772 -14.6669921875 187.91126159 -7.974609375 c 128,-1,54
 180 -1.283203125 180 -1.283203125 180 8.7431640625 c 0,55,56
 180 13.1962890625 180 13.1962890625 184.424100802 17.0546875 c 128,-1,57
 188.903146658 20.9130859375 188.903146658 20.9130859375 199.586661873 27.1787109375 c 0,58,59
 219.630833034 38.935546875 219.630833034 38.935546875 249.236942257 55.0439453125 c 128,-1,60
 278.84305148 71.15234375 278.84305148 71.15234375 286.810295661 77.541015625 c 0,61,62
 350.313765824 128.103515625 350.313765824 128.103515625 382.531354876 192.388671875 c 0,22,23
EndSplineSet
Validated: 1
EndChar

StartChar: colon
Encoding: 58 58 43
Width: 263
Flags: W
LayerCount: 2
Fore
SplineSet
71.1269819304 457.230554092 m 0,0,1
 91.8367055781 478.5 91.8367055781 478.5 120.387863813 478.5 c 0,2,3
 148.939022049 478.5 148.939022049 478.5 171.719511024 457.386376071 c 0,4,5
 194.5 436.272752143 194.5 436.272752143 194.5 405.556220715 c 0,6,7
 194.5 374.839689287 194.5 374.839689287 172.234206991 353.130541103 c 0,8,9
 150.049036629 331.5 150.049036629 331.5 120 331.5 c 0,10,11
 114.484670586 331.5 114.484670586 331.5 112.214574183 332.765531882 c 0,12,13
 100.556713935 334.310984573 100.556713935 334.310984573 89.2038394803 341.33895472 c 0,14,15
 68.4296927719 354.199141229 68.4296927719 354.199141229 56.1183664064 382.515191869 c 0,16,17
 50.5 395.437434604 50.5 395.437434604 50.5 409 c 0,18,19
 50.5 436.046086163 50.5 436.046086163 71.1269819304 457.230554092 c 0,0,1
70.8440349571 101.444656375 m 0,20,21
 92.0135643393 121.5 92.0135643393 121.5 120.974163405 121.5 c 0,22,23
 149.934762471 121.5 149.934762471 121.5 172.217381236 100.888577643 c 0,24,25
 194.5 80.2771552859 194.5 80.2771552859 194.5 50.667041057 c 0,26,27
 194.5 21.056926828 194.5 21.056926828 172.884283973 -2.22153658599 c 0,28,29
 151.268567945 -25.5 151.268567945 -25.5 121 -25.5 c 0,30,31
 106.228029665 -25.5 106.228029665 -25.5 92.6531846625 -18.7125774986 c 0,32,33
 68.4292386698 -6.60060450226 68.4292386698 -6.60060450226 55.6314556822 22.485265924 c 0,34,35
 49.5 36.4203924745 49.5 36.4203924745 49.5 51 c 0,36,37
 49.5 81.2239916786 49.5 81.2239916786 70.8440349571 101.444656375 c 0,20,21
EndSplineSet
Validated: 1
EndChar

StartChar: semicolon
Encoding: 59 59 44
Width: 264
Flags: W
LayerCount: 2
Fore
SplineSet
130 331.5 m 1,0,-1
 123.429816359 332.701057638 l 1,1,2
 95.3098510727 335.599610194 95.3098510727 335.599610194 80.4049255364 357.128946923 c 128,-1,3
 65.5 378.658283652 65.5 378.658283652 65.5 404 c 0,4,5
 65.5 435.915281102 65.5 435.915281102 84.1013294951 456.207640551 c 128,-1,6
 102.70265899 476.5 102.70265899 476.5 132.992227003 476.5 c 128,-1,7
 163.281795015 476.5 163.281795015 476.5 183.390897507 454.715138966 c 128,-1,8
 203.5 432.930277933 203.5 432.930277933 203.5 403.941339166 c 128,-1,9
 203.5 374.952400398 203.5 374.952400398 182.371192577 353.267571728 c 128,-1,10
 161.161763714 331.5 161.161763714 331.5 130 331.5 c 1,0,-1
224.5 -12 m 0,11,12
 224.5 -87.699492507 224.5 -87.699492507 164.979345338 -140.606741096 c 0,13,14
 161.34376177 -143.673282978 161.34376177 -143.673282978 147.77915139 -153.43980245 c 0,15,16
 116.734042631 -175.792280757 116.734042631 -175.792280757 97.78431259 -185.646140379 c 128,-1,17
 78.8345825488 -195.5 78.8345825488 -195.5 71 -195.5 c 0,18,19
 68.6994339558 -195.5 68.6994339558 -195.5 55.998811689 -186.186893307 c 0,20,21
 50 -181 50 -181 49.5 -172 c 0,22,23
 49.5 -168.82026125 49.5 -168.82026125 51.4547771985 -166.498963327 c 128,-1,24
 53.409554397 -164.177665404 53.409554397 -164.177665404 60.8442444994 -157.672311564 c 0,25,26
 73.7100767329 -146.41470836 73.7100767329 -146.41470836 79.1971368202 -143.521685177 c 0,27,28
 93.7123163303 -133.823785618 93.7123163303 -133.823785618 106.13651416 -123.788857267 c 0,29,30
 130.530864092 -104.085729781 130.530864092 -104.085729781 140.484784393 -77.8435762583 c 0,31,32
 145.5 -64.6216442046 145.5 -64.6216442046 145.5 -47.2355366375 c 128,-1,33
 145.5 -29.8494290704 145.5 -29.8494290704 139.047583198 -22.5904601686 c 128,-1,34
 132.595166397 -15.3314912669 132.595166397 -15.3314912669 122.200952047 -11.2641899996 c 128,-1,35
 111.806737698 -7.19688873233 111.806737698 -7.19688873233 97.9859053672 -4.12559265892 c 128,-1,36
 84.1650730368 -1.05429658551 84.1650730368 -1.05429658551 72.1036588201 6.59016873277 c 0,37,38
 44.4912598594 22.7131515347 44.4912598594 22.7131515347 44.4912598594 50.9899907443 c 0,39,40
 44.4912598594 51.4930718447 44.4912598594 51.4930718447 44.5 52 c 0,41,42
 44.5 84.0371510819 44.5 84.0371510819 70.6250628895 101.268575541 c 128,-1,43
 96.750125779 118.5 96.750125779 118.5 124 118.5 c 128,-1,44
 151.297545031 118.5 151.297545031 118.5 169.860109319 105.942971217 c 128,-1,45
 188.422673608 93.3859424331 188.422673608 93.3859424331 201.244852371 74.1526742881 c 0,46,47
 224.5 39.2699528451 224.5 39.2699528451 224.5 -12 c 0,11,12
EndSplineSet
Validated: 1
EndChar

StartChar: less
Encoding: 60 60 45
Width: 468
Flags: W
LayerCount: 2
Fore
SplineSet
438.5 16 m 2,0,1
 438.5 5.63618367146 438.5 5.63618367146 436.657330582 0.722398557213 c 0,2,3
 434.814661164 -4.19138655703 434.814661164 -4.19138655703 432.814661164 -7.69138655703 c 0,4,5
 430.814661164 -11.191386557 430.814661164 -11.191386557 429.657330582 -14.2776014428 c 0,6,7
 428.5 -17.3638163285 428.5 -17.3638163285 428.5 -26 c 2,8,-1
 428.5 -38.4134632409 l 1,9,10
 358.384836877 -1.5732927864 358.384836877 -1.5732927864 316.75334859 22.5027486326 c 0,11,12
 275.156277841 46.5588859332 275.156277841 46.5588859332 235.554751252 71.1217272198 c 0,13,14
 195.966175533 95.6766665899 195.966175533 95.6766665899 152.397502332 124.221985665 c 0,15,16
 108.978256444 152.669077799 108.978256444 152.669077799 42.5 193.822284169 c 1,17,-1
 42.5 265.315095024 l 1,18,19
 126.081180053 313.908804357 126.081180053 313.908804357 166.426677314 340.552057266 c 0,20,21
 206.772174575 367.195310174 206.772174575 367.195310174 230.782398073 384.202551819 c 0,22,23
 254.792621571 401.209793463 254.792621571 401.209793463 280.903342085 418.281836506 c 0,24,25
 345.657563829 460.621135339 345.657563829 460.621135339 423.5 501.395744762 c 1,26,-1
 423.5 489 l 2,27,28
 423.5 479.22165181 423.5 479.22165181 425.334086399 473.719392615 c 0,29,30
 427.168172797 468.217133419 427.168172797 468.217133419 428.334086399 464.136435814 c 0,31,32
 429.5 460.055738209 429.5 460.055738209 429.5 450 c 2,33,-1
 429.5 446.235112999 l 1,34,35
 337.953736579 378.062363643 337.953736579 378.062363643 290.282633585 340.074273597 c 0,36,37
 242.611530592 302.086183551 242.611530592 302.086183551 210.548267664 277.537747868 c 2,38,-1
 148.295274578 229.958674926 l 1,39,40
 240.153670606 158.819695257 240.153670606 158.819695257 281.225585294 129.482953567 c 0,41,42
 314.463433847 105.741908505 314.463433847 105.741908505 438.5 19.930447645 c 1,43,-1
 438.5 16 l 2,0,1
EndSplineSet
Validated: 1
EndChar

StartChar: equal
Encoding: 61 61 46
Width: 524
Flags: W
LayerCount: 2
Fore
SplineSet
328 299.5 m 1,0,-1
 61 298.5 l 1,1,-1
 56.920224198 298.5 l 1,2,3
 41.4285714286 322.441645189 41.4285714286 322.441645189 41.4285714286 337.528900964 c 0,4,5
 41.4285714286 352.616156739 41.4285714286 352.616156739 56.6237871847 379.5 c 1,6,-1
 61 379.5 l 2,7,8
 155.040685816 379.5 155.040685816 379.5 241.08880933 378.4994839 c 0,9,10
 327.056546513 377.499859049 327.056546513 377.499859049 389 377.5 c 2,11,-1
 467.1497386 377.5 l 1,12,13
 470.5 360.748693 470.5 360.748693 470.5 354 c 2,14,-1
 470.5 340 l 2,15,16
 470.5 331.809587806 470.5 331.809587806 469.932898274 320.467553283 c 0,17,18
 469.365796548 309.125518759 469.365796548 309.125518759 462.763877261 301.203215615 c 2,19,-1
 460.239645898 298.17413798 l 1,20,21
 445.655163678 299.5 445.655163678 299.5 432 299.5 c 2,22,-1
 328 299.5 l 1,0,-1
57 215.5 m 1,23,-1
 180 216.5 l 1,24,-1
 461.833857954 216.5 l 1,25,-1
 464.084021317 213.38438919 l 2,26,27
 476.403225806 196.327029128 476.403225806 196.327029128 476.403225806 180.916753382 c 0,28,29
 476.403225806 165.938172368 476.403225806 165.938172368 462.972097175 135.718132947 c 1,30,31
 436.173172346 134.5 436.173172346 134.5 412 134.5 c 2,32,-1
 247 134.5 l 2,33,34
 123.887792488 134.5 123.887792488 134.5 48.5 136.717288014 c 1,35,-1
 48.5 144 l 2,36,37
 48.5 151.77834819 48.5 151.77834819 46 159.27834819 c 0,38,39
 43.5 166.77834819 43.5 166.77834819 43.5 175.377143409 c 0,40,41
 43.5 183.975938628 43.5 183.975938628 46.0793756292 193.777566019 c 0,42,43
 48.6587512584 203.57919341 48.6587512584 203.57919341 50.6455523567 215.5 c 1,44,-1
 57 215.5 l 1,23,-1
EndSplineSet
Validated: 37
EndChar

StartChar: greater
Encoding: 62 62 47
Width: 468
Flags: W
LayerCount: 2
Fore
SplineSet
50.5 -26 m 2,0,1
 50.5 -15.2420435946 50.5 -15.2420435946 47.3426694178 -9.71671507581 c 0,2,3
 44.1853388357 -4.19138655703 44.1853388357 -4.19138655703 42.3426694178 0.722398557214 c 0,4,5
 40.5 5.63618367146 40.5 5.63618367146 40.5 16 c 2,6,-1
 40.5 19.9180738841 l 1,7,8
 138.651737425 88.1975433973 138.651737425 88.1975433973 255.534000384 175.024242513 c 0,9,10
 287.535512656 198.796794487 287.535512656 198.796794487 330.366275868 230.065381448 c 1,11,12
 296.161105384 255.637138816 296.161105384 255.637138816 266.77823789 278.859082481 c 0,13,14
 237.395370396 302.081026146 237.395370396 302.081026146 204.93310102 327.052033529 c 0,15,16
 172.408672958 352.070824346 172.408672958 352.070824346 135.889942563 380.585481778 c 0,17,18
 99.4578339247 409.032470715 99.4578339247 409.032470715 49.5 446.235112999 c 1,19,-1
 49.5 450 l 2,20,21
 49.5 460.055738209 49.5 460.055738209 50.6659136014 464.136435814 c 0,22,23
 51.8318272029 468.217133419 51.8318272029 468.217133419 52.8122158879 471.158299474 c 0,24,25
 55.5 479.22165181 55.5 479.22165181 55.5 489 c 2,26,-1
 55.5 501.666975182 l 1,27,28
 128.789257944 461.476091793 128.789257944 461.476091793 170.473943434 435.360385221 c 0,29,30
 212.104059967 409.278866429 212.104059967 409.278866429 248.630782542 384.260563295 c 0,31,32
 285.157505118 359.242260161 285.157505118 359.242260161 327.100691237 331.779197488 c 0,33,34
 368.926170998 304.393466692 368.926170998 304.393466692 436.5 265.3273468 c 1,35,-1
 436.5 193.822284169 l 1,36,37
 391.00150256 165.656547658 391.00150256 165.656547658 358.562581842 144.696014271 c 0,38,39
 322.662714376 121.499176832 322.662714376 121.499176832 296.574938538 105.073550917 c 0,40,41
 219.398647645 56.4810893431 219.398647645 56.4810893431 191.562137578 39.98544326 c 0,42,43
 143.78763231 11.6747344535 143.78763231 11.6747344535 50.5 -38.5570675596 c 1,44,-1
 50.5 -26 l 2,0,1
EndSplineSet
Validated: 1
EndChar

StartChar: question
Encoding: 63 63 48
Width: 367
Flags: W
LayerCount: 2
Fore
SplineSet
107.943397755 -22.4370902671 m 0,0,1
 80.8777545981 -20.0263803581 80.8777545981 -20.0263803581 66.1888772991 -0.25289167836 c 0,2,3
 51.5 19.5205970013 51.5 19.5205970013 51.5 46.2443569155 c 0,4,5
 51.5 72.9681168296 51.5 72.9681168296 69.1286117922 91.7340584148 c 0,6,7
 86.7572235843 110.5 86.7572235843 110.5 116.687484992 110.5 c 0,8,9
 146.6177464 110.5 146.6177464 110.5 164.0588732 88.5579372519 c 0,10,11
 181.5 66.6158745038 181.5 66.6158745038 181.5 38.5746295417 c 0,12,13
 181.5 10.5333845797 181.5 10.5333845797 158.853127018 -8.71645745527 c 0,14,15
 141.300296216 -23.6363636364 141.300296216 -23.6363636364 120.105371901 -23.6363636364 c 0,16,17
 114.13562714 -23.6363636364 114.13562714 -23.6363636364 107.943397755 -22.4370902671 c 0,0,1
84.5 237 m 1,18,-1
 85.5 284 l 2,19,20
 85.5 302.728527626 85.5 302.728527626 84.6666666667 314.395194293 c 0,21,22
 83.8333333333 326.061860959 83.8333333333 326.061860959 83.8333333333 331.95946991 c 0,23,24
 83.8333333333 337.85707886 83.8333333333 337.85707886 84.199016432 345.170740834 c 0,25,26
 85.2309488717 365.809389629 85.2309488717 365.809389629 100.402037017 376.645881161 c 1,27,28
 128.976067934 387.871393307 128.976067934 387.871393307 157.017424957 401.646095002 c 0,29,30
 185.058781979 415.420796698 185.058781979 415.420796698 208.638283631 433.225726517 c 0,31,32
 232.217785283 451.030656336 232.217785283 451.030656336 245.858892642 475.490572978 c 0,33,34
 259.5 499.950489621 259.5 499.950489621 259.5 534 c 0,35,36
 259.5 581.492005316 259.5 581.492005316 228.685984084 619.264024827 c 0,37,38
 214.097211517 637.14703636 214.097211517 637.14703636 194.07268159 648.32351818 c 0,39,40
 174.048151662 659.5 174.048151662 659.5 151 659.5 c 0,41,42
 135.31675123 659.5 135.31675123 659.5 117.31675123 653 c 0,43,44
 99.3167512303 646.5 99.3167512303 646.5 80.2857089871 646.5 c 0,45,46
 61.2546667439 646.5 61.2546667439 646.5 45.8773333719 659.511589776 c 0,47,48
 30.5 672.523179553 30.5 672.523179553 30.5 691.346412911 c 0,49,50
 30.5 710.16964627 30.5 710.16964627 37.654150055 721.497050524 c 0,51,52
 44.7358682392 732.709770982 44.7358682392 732.709770982 56.7293902964 738.99209206 c 0,53,54
 68.7229123535 745.274413137 68.7229123535 745.274413137 81.6252598042 746.887206569 c 0,55,56
 94.5276072548 748.5 94.5276072548 748.5 108 748.5 c 0,57,58
 153.246050601 748.5 153.246050601 748.5 194.184510355 721.553165731 c 0,59,60
 235.12297011 694.606331462 235.12297011 694.606331462 266.874056382 654.661416475 c 0,61,62
 298.577273099 614.776724475 298.577273099 614.776724475 317.03863655 567.597684547 c 0,63,64
 335.5 520.418644618 335.5 520.418644618 335.5 479.308522489 c 0,65,66
 335.5 438.198400359 335.5 438.198400359 321.300945063 410.326181409 c 0,67,68
 295.132464162 358.958422603 295.132464162 358.958422603 240.573492329 329.405646194 c 0,69,70
 240.564281873 329.400648857 240.564281873 329.400648857 194.583516894 304.411104229 c 0,71,72
 173.138344255 292.713737335 173.138344255 292.713737335 157.855120472 280.672409506 c 0,73,74
 142.571896689 268.631081676 142.571896689 268.631081676 138.227400463 252.990895263 c 2,75,-1
 137.545229852 250.535081065 l 1,76,-1
 135.813776587 249.236491116 l 1,77,78
 134.5 246.354009659 134.5 246.354009659 134.5 239 c 2,79,-1
 134.5 212 l 2,80,81
 134.5 197.923330135 134.5 197.923330135 130.701235791 184.898995704 c 0,82,83
 125.770388036 167.993231974 125.770388036 167.993231974 108.48044207 166.421418704 c 1,84,-1
 107.309235984 166.691697032 l 2,85,86
 89.5761195518 170.78395467 89.5761195518 170.78395467 86.6435050199 188.501093837 c 0,87,88
 84.5 197.300618987 84.5 197.300618987 84.5 210 c 2,89,-1
 84.5 237 l 1,18,-1
EndSplineSet
Validated: 33
EndChar

StartChar: at
Encoding: 64 64 49
Width: 898
Flags: W
LayerCount: 2
Fore
SplineSet
448.343084912 192.871250733 m 0,0,1
 421.771161364 183.345376454 421.771161364 183.345376454 401.135580682 165.461207769 c 0,2,3
 380.5 147.577039083 380.5 147.577039083 380.5 120.057203062 c 0,4,5
 380.5 92.537367042 380.5 92.537367042 391.602522693 78.018683521 c 0,6,7
 402.705045385 63.5 402.705045385 63.5 432 63.5 c 0,8,9
 452.228029665 63.5 452.228029665 63.5 472.792189897 73.7820801157 c 0,10,11
 493.356350128 84.0641602313 493.356350128 84.0641602313 506.407382881 97.997954076 c 0,12,13
 512.09071298 104.656015739 512.09071298 104.656015739 520.427078414 117.160567178 c 0,14,15
 528.763443848 129.665118617 528.763443848 129.665118617 531.557478332 139.246072109 c 1,16,-1
 533.5 174.211462137 l 1,17,-1
 533.5 203 l 2,18,19
 533.5 213.006999801 533.5 213.006999801 532.738106936 220.801875632 c 1,20,21
 503.018409244 213.343386158 503.018409244 213.343386158 480.785819163 204.643676996 c 0,22,23
 458.553229081 195.943967833 458.553229081 195.943967833 448.343084912 192.871250733 c 0,0,1
477 -109.5 m 0,24,25
 537.787614457 -109.5 537.787614457 -109.5 605.066621539 -86.4042214493 c 0,26,27
 637.887253523 -75.1374373354 637.887253523 -75.1374373354 666.56538013 -58.6110592908 c 0,28,29
 695.243506737 -42.0846812462 695.243506737 -42.0846812462 714.449675015 -20.9578961403 c 2,30,-1
 717.543548287 -17.5546355408 l 1,31,32
 750.66503495 -26.5877682671 750.66503495 -26.5877682671 780.632439891 -32.0363873473 c 1,33,-1
 771.554216941 -42.0378194113 l 2,34,35
 711.476148439 -108.225521998 711.476148439 -108.225521998 635.014734076 -141.868544318 c 0,36,37
 558.579607526 -175.5 558.579607526 -175.5 470 -175.5 c 0,38,39
 405.885299853 -175.5 405.885299853 -175.5 345.327888403 -157.180110822 c 0,40,41
 284.79524548 -138.867714643 284.79524548 -138.867714643 232.89007458 -104.773141601 c 0,42,43
 180.913958873 -70.6319675584 180.913958873 -70.6319675584 141.176559849 -21.724399529 c 0,44,45
 101.421800611 27.2045349179 101.421800611 27.2045349179 77.9667104626 88.3917266089 c 0,46,47
 53.5 154.263639393 53.5 154.263639393 53.5 236.452288804 c 0,48,49
 53.5 318.640938216 53.5 318.640938216 87.6795569979 393.121763913 c 0,50,51
 121.784441683 467.439870839 121.784441683 467.439870839 180.841413763 523.442171949 c 0,52,53
 239.950824176 579.494199065 239.950824176 579.494199065 314.875061957 607.527077146 c 0,54,55
 389.639055766 635.5 389.639055766 635.5 471 635.5 c 0,56,57
 521.946545425 635.5 521.946545425 635.5 573.855565398 622.268289027 c 0,58,59
 625.838448448 609.01775021 625.838448448 609.01775021 671.220888965 583.012082048 c 0,60,61
 716.636776325 556.987247719 716.636776325 556.987247719 753.374942865 519.228576552 c 0,62,63
 791.234972146 480.316879792 791.234972146 480.316879792 812.874826644 432.000415366 c 0,64,65
 844.5 359.714304838 844.5 359.714304838 844.5 296 c 0,66,67
 844.5 249.890354812 844.5 249.890354812 830.182958147 202.337322941 c 0,68,69
 815.901421589 154.902219374 815.901421589 154.902219374 790.299541735 113.427174011 c 0,70,71
 764.697661882 71.9521286483 764.697661882 71.9521286483 726.467129958 41.4710288715 c 0,72,73
 688.236598035 10.9899290947 688.236598035 10.9899290947 640.476658221 1.64559304411 c 0,74,75
 629.748693 -0.5 629.748693 -0.5 616 -0.5 c 0,76,77
 578.620771971 -0.5 578.620771971 -0.5 557.378760212 23.5370133057 c 0,78,79
 541.316255038 41.7130060027 541.316255038 41.7130060027 532.66639436 66.20499087 c 1,80,81
 510.455817991 41.1271153317 510.455817991 41.1271153317 472.850682484 18.5640340271 c 0,82,83
 452.015506155 6.06292822988 452.015506155 6.06292822988 428.582705771 -0.706547436531 c 0,84,85
 405.066908436 -7.5 405.066908436 -7.5 384 -7.5 c 0,86,87
 328.211266005 -7.5 328.211266005 -7.5 305.355633003 23.518359075 c 0,88,89
 282.5 54.53671815 282.5 54.53671815 282.5 103 c 0,90,91
 282.5 147.631855186 282.5 147.631855186 326.110069433 185.184970531 c 0,92,93
 358.38656401 212.978618639 358.38656401 212.978618639 407.455307075 231.05657661 c 0,94,95
 443.496027788 244.071281312 443.496027788 244.071281312 471.559237855 253.748331334 c 0,96,97
 499.622447923 263.425381355 499.622447923 263.425381355 533.5 271.878010629 c 1,98,-1
 533.5 341 l 2,99,100
 533.5 381.911568177 533.5 381.911568177 518.574752653 406.631509096 c 0,101,102
 504.767361918 429.5 504.767361918 429.5 463 429.5 c 0,103,104
 433.814359695 429.5 433.814359695 429.5 416.918527447 420.823761819 c 0,105,106
 399.898676552 412.083838386 399.898676552 412.083838386 390.333086028 399.785221998 c 0,107,108
 380.767495504 387.48660561 380.767495504 387.48660561 376.997942725 375.235559081 c 0,109,110
 376.016877546 372.047097249 376.016877546 372.047097249 371.160181287 354.763077655 c 0,111,112
 365.420757996 336.396923124 365.420757996 336.396923124 346.904582947 322.930613997 c 0,113,114
 328.437488701 309.5 328.437488701 309.5 306 309.5 c 0,115,116
 288.8502614 309.5 288.8502614 309.5 285.645593044 325.523341779 c 0,117,118
 283.5 336.251307 283.5 336.251307 283.5 345 c 0,119,120
 283.5 372.679934895 283.5 372.679934895 305.168536818 399.104979796 c 0,121,122
 326.837073637 425.530024696 326.837073637 425.530024696 357.157473677 447.114038284 c 0,123,124
 387.465555952 468.689283294 387.465555952 468.689283294 423.556905365 482.094641647 c 0,125,126
 459.648254777 495.5 459.648254777 495.5 489 495.5 c 0,127,128
 501.407191302 495.5 501.407191302 495.5 522.068648644 491.906366622 c 0,129,130
 555.635893851 486.068038242 555.635893851 486.068038242 570.346815337 478.712577499 c 0,131,132
 607.3251706 460.223399867 607.3251706 460.223399867 615.9125853 429.630734999 c 0,133,134
 624.5 399.03807013 624.5 399.03807013 624.5 359.974571167 c 0,135,136
 624.5 320.911072204 624.5 320.911072204 623.497890889 278.320553187 c 0,137,138
 622.500020525 235.911062719 622.500020525 235.911062719 622.5 193 c 2,139,-1
 622.5 163 l 2,140,141
 622.5 97.4984550987 622.5 97.4984550987 630.003565782 87.4937007228 c 2,142,-1
 630.516583522 86.7130224306 l 2,143,144
 635.209739197 78.5 635.209739197 78.5 652 78.5 c 0,145,146
 679.850064266 78.5 679.850064266 78.5 702.324566524 101.442721055 c 0,147,148
 724.799068782 124.38544211 724.799068782 124.38544211 741.341647803 157.957146594 c 0,149,150
 757.884226824 191.528851078 757.884226824 191.528851078 766.190048032 227.683602218 c 0,151,152
 774.5 263.856334313 774.5 263.856334313 774.5 288 c 0,153,154
 774.5 351.345979653 774.5 351.345979653 750.190016882 403.855543187 c 0,155,156
 725.830427697 456.472255826 725.830427697 456.472255826 683.964376077 494.443791017 c 0,157,158
 642.007546721 532.497659503 642.007546721 532.497659503 587.315533481 553.495486014 c 0,159,160
 532.606101704 574.5 532.606101704 574.5 471 574.5 c 0,161,162
 396.72008136 574.5 396.72008136 574.5 337.258296607 545.74389098 c 0,163,164
 277.629792472 516.907155374 277.629792472 516.907155374 235.638583556 469.056708005 c 0,165,166
 193.598886486 421.151006692 193.598886486 421.151006692 171.078656907 357.017309415 c 0,167,168
 148.5 292.717221266 148.5 292.717221266 148.5 222.562279939 c 0,169,170
 148.5 88.3986166357 148.5 88.3986166357 232.533475054 -5.93841966495 c 0,171,172
 278.469181939 -54.7778223177 278.469181939 -54.7778223177 340.040094908 -82.1426707608 c 0,173,174
 401.594085696 -109.5 401.594085696 -109.5 477 -109.5 c 0,24,25
EndSplineSet
Validated: 1
EndChar

StartChar: A
Encoding: 65 65 50
Width: 826
Flags: W
LayerCount: 2
Fore
SplineSet
426.357640672 319.5 m 2,0,-1
 405.807424254 319.5 l 1,1,-1
 329.771623505 320.5 l 2,2,3
 281.805732625 320.5 281.805732625 320.5 260.315303668 316.56640625 c 1,4,5
 206.383026712 193.53125 206.383026712 193.53125 180.504604767 104.561523438 c 0,6,7
 174.103734135 82.5546875 174.103734135 82.5546875 174.103734135 78.669921875 c 0,8,9
 174.103734135 62.25390625 174.103734135 62.25390625 185.539809161 58.17578125 c 0,10,11
 201.046793757 52.6455078125 201.046793757 52.6455078125 221.309026186 50.71875 c 128,-1,12
 241.572262043 48.7919921875 241.572262043 48.7919921875 258.936592859 45.2890625 c 0,13,14
 281.992370332 40.638671875 281.992370332 40.638671875 281.992370332 19.0673828125 c 0,15,16
 281.992370332 8.0283203125 281.992370332 8.0283203125 273.472258633 0.6015625 c 128,-1,17
 264.951143504 -7 264.951143504 -7 253.735822757 -7 c 0,18,19
 219.427597681 -7 219.427597681 -7 184.492229769 -3.5 c 128,-1,20
 149.556861858 0 149.556861858 0 121.553710938 0 c 0,21,22
 93.9970703125 0 93.9970703125 0 74.9970703125 -2.5 c 128,-1,23
 55.9970703125 -5 55.9970703125 -5 32.5 -5 c 0,24,25
 21.896484375 -5 21.896484375 -5 15.9482421875 2.435546875 c 128,-1,26
 10 9.7236328125 10 9.7236328125 10 18.1806640625 c 0,27,28
 10 35.349609375 10 35.349609375 22.4990234375 41.8349609375 c 0,29,30
 32.0439453125 46.7880859375 32.0439453125 46.7880859375 43.8935546875 48.80859375 c 128,-1,31
 55.744140625 50.828125 55.744140625 50.828125 67.2099609375 54.2861328125 c 128,-1,32
 78.67578125 57.744140625 78.67578125 57.744140625 86.1865234375 69.1962890625 c 0,33,34
 89.24609375 73.509765625 89.24609375 73.509765625 94.9384765625 86.529296875 c 128,-1,35
 100.630859375 99.548828125 100.630859375 99.548828125 107.58984375 114.651367188 c 128,-1,36
 114.548828125 129.754882812 114.548828125 129.754882812 120.021484375 144.381835938 c 128,-1,37
 125.493164062 159.008789062 125.493164062 159.008789062 138.166944545 189.473632812 c 0,38,39
 151.044946377 219.938476562 151.044946377 219.938476562 173.642157009 272.848632812 c 0,40,41
 238.367311299 424.997070312 238.367311299 424.997070312 287.158020436 538.044921875 c 128,-1,42
 335.948729573 651.092773438 335.948729573 651.092773438 374.939955627 743.096679688 c 0,43,44
 377.329118972 750 377.329118972 750 380.523032002 754.352539062 c 0,45,46
 385.402704973 761 385.402704973 761 397.052510276 761 c 128,-1,47
 408.703319009 761 408.703319009 761 415.126265068 752.404296875 c 0,48,49
 419.848399759 746.0859375 419.848399759 746.0859375 422.277700244 739.130859375 c 0,50,51
 446.901836519 682.361328125 446.901836519 682.361328125 472.03571449 623.154296875 c 2,52,53
 496.977937611 561.11328125 496.977937611 561.11328125 521.921164161 506.877929688 c 1,54,55
 612.271876404 282.383789062 612.271876404 282.383789062 715.282226562 77.0830078125 c 0,56,57
 722.990234375 61.1337890625 722.990234375 61.1337890625 738.259765625 55.4111328125 c 128,-1,58
 753.529296875 49.6884765625 753.529296875 49.6884765625 769.87890625 46.7744140625 c 128,-1,59
 786.229492188 43.8603515625 786.229492188 43.8603515625 798.600585938 40.3232421875 c 0,60,61
 816 35.349609375 816 35.349609375 816 16.111328125 c 0,62,63
 816 1.9892578125 816 1.9892578125 800.370117188 -3.1171875 c 0,64,65
 788.721679688 -7 788.721679688 -7 777.5 -7 c 2,66,-1
 765.5 -7 l 2,67,68
 740.02734375 -7 740.02734375 -7 716.02734375 -4 c 128,-1,69
 691.99728388 -1 691.99728388 -1 661.068606113 -1 c 128,-1,70
 630.138924917 -1 630.138924917 -1 594.176046185 -4 c 128,-1,71
 558.213167453 -7 558.213167453 -7 520.888636197 -7 c 0,72,73
 508.93980919 -7 508.93980919 -7 498.730927264 0.9482421875 c 128,-1,74
 488.522045338 8.7138671875 488.522045338 8.7138671875 488.522045338 21.02734375 c 0,75,76
 488.522045338 37.947265625 488.522045338 37.947265625 509.810785159 41.4375 c 0,77,78
 525.147186904 43.9521484375 525.147186904 43.9521484375 543.434671974 44.91796875 c 128,-1,79
 561.722157043 45.8837890625 561.722157043 45.8837890625 575.283493708 49.5673828125 c 0,80,81
 584.080551684 51.9580078125 584.080551684 51.9580078125 584.080551684 63.0380859375 c 0,82,83
 584.080551684 72.4423828125 584.080551684 72.4423828125 543.661446823 168.145507812 c 0,84,85
 508.907699476 250.434570312 508.907699476 250.434570312 493.345526311 284.659179688 c 1,86,87
 486.925590537 297.802734375 486.925590537 297.802734375 480.504651335 309.922851562 c 1,88,89
 474.16800013 315.948242188 474.16800013 315.948242188 458.761358387 317.724609375 c 128,-1,90
 443.354716644 319.5 443.354716644 319.5 426.357640672 319.5 c 2,0,-1
285.967954192 377.5 m 1,91,-1
 303.056342161 377.5 l 2,92,93
 320.468837547 377.5 320.468837547 377.5 356.571192846 377.995117188 c 128,-1,94
 392.674551574 378.490234375 392.674551574 378.490234375 456.553815608 378.5 c 0,95,96
 457.873324132 379.174804688 457.873324132 379.174804688 459.274110369 379.4921875 c 1,97,98
 415.942052468 496.041015625 415.942052468 496.041015625 399.134624489 542.8046875 c 128,-1,99
 382.32719651 589.568359375 382.32719651 589.568359375 380.20895887 595.077148438 c 1,100,101
 370.090385513 572.100585938 370.090385513 572.100585938 360.672205273 551.584960938 c 128,-1,102
 351.253021605 531.0703125 351.253021605 531.0703125 340.516336269 505.196289062 c 0,103,104
 314.253601195 441.903320312 314.253601195 441.903320312 285.967954192 377.5 c 1,91,-1
EndSplineSet
Validated: 1
Substitution2: "'c2sc' Versalien in Kapit+AOQA-lchen in Lateinisch Nachschlagetabelle 0 Subtabelle" uni1D00
EndChar

StartChar: B
Encoding: 66 66 51
Width: 735
Flags: W
LayerCount: 2
Fore
SplineSet
62.71484375 735.64453125 m 0,0,1
 81.0166015625 741.5 81.0166015625 741.5 112.875 741.5 c 2,2,3
 138.1875 733.25 138.1875 733.25 163.678039256 740 c 2,4,5
 211.06127325 740 211.06127325 740 258.314690165 744.5 c 128,-1,6
 305.56810708 749 305.56810708 749 352.383391352 749 c 128,-1,7
 399.197661428 749 399.197661428 749 447.40442252 739.30859375 c 128,-1,8
 495.610169417 729.807617188 495.610169417 729.807617188 536.902142637 708.548828125 c 0,9,10
 577.633789062 687.290039062 577.633789062 687.290039062 603.317382812 651.32421875 c 128,-1,11
 629 615.357421875 629 615.357421875 629 564.02734375 c 0,12,13
 629 504.215820312 629 504.215820312 590.91015625 465.322265625 c 0,14,15
 559.635344477 433.518554688 559.635344477 433.518554688 515.281513735 416.2265625 c 1,16,17
 516.931610518 415.6875 516.931610518 415.6875 525.926514249 412.948242188 c 0,18,19
 601.641601562 389.442382812 601.641601562 389.442382812 646.309570312 335.860351562 c 0,20,21
 686 288.250976562 686 288.250976562 686 218.97265625 c 0,22,23
 686 161.341796875 686 161.341796875 664.196289062 119.103515625 c 0,24,25
 621.647460938 36.6767578125 621.647460938 36.6767578125 519.97115573 8.4990234375 c 0,26,27
 470.480422586 -4.9189453125 470.480422586 -4.9189453125 413.760500832 -5.986328125 c 0,28,29
 405.846729966 -7.0009765625 405.846729966 -7.0009765625 403.580002055 -7 c 2,30,-1
 83.5 -7 l 2,31,32
 71.8525390625 -7 71.8525390625 -7 56.71875 -4.390625 c 0,33,34
 36 -0.8896484375 36 -0.8896484375 36 20.005859375 c 0,35,36
 36 35.9091796875 36 35.9091796875 58.111328125 39.97265625 c 0,37,38
 74.216796875 42.931640625 74.216796875 42.931640625 92.8564453125 45.81640625 c 128,-1,39
 111.49609375 48.701171875 111.49609375 48.701171875 128.21875 55.2578125 c 0,40,41
 141.794921875 60.580078125 141.794921875 60.580078125 144.286132812 75.23046875 c 0,42,43
 146.41796875 79.41015625 146.41796875 79.41015625 147.209960938 154.654296875 c 128,-1,44
 148.000976562 229.8984375 148.000976562 229.8984375 149.501953125 289.725585938 c 0,45,46
 152 389.282226562 152 389.282226562 152 533.595703125 c 2,47,48
 152 581.173828125 152 581.173828125 152 637.489257812 c 2,49,50
 152 669.344726562 152 669.344726562 138.005859375 679.631835938 c 0,51,52
 131.388671875 684.49609375 131.388671875 684.49609375 119.375976562 686.760742188 c 128,-1,53
 107.364257812 689.024414062 107.364257812 689.024414062 90.791015625 691.89453125 c 0,54,55
 80.0615234375 692.129882812 80.0615234375 692.129882812 69.7451171875 695.241210938 c 128,-1,56
 59.4287109375 698.352539062 59.4287109375 698.352539062 53.6494140625 701.750976562 c 0,57,58
 45 706.837890625 45 706.837890625 45 714.919921875 c 0,59,60
 45 730.088867188 45 730.088867188 62.71484375 735.64453125 c 0,0,1
518.944789445 94.1650390625 m 128,-1,62
 564 138.465820312 564 138.465820312 564 209.806640625 c 0,63,64
 564 253.368164062 564 253.368164062 541.142495833 290.27734375 c 0,65,66
 523.359584342 320.032226562 523.359584342 320.032226562 497.608135405 336.344726562 c 0,67,68
 446.80604692 368.525390625 446.80604692 368.525390625 376.100363248 372.55859375 c 0,69,70
 342.064961929 374.5 342.064961929 374.5 308.03463159 374.5 c 2,71,-1
 290.379508786 374.5 l 2,72,73
 280.795357219 374.5 280.795357219 374.5 272.045888904 370.3828125 c 0,74,75
 265.973897852 367.525390625 265.973897852 367.525390625 265.973897852 356.41796875 c 2,76,77
 265.973897852 256.994140625 265.973897852 256.994140625 265.973897852 152.139648438 c 2,78,79
 265.973897852 129.197265625 265.973897852 129.197265625 269.377539404 106.315429688 c 128,-1,80
 272.781180955 83.4326171875 272.781180955 83.4326171875 290.427175995 67.640625 c 0,81,82
 305.188797801 55.5556640625 305.188797801 55.5556640625 331.754646073 52.7783203125 c 128,-1,83
 358.321508541 50 358.321508541 50 379.693659439 50 c 0,84,61
 473.993597299 50 473.993597299 50 518.944789445 94.1650390625 c 128,-1,62
499.447886828 499.791992188 m 128,-1,86
 514.184153735 526.951171875 514.184153735 526.951171875 514.184153735 566.076171875 c 0,87,88
 514.184153735 629.846679688 514.184153735 629.846679688 472.513885432 662.922851562 c 128,-1,89
 430.843617129 696 430.843617129 696 365.154146542 696 c 2,90,-1
 350.614633645 696 l 2,91,92
 339.337789065 696 339.337789065 696 325.902735539 695.534179688 c 0,93,94
 296.811539394 694.524414062 296.811539394 694.524414062 279.577307903 681.962890625 c 0,95,96
 272.851160475 677.060546875 272.851160475 677.060546875 271.040820734 666.951171875 c 0,97,98
 268.050971123 651.541015625 268.050971123 651.541015625 268.050971123 623.495117188 c 2,99,100
 268.050971123 525.383789062 268.050971123 525.383789062 268.050971123 432.879882812 c 2,101,102
 268.939406761 430.903320312 268.939406761 430.903320312 274.206126241 427.201171875 c 128,-1,103
 279.472845722 423.5 279.472845722 423.5 295.572191964 423.5 c 2,104,-1
 330.882437571 423.5 l 2,105,106
 413.868005601 423.5 413.868005601 423.5 460.226901703 455.647460938 c 0,107,85
 484.704520548 472.622070312 484.704520548 472.622070312 499.447886828 499.791992188 c 128,-1,86
EndSplineSet
Validated: 37
Substitution2: "'c2sc' Versalien in Kapit+AOQA-lchen in Lateinisch Nachschlagetabelle 0 Subtabelle" uni0299
EndChar

StartChar: C
Encoding: 67 67 52
Width: 774
Flags: W
LayerCount: 2
Fore
SplineSet
675.439453125 765.043945312 m 128,-1,1
 686.395507812 776 686.395507812 776 704.5 776 c 0,2,3
 717.649414062 776 717.649414062 776 720.854492188 759.9765625 c 0,4,5
 723 749.249023438 723 749.249023438 723 734.190429688 c 128,-1,6
 723 719.1328125 723 719.1328125 721.5 703.6328125 c 128,-1,7
 720 688.1328125 720 688.1328125 720 669.24609375 c 0,8,9
 720 623.209960938 720 623.209960938 715.977539062 570.91796875 c 0,10,11
 714.379882812 560.170898438 714.379882812 560.170898438 709.196289062 554.123046875 c 128,-1,12
 703.948242188 548 703.948242188 548 697.696289062 548 c 128,-1,13
 691.444335938 548 691.444335938 548 687.944335938 549 c 128,-1,14
 684.444335938 550 684.444335938 550 681.5 550 c 0,15,16
 670.518554688 550 670.518554688 550 664.583984375 564.094726562 c 0,17,18
 660.348632812 574.155273438 660.348632812 574.155273438 657.282226562 586.931640625 c 128,-1,19
 654.215820312 599.708007812 654.215820312 599.708007812 650.911132812 612.92578125 c 128,-1,20
 647.606445312 626.143554688 647.606445312 626.143554688 642.443359375 635.008789062 c 0,21,22
 610.282428011 669.319335938 610.282428011 669.319335938 562.814499422 687.659179688 c 128,-1,23
 515.346570834 706 515.346570834 706 464.04590349 706 c 0,24,25
 392.536158074 706 392.536158074 706 342.511385299 680.000976562 c 128,-1,26
 292.392588597 653.952148438 292.392588597 653.952148438 260.69540436 609.736328125 c 128,-1,27
 228.998220123 565.521484375 228.998220123 565.521484375 213.7481459 507.3984375 c 128,-1,28
 198.498071677 449.274414062 198.498071677 449.274414062 198.498071677 383.124023438 c 128,-1,29
 198.498071677 316.973632812 198.498071677 316.973632812 213.783531249 252.939453125 c 128,-1,30
 229.06797981 188.90625 229.06797981 188.90625 262.383790992 139.775390625 c 128,-1,31
 295.699602173 90.6435546875 295.699602173 90.6435546875 347.842440813 60.322265625 c 128,-1,32
 399.985279452 30 399.985279452 30 475.433919669 30 c 0,33,34
 525.039123311 30 525.039123311 30 579.065473505 51.91796875 c 0,35,36
 632.640625 73.775390625 632.640625 73.775390625 662.510742188 111.017578125 c 0,37,38
 667.240234375 117.672851562 667.240234375 117.672851562 681.166992188 142.541015625 c 128,-1,39
 695.09375 167.41015625 695.09375 167.41015625 702.290039062 178.205078125 c 128,-1,40
 709.486328125 189 709.486328125 189 718.5 189 c 0,41,42
 732.12890625 189 732.12890625 189 739.564453125 183.051757812 c 128,-1,43
 747 177.103515625 747 177.103515625 747 162.5 c 0,44,45
 747 153.990234375 747 153.990234375 744.432617188 134.98828125 c 0,46,47
 739.33984375 97.3056640625 739.33984375 97.3056640625 727.678710938 58.82421875 c 0,48,49
 721.973632812 39.9951171875 721.973632812 39.9951171875 715.458984375 33.875 c 0,50,51
 682.734375 5 682.734375 5 603.89486709 -11.83203125 c 0,52,53
 569.828886518 -18.9189453125 569.828886518 -18.9189453125 533.683258461 -22.4619140625 c 128,-1,54
 497.573015753 -26 497.573015753 -26 469.22227448 -26 c 0,55,56
 374.33797881 -26 374.33797881 -26 297.739820271 7.544921875 c 128,-1,57
 221.220520508 41.0556640625 221.220520508 41.0556640625 168.407226562 97.63671875 c 0,58,59
 116.954101562 154.12109375 116.954101562 154.12109375 88.9619140625 228.530273438 c 128,-1,60
 61 302.856445312 61 302.856445312 61 388.139648438 c 128,-1,61
 61 473.423828125 61 473.423828125 90.064453125 542.467773438 c 128,-1,62
 119.158203125 611.581054688 119.158203125 611.581054688 169.780273438 659.747070312 c 0,63,64
 221.754333766 707.969726562 221.754333766 707.969726562 295.128381546 732.485351562 c 128,-1,65
 368.503440337 757 368.503440337 757 455.763709905 757 c 0,66,67
 531.354902526 757 531.354902526 757 601.553368025 740.776367188 c 0,68,69
 610.122688438 738.70703125 610.122688438 738.70703125 621.028452866 735.196289062 c 0,70,71
 631.674804688 731.682617188 631.674804688 731.682617188 644.094726562 728.294921875 c 1,72,73
 646.133789062 726.546875 646.133789062 726.546875 646.704101562 726.25 c 0,74,75
 650.465820312 729.556640625 650.465820312 729.556640625 657.474609375 741.822265625 c 128,-1,0
 664.483398438 754.087890625 664.483398438 754.087890625 675.439453125 765.043945312 c 128,-1,1
EndSplineSet
Validated: 1
Substitution2: "'c2sc' Versalien in Kapit+AOQA-lchen in Lateinisch Nachschlagetabelle 0 Subtabelle" uni1D04
EndChar

StartChar: D
Encoding: 68 68 53
Width: 882
Flags: W
LayerCount: 2
Fore
SplineSet
271.70241552 675.588867188 m 0,0,1
 266.998530597 660.481445312 266.998530597 660.481445312 266.998530597 638.951171875 c 2,2,3
 267.51281398 581.403320312 267.51281398 581.403320312 268.027097362 533.34375 c 2,4,5
 268.027097362 445.296875 268.027097362 445.296875 266.998530597 358.2265625 c 128,-1,6
 265.969963832 271.240234375 265.969963832 271.240234375 265.969963832 183.276367188 c 0,7,8
 265.969963832 139.95703125 265.969963832 139.95703125 271.399068681 112.272460938 c 0,9,10
 281.618441991 60.1640625 281.618441991 60.1640625 318.973294952 47.416015625 c 0,11,12
 337.773767749 41 337.773767749 41 364.19808991 41 c 0,13,14
 436.624658861 41 436.624658861 41 496.85809113 66.291015625 c 128,-1,15
 557.087505559 91.5810546875 557.087505559 91.5810546875 599.701709675 135.90625 c 128,-1,16
 642.410333005 180.329101562 642.410333005 180.329101562 666.059332927 240.124023438 c 128,-1,17
 689.739471101 299.999023438 689.739471101 299.999023438 689.739471101 368.088867188 c 0,18,19
 689.739471101 486.9765625 689.739471101 486.9765625 626.389200285 570.624023438 c 128,-1,20
 563.168504775 654.1015625 563.168504775 654.1015625 441.30945905 687.626953125 c 0,21,22
 418.8859 693.439453125 418.8859 693.439453125 396.258435625 698.219726562 c 128,-1,23
 373.63097125 703 373.63097125 703 350.826721962 703 c 2,24,-1
 321.808884774 703 l 2,25,26
 321.085673768 702.909179688 321.085673768 702.909179688 315.642506482 702.510742188 c 0,27,28
 300.454070879 701.400390625 300.454070879 701.400390625 284.272224602 690.631835938 c 0,29,30
 275.97136938 685.108398438 275.97136938 685.108398438 271.70241552 675.588867188 c 0,0,1
124.391601562 683.0859375 m 128,-1,32
 111.630859375 686 111.630859375 686 97.5 686 c 2,33,34
 81 678 81 678 64.5 685 c 2,35,36
 53.001953125 685 53.001953125 685 42.912109375 692.567382812 c 0,37,38
 36.154296875 697.973632812 36.154296875 697.973632812 36.154296875 707.020507812 c 0,39,40
 36.154296875 709.357421875 36.154296875 709.357421875 36.62890625 711.888671875 c 0,41,42
 38.5537109375 722.159179688 38.5537109375 722.159179688 42.892578125 726.497070312 c 128,-1,43
 47.2314453125 730.8359375 47.2314453125 730.8359375 53.9443359375 733.07421875 c 0,44,45
 71.984375 739.086914062 71.984375 739.086914062 111.965820312 742.534179688 c 128,-1,46
 151.947265625 745.98046875 151.947265625 745.98046875 186.304253595 747.986328125 c 128,-1,47
 220.859677283 749.9921875 220.859677283 749.9921875 252.859755414 750.99609375 c 0,48,49
 316.757456784 753 316.757456784 753 346.712454901 753 c 0,50,51
 452.833625551 753 452.833625551 753 541.033225668 726.129882812 c 128,-1,52
 629.232825786 699.260742188 629.232825786 699.260742188 692.621266071 648.813476562 c 0,53,54
 754.62890625 598.203125 754.62890625 598.203125 788.337890625 525.076171875 c 128,-1,55
 822 452.05078125 822 452.05078125 822 362.06640625 c 128,-1,56
 822 272.08203125 822 272.08203125 784.174804688 203.409179688 c 128,-1,57
 746.350585938 134.735351562 746.350585938 134.735351562 684.180790946 87.6875 c 0,58,59
 620.855631624 40.7841796875 620.855631624 40.7841796875 539.308568309 16.36328125 c 128,-1,60
 457.957374642 -8 457.957374642 -8 373.455190797 -8 c 0,61,62
 346.965578754 -8 346.965578754 -8 331.411519809 -6.9921875 c 2,63,64
 300.496258188 2.51171875 300.496258188 2.51171875 269.580996567 -2.984375 c 2,65,66
 253.889326639 -2 253.889326639 -2 219.158122498 -2 c 128,-1,67
 184.427922816 -2 184.427922816 -2 144.221679688 -4.5009765625 c 0,68,69
 104.721679688 -7.0009765625 104.721679688 -7.0009765625 61.5 -7 c 0,70,71
 54.87109375 -7 54.87109375 -7 49.935546875 -3.0517578125 c 128,-1,72
 45 0.8125 45 0.8125 45 11.435546875 c 128,-1,73
 45 22.0576171875 45 22.0576171875 52.17578125 29.080078125 c 0,74,75
 64.7080078125 41.345703125 64.7080078125 41.345703125 87.1162109375 43.92578125 c 0,76,77
 93.1962890625 44.6259765625 93.1962890625 44.6259765625 101.938476562 46.7529296875 c 0,78,79
 131.408203125 52.87109375 131.408203125 52.87109375 137.287109375 64.37890625 c 0,80,81
 145.705078125 80.8564453125 145.705078125 80.8564453125 147.506835938 128.450195312 c 0,82,83
 148.005859375 140.345703125 148.005859375 140.345703125 149.00390625 163.466796875 c 0,84,85
 151 209.702148438 151 209.702148438 151 316.54296875 c 2,86,87
 151 431.536132812 151 431.536132812 151 550.451171875 c 2,88,89
 151 592.224609375 151 592.224609375 149.016601562 615.516601562 c 0,90,91
 145.013671875 662.529296875 145.013671875 662.529296875 142.596679688 668.924804688 c 0,92,31
 137.15234375 680.171875 137.15234375 680.171875 124.391601562 683.0859375 c 128,-1,32
EndSplineSet
Validated: 33
Substitution2: "'c2sc' Versalien in Kapit+AOQA-lchen in Lateinisch Nachschlagetabelle 0 Subtabelle" uni1D05
EndChar

